<svg viewBox="0 0 2000 1000" xmlns="http://www.w3.org/2000/svg"><mask id="b" x="0" y="0" width="2000" height="1000"><path fill="url(#a)" d="M0 0h2000v1000H0z"/></mask><path fill="#0F1010" d="M0 0h2000v1000H0z"/><g style="transform-origin:center center" clip-rule="evenodd" stroke="#292b2f" stroke-width="2" mask="url(#b)"><g fill="none"><path d="M67.5 39.348v77.85l67.496 38.928v-77.85L67.5 39.348ZM134.996 156.126l67.504-38.928v-77.85l-67.504 38.928v77.85Z" stroke-width=".9"/><path d="M67.5 39.348 134.996.426 202.5 39.348l-67.504 38.928L67.5 39.348Z" stroke-width=".9"/></g><g fill-rule="evenodd"><path d="M202.5 39.348v77.85l67.496 38.928v-77.85L202.5 39.348Z" fill="#292b2f76" stroke-width=".9"/><path d="m269.996 156.126 67.504-38.928v-77.85l-67.504 38.928v77.85Z" fill="#292b2f53" stroke-width=".9"/><path d="M202.5 39.348 269.996.426 337.5 39.348l-67.504 38.928L202.5 39.348Z" fill="#292b2f29" stroke-width=".9"/></g><g fill="none"><path d="M337.5 39.348v77.85l67.496 38.928v-77.85L337.5 39.348ZM404.996 156.126l67.504-38.928v-77.85l-67.504 38.928v77.85Z" stroke-width=".9"/><path d="M337.5 39.348 404.996.426 472.5 39.348l-67.504 38.928L337.5 39.348Z" stroke-width=".9"/></g><g fill="none"><path d="M472.5 39.348v77.85l67.496 38.928v-77.85L472.5 39.348ZM539.996 156.126l67.504-38.928v-77.85l-67.504 38.928v77.85Z" stroke-width=".9"/><path d="M472.5 39.348 539.996.426 607.5 39.348l-67.504 38.928L472.5 39.348Z" stroke-width=".9"/></g><g fill="none"><path d="M607.5 39.348v77.85l67.496 38.928v-77.85L607.5 39.348ZM674.996 156.126l67.504-38.928v-77.85l-67.504 38.928v77.85Z" stroke-width=".9"/><path d="M607.5 39.348 674.996.426 742.5 39.348l-67.504 38.928L607.5 39.348Z" stroke-width=".9"/></g><g fill-rule="evenodd"><path d="M742.5 39.348v77.85l67.496 38.928v-77.85L742.5 39.348Z" fill="#292b2f93" stroke-width=".9"/><path d="m809.996 156.126 67.504-38.928v-77.85l-67.504 38.928v77.85Z" fill="#292b2f67" stroke-width=".9"/><path d="M742.5 39.348 809.996.426 877.5 39.348l-67.504 38.928L742.5 39.348Z" fill="#292b2f34" stroke-width=".9"/></g><g fill="none"><path d="M877.5 39.348v77.85l67.496 38.928v-77.85L877.5 39.348ZM944.996 156.126l67.504-38.928v-77.85l-67.504 38.928v77.85Z" stroke-width=".9"/><path d="M877.5 39.348 944.996.426l67.504 38.922-67.504 38.928L877.5 39.348Z" stroke-width=".9"/></g><g fill="none"><path d="M1012.5 39.348v77.85l67.496 38.928v-77.85L1012.5 39.348ZM1079.996 156.126l67.504-38.928v-77.85l-67.504 38.928v77.85Z" stroke-width=".9"/><path d="M1012.5 39.348 1079.996.426l67.504 38.922-67.504 38.928-67.496-38.928Z" stroke-width=".9"/></g><g fill="none"><path d="M1147.5 39.348v77.85l67.496 38.928v-77.85L1147.5 39.348ZM1214.996 156.126l67.504-38.928v-77.85l-67.504 38.928v77.85Z" stroke-width=".9"/><path d="M1147.5 39.348 1214.996.426l67.504 38.922-67.504 38.928-67.496-38.928Z" stroke-width=".9"/></g><g fill-rule="evenodd"><path d="M1282.5 39.348v77.85l67.496 38.928v-77.85L1282.5 39.348Z" fill="#292b2fc5" stroke-width=".9"/><path d="m1349.996 156.126 67.504-38.928v-77.85l-67.504 38.928v77.85Z" fill="#292b2f8a" stroke-width=".9"/><path d="M1282.5 39.348 1349.996.426l67.504 38.922-67.504 38.928-67.496-38.928Z" fill="#292b2f45" stroke-width=".9"/></g><g fill-rule="evenodd"><path d="M1417.5 39.348v77.85l67.496 38.928v-77.85L1417.5 39.348Z" fill="#292b2ff4" stroke-width=".9"/><path d="m1484.996 156.126 67.504-38.928v-77.85l-67.504 38.928v77.85Z" fill="#292b2fab" stroke-width=".9"/><path d="M1417.5 39.348 1484.996.426l67.504 38.922-67.504 38.928-67.496-38.928Z" fill="#292b2f55" stroke-width=".9"/></g><g fill="none"><path d="M1552.5 39.348v77.85l67.496 38.928v-77.85L1552.5 39.348ZM1619.996 156.126l67.504-38.928v-77.85l-67.504 38.928v77.85Z" stroke-width=".9"/><path d="M1552.5 39.348 1619.996.426l67.504 38.922-67.504 38.928-67.496-38.928Z" stroke-width=".9"/></g><g fill="none"><path d="M1687.5 39.348v77.85l67.496 38.928v-77.85L1687.5 39.348ZM1754.996 156.126l67.504-38.928v-77.85l-67.504 38.928v77.85Z" stroke-width=".9"/><path d="M1687.5 39.348 1754.996.426l67.504 38.922-67.504 38.928-67.496-38.928Z" stroke-width=".9"/></g><g fill="none"><path d="M1822.5 39.348v77.85l67.496 38.928v-77.85L1822.5 39.348ZM1889.996 156.126l67.504-38.928v-77.85l-67.504 38.928v77.85Z" stroke-width=".9"/><path d="M1822.5 39.348 1889.996.426l67.504 38.922-67.504 38.928-67.496-38.928Z" stroke-width=".9"/></g><g fill="none"><path d="M1957.5 39.348v77.85l67.496 38.928v-77.85L1957.5 39.348ZM2024.996 156.126l67.504-38.928v-77.85l-67.504 38.928v77.85Z" stroke-width=".9"/><path d="M1957.5 39.348 2024.996.426l67.504 38.922-67.504 38.928-67.496-38.928Z" stroke-width=".9"/></g><g fill="none"><path d="M2092.5 39.348v77.85l67.496 38.928v-77.85L2092.5 39.348ZM2159.996 156.126l67.504-38.928v-77.85l-67.504 38.928v77.85Z" stroke-width=".9"/><path d="M2092.5 39.348 2159.996.426l67.504 38.922-67.504 38.928-67.496-38.928Z" stroke-width=".9"/></g><g fill-rule="evenodd"><path d="M2227.5 39.348v77.85l67.496 38.928v-77.85L2227.5 39.348Z" fill="#292b2f40" stroke-width=".9"/><path d="m2294.996 156.126 67.504-38.928v-77.85l-67.504 38.928v77.85Z" fill="#292b2f2d" stroke-width=".9"/><path d="M2227.5 39.348 2294.996.426l67.504 38.922-67.504 38.928-67.496-38.928Z" fill="#292b2f16" stroke-width=".9"/></g><g fill="none"><path d="M2362.5 39.348v77.85l67.496 38.928v-77.85L2362.5 39.348ZM2429.996 156.126l67.504-38.928v-77.85l-67.504 38.928v77.85Z" stroke-width=".9"/><path d="M2362.5 39.348 2429.996.426l67.504 38.922-67.504 38.928-67.496-38.928Z" stroke-width=".9"/></g><g fill="none"><path d="M2497.5 39.348v77.85l67.496 38.928v-77.85L2497.5 39.348ZM2564.996 156.126l67.504-38.928v-77.85l-67.504 38.928v77.85Z" stroke-width=".9"/><path d="M2497.5 39.348 2564.996.426l67.504 38.922-67.504 38.928-67.496-38.928Z" stroke-width=".9"/></g><g fill="none"><path d="M2632.5 39.348v77.85l67.496 38.928v-77.85L2632.5 39.348ZM2699.996 156.126l67.504-38.928v-77.85l-67.504 38.928v77.85Z" stroke-width=".9"/><path d="M2632.5 39.348 2699.996.426l67.504 38.922-67.504 38.928-67.496-38.928Z" stroke-width=".9"/></g><g fill-rule="evenodd"><path d="M0 156.348v77.85l67.496 38.928v-77.85L0 156.348Z" fill="#292b2feb" stroke-width=".9"/><path d="M67.496 273.126 135 234.198v-77.85l-67.504 38.928v77.85Z" fill="#292b2fa5" stroke-width=".9"/><path d="m0 156.348 67.496-38.922L135 156.348l-67.504 38.928L0 156.348Z" fill="#292b2f52" stroke-width=".9"/></g><g fill="none"><path d="M135 156.348v77.85l67.496 38.928v-77.85L135 156.348ZM202.496 273.126 270 234.198v-77.85l-67.504 38.928v77.85Z" stroke-width=".9"/><path d="m135 156.348 67.496-38.922L270 156.348l-67.504 38.928L135 156.348Z" stroke-width=".9"/></g><g fill="none"><path d="M270 156.348v77.85l67.496 38.928v-77.85L270 156.348ZM337.496 273.126 405 234.198v-77.85l-67.504 38.928v77.85Z" stroke-width=".9"/><path d="m270 156.348 67.496-38.922L405 156.348l-67.504 38.928L270 156.348Z" stroke-width=".9"/></g><g fill-rule="evenodd"><path d="M405 156.348v77.85l67.496 38.928v-77.85L405 156.348Z" fill="#292b2f08" stroke-width=".9"/><path d="M472.496 273.126 540 234.198v-77.85l-67.504 38.928v77.85Z" fill="#292b2f05" stroke-width=".9"/><path d="m405 156.348 67.496-38.922L540 156.348l-67.504 38.928L405 156.348Z" fill="#292b2f03" stroke-width=".9"/></g><g fill="none"><path d="M540 156.348v77.85l67.496 38.928v-77.85L540 156.348ZM607.496 273.126 675 234.198v-77.85l-67.504 38.928v77.85Z" stroke-width=".9"/><path d="m540 156.348 67.496-38.922L675 156.348l-67.504 38.928L540 156.348Z" stroke-width=".9"/></g><g fill="none"><path d="M675 156.348v77.85l67.496 38.928v-77.85L675 156.348ZM742.496 273.126 810 234.198v-77.85l-67.504 38.928v77.85Z" stroke-width=".9"/><path d="m675 156.348 67.496-38.922L810 156.348l-67.504 38.928L675 156.348Z" stroke-width=".9"/></g><g fill="none"><path d="M810 156.348v77.85l67.496 38.928v-77.85L810 156.348ZM877.496 273.126 945 234.198v-77.85l-67.504 38.928v77.85Z" stroke-width=".9"/><path d="m810 156.348 67.496-38.922L945 156.348l-67.504 38.928L810 156.348Z" stroke-width=".9"/></g><g fill-rule="evenodd"><path d="M945 156.348v77.85l67.496 38.928v-77.85L945 156.348Z" fill="#292b2fba" stroke-width=".9"/><path d="M1012.496 273.126 1080 234.198v-77.85l-67.504 38.928v77.85Z" fill="#292b2f82" stroke-width=".9"/><path d="m945 156.348 67.496-38.922L1080 156.348l-67.504 38.928L945 156.348Z" fill="#292b2f41" stroke-width=".9"/></g><g fill="none"><path d="M1080 156.348v77.85l67.496 38.928v-77.85L1080 156.348ZM1147.496 273.126 1215 234.198v-77.85l-67.504 38.928v77.85Z" stroke-width=".9"/><path d="m1080 156.348 67.496-38.922L1215 156.348l-67.504 38.928L1080 156.348Z" stroke-width=".9"/></g><g fill="none"><path d="M1215 156.348v77.85l67.496 38.928v-77.85L1215 156.348ZM1282.496 273.126 1350 234.198v-77.85l-67.504 38.928v77.85Z" stroke-width=".9"/><path d="m1215 156.348 67.496-38.922L1350 156.348l-67.504 38.928L1215 156.348Z" stroke-width=".9"/></g><g fill-rule="evenodd"><path d="M1350 156.348v77.85l67.496 38.928v-77.85L1350 156.348Z" fill="#292b2f20" stroke-width=".9"/><path d="M1417.496 273.126 1485 234.198v-77.85l-67.504 38.928v77.85Z" fill="#292b2f16" stroke-width=".9"/><path d="m1350 156.348 67.496-38.922L1485 156.348l-67.504 38.928L1350 156.348Z" fill="#292b2f0b" stroke-width=".9"/></g><g fill="none"><path d="M1485 156.348v77.85l67.496 38.928v-77.85L1485 156.348ZM1552.496 273.126 1620 234.198v-77.85l-67.504 38.928v77.85Z" stroke-width=".9"/><path d="m1485 156.348 67.496-38.922L1620 156.348l-67.504 38.928L1485 156.348Z" stroke-width=".9"/></g><g fill-rule="evenodd"><path d="M1620 156.348v77.85l67.496 38.928v-77.85L1620 156.348Z" fill="#292b2fbc" stroke-width=".9"/><path d="M1687.496 273.126 1755 234.198v-77.85l-67.504 38.928v77.85Z" fill="#292b2f84" stroke-width=".9"/><path d="m1620 156.348 67.496-38.922L1755 156.348l-67.504 38.928L1620 156.348Z" fill="#292b2f42" stroke-width=".9"/></g><g fill-rule="evenodd"><path d="M1755 156.348v77.85l67.496 38.928v-77.85L1755 156.348Z" fill="#292b2ff6" stroke-width=".9"/><path d="M1822.496 273.126 1890 234.198v-77.85l-67.504 38.928v77.85Z" fill="#292b2fad" stroke-width=".9"/><path d="m1755 156.348 67.496-38.922L1890 156.348l-67.504 38.928L1755 156.348Z" fill="#292b2f56" stroke-width=".9"/></g><g fill="none"><path d="M1890 156.348v77.85l67.496 38.928v-77.85L1890 156.348ZM1957.496 273.126 2025 234.198v-77.85l-67.504 38.928v77.85Z" stroke-width=".9"/><path d="m1890 156.348 67.496-38.922L2025 156.348l-67.504 38.928L1890 156.348Z" stroke-width=".9"/></g><g fill="none"><path d="M2025 156.348v77.85l67.496 38.928v-77.85L2025 156.348ZM2092.496 273.126 2160 234.198v-77.85l-67.504 38.928v77.85Z" stroke-width=".9"/><path d="m2025 156.348 67.496-38.922L2160 156.348l-67.504 38.928L2025 156.348Z" stroke-width=".9"/></g><g fill-rule="evenodd"><path d="M2160 156.348v77.85l67.496 38.928v-77.85L2160 156.348Z" fill="#292b2f93" stroke-width=".9"/><path d="M2227.496 273.126 2295 234.198v-77.85l-67.504 38.928v77.85Z" fill="#292b2f67" stroke-width=".9"/><path d="m2160 156.348 67.496-38.922L2295 156.348l-67.504 38.928L2160 156.348Z" fill="#292b2f33" stroke-width=".9"/></g><g fill="none"><path d="M2295 156.348v77.85l67.496 38.928v-77.85L2295 156.348ZM2362.496 273.126 2430 234.198v-77.85l-67.504 38.928v77.85Z" stroke-width=".9"/><path d="m2295 156.348 67.496-38.922L2430 156.348l-67.504 38.928L2295 156.348Z" stroke-width=".9"/></g><g fill="none"><path d="M2430 156.348v77.85l67.496 38.928v-77.85L2430 156.348ZM2497.496 273.126 2565 234.198v-77.85l-67.504 38.928v77.85Z" stroke-width=".9"/><path d="m2430 156.348 67.496-38.922L2565 156.348l-67.504 38.928L2430 156.348Z" stroke-width=".9"/></g><g fill="none"><path d="M2565 156.348v77.85l67.496 38.928v-77.85L2565 156.348ZM2632.496 273.126 2700 234.198v-77.85l-67.504 38.928v77.85Z" stroke-width=".9"/><path d="m2565 156.348 67.496-38.922L2700 156.348l-67.504 38.928L2565 156.348Z" stroke-width=".9"/></g><g fill="none"><path d="M67.5 273.348v77.85l67.496 38.928v-77.85L67.5 273.348ZM134.996 390.126l67.504-38.928v-77.85l-67.504 38.928v77.85Z" stroke-width=".9"/><path d="m67.5 273.348 67.496-38.922 67.504 38.922-67.504 38.928L67.5 273.348Z" stroke-width=".9"/></g><g fill="none"><path d="M202.5 273.348v77.85l67.496 38.928v-77.85L202.5 273.348ZM269.996 390.126l67.504-38.928v-77.85l-67.504 38.928v77.85Z" stroke-width=".9"/><path d="m202.5 273.348 67.496-38.922 67.504 38.922-67.504 38.928-67.496-38.928Z" stroke-width=".9"/></g><g fill-rule="evenodd"><path d="M337.5 273.348v77.85l67.496 38.928v-77.85L337.5 273.348Z" fill="#292b2f4d" stroke-width=".9"/><path d="m404.996 390.126 67.504-38.928v-77.85l-67.504 38.928v77.85Z" fill="#292b2f36" stroke-width=".9"/><path d="m337.5 273.348 67.496-38.922 67.504 38.922-67.504 38.928-67.496-38.928Z" fill="#292b2f1b" stroke-width=".9"/></g><g fill="none"><path d="M472.5 273.348v77.85l67.496 38.928v-77.85L472.5 273.348ZM539.996 390.126l67.504-38.928v-77.85l-67.504 38.928v77.85Z" stroke-width=".9"/><path d="m472.5 273.348 67.496-38.922 67.504 38.922-67.504 38.928-67.496-38.928Z" stroke-width=".9"/></g><g fill-rule="evenodd"><path d="M607.5 273.348v77.85l67.496 38.928v-77.85L607.5 273.348Z" fill="#292b2f53" stroke-width=".9"/><path d="m674.996 390.126 67.504-38.928v-77.85l-67.504 38.928v77.85Z" fill="#292b2f3a" stroke-width=".9"/><path d="m607.5 273.348 67.496-38.922 67.504 38.922-67.504 38.928-67.496-38.928Z" fill="#292b2f1d" stroke-width=".9"/></g><g fill-rule="evenodd"><path d="M742.5 273.348v77.85l67.496 38.928v-77.85L742.5 273.348Z" fill="#292b2f10" stroke-width=".9"/><path d="m809.996 390.126 67.504-38.928v-77.85l-67.504 38.928v77.85Z" fill="#292b2f0b" stroke-width=".9"/><path d="m742.5 273.348 67.496-38.922 67.504 38.922-67.504 38.928-67.496-38.928Z" fill="#292b2f06" stroke-width=".9"/></g><g fill-rule="evenodd"><path d="M877.5 273.348v77.85l67.496 38.928v-77.85L877.5 273.348Z" fill="#292b2ffb" stroke-width=".9"/><path d="m944.996 390.126 67.504-38.928v-77.85l-67.504 38.928v77.85Z" fill="#292b2fb0" stroke-width=".9"/><path d="m877.5 273.348 67.496-38.922 67.504 38.922-67.504 38.928-67.496-38.928Z" fill="#292b2f58" stroke-width=".9"/></g><g fill-rule="evenodd"><path d="M1012.5 273.348v77.85l67.496 38.928v-77.85l-67.496-38.928Z" fill="#292b2f8c" stroke-width=".9"/><path d="m1079.996 390.126 67.504-38.928v-77.85l-67.504 38.928v77.85Z" fill="#292b2f62" stroke-width=".9"/><path d="m1012.5 273.348 67.496-38.922 67.504 38.922-67.504 38.928-67.496-38.928Z" fill="#292b2f31" stroke-width=".9"/></g><g fill="none"><path d="M1147.5 273.348v77.85l67.496 38.928v-77.85l-67.496-38.928ZM1214.996 390.126l67.504-38.928v-77.85l-67.504 38.928v77.85Z" stroke-width=".9"/><path d="m1147.5 273.348 67.496-38.922 67.504 38.922-67.504 38.928-67.496-38.928Z" stroke-width=".9"/></g><g fill="none"><path d="M1282.5 273.348v77.85l67.496 38.928v-77.85l-67.496-38.928ZM1349.996 390.126l67.504-38.928v-77.85l-67.504 38.928v77.85Z" stroke-width=".9"/><path d="m1282.5 273.348 67.496-38.922 67.504 38.922-67.504 38.928-67.496-38.928Z" stroke-width=".9"/></g><g fill="none"><path d="M1417.5 273.348v77.85l67.496 38.928v-77.85l-67.496-38.928ZM1484.996 390.126l67.504-38.928v-77.85l-67.504 38.928v77.85Z" stroke-width=".9"/><path d="m1417.5 273.348 67.496-38.922 67.504 38.922-67.504 38.928-67.496-38.928Z" stroke-width=".9"/></g><g fill-rule="evenodd"><path d="M1552.5 273.348v77.85l67.496 38.928v-77.85l-67.496-38.928Z" fill="#292b2f30" stroke-width=".9"/><path d="m1619.996 390.126 67.504-38.928v-77.85l-67.504 38.928v77.85Z" fill="#292b2f21" stroke-width=".9"/><path d="m1552.5 273.348 67.496-38.922 67.504 38.922-67.504 38.928-67.496-38.928Z" fill="#292b2f11" stroke-width=".9"/></g><g fill-rule="evenodd"><path d="M1687.5 273.348v77.85l67.496 38.928v-77.85l-67.496-38.928Z" fill="#292b2f1d" stroke-width=".9"/><path d="m1754.996 390.126 67.504-38.928v-77.85l-67.504 38.928v77.85Z" fill="#292b2f14" stroke-width=".9"/><path d="m1687.5 273.348 67.496-38.922 67.504 38.922-67.504 38.928-67.496-38.928Z" fill="#292b2f0a" stroke-width=".9"/></g><g fill="none"><path d="M1822.5 273.348v77.85l67.496 38.928v-77.85l-67.496-38.928ZM1889.996 390.126l67.504-38.928v-77.85l-67.504 38.928v77.85Z" stroke-width=".9"/><path d="m1822.5 273.348 67.496-38.922 67.504 38.922-67.504 38.928-67.496-38.928Z" stroke-width=".9"/></g><g fill="none"><path d="M1957.5 273.348v77.85l67.496 38.928v-77.85l-67.496-38.928ZM2024.996 390.126l67.504-38.928v-77.85l-67.504 38.928v77.85Z" stroke-width=".9"/><path d="m1957.5 273.348 67.496-38.922 67.504 38.922-67.504 38.928-67.496-38.928Z" stroke-width=".9"/></g><g fill-rule="evenodd"><path d="M2092.5 273.348v77.85l67.496 38.928v-77.85l-67.496-38.928Z" fill="#292b2fbd" stroke-width=".9"/><path d="m2159.996 390.126 67.504-38.928v-77.85l-67.504 38.928v77.85Z" fill="#292b2f84" stroke-width=".9"/><path d="m2092.5 273.348 67.496-38.922 67.504 38.922-67.504 38.928-67.496-38.928Z" fill="#292b2f42" stroke-width=".9"/></g><g fill="none"><path d="M2227.5 273.348v77.85l67.496 38.928v-77.85l-67.496-38.928ZM2294.996 390.126l67.504-38.928v-77.85l-67.504 38.928v77.85Z" stroke-width=".9"/><path d="m2227.5 273.348 67.496-38.922 67.504 38.922-67.504 38.928-67.496-38.928Z" stroke-width=".9"/></g><g fill="none"><path d="M2362.5 273.348v77.85l67.496 38.928v-77.85l-67.496-38.928ZM2429.996 390.126l67.504-38.928v-77.85l-67.504 38.928v77.85Z" stroke-width=".9"/><path d="m2362.5 273.348 67.496-38.922 67.504 38.922-67.504 38.928-67.496-38.928Z" stroke-width=".9"/></g><g fill="none"><path d="M2497.5 273.348v77.85l67.496 38.928v-77.85l-67.496-38.928ZM2564.996 390.126l67.504-38.928v-77.85l-67.504 38.928v77.85Z" stroke-width=".9"/><path d="m2497.5 273.348 67.496-38.922 67.504 38.922-67.504 38.928-67.496-38.928Z" stroke-width=".9"/></g><g fill="none"><path d="M2632.5 273.348v77.85l67.496 38.928v-77.85l-67.496-38.928ZM2699.996 390.126l67.504-38.928v-77.85l-67.504 38.928v77.85Z" stroke-width=".9"/><path d="m2632.5 273.348 67.496-38.922 67.504 38.922-67.504 38.928-67.496-38.928Z" stroke-width=".9"/></g><g fill="none"><path d="M0 390.348v77.85l67.496 38.928v-77.85L0 390.348ZM67.496 507.126 135 468.198v-77.85l-67.504 38.928v77.85Z" stroke-width=".9"/><path d="m0 390.348 67.496-38.922L135 390.348l-67.504 38.928L0 390.348Z" stroke-width=".9"/></g><g fill="none"><path d="M135 390.348v77.85l67.496 38.928v-77.85L135 390.348ZM202.496 507.126 270 468.198v-77.85l-67.504 38.928v77.85Z" stroke-width=".9"/><path d="m135 390.348 67.496-38.922L270 390.348l-67.504 38.928L135 390.348Z" stroke-width=".9"/></g><g fill="none"><path d="M270 390.348v77.85l67.496 38.928v-77.85L270 390.348ZM337.496 507.126 405 468.198v-77.85l-67.504 38.928v77.85Z" stroke-width=".9"/><path d="m270 390.348 67.496-38.922L405 390.348l-67.504 38.928L270 390.348Z" stroke-width=".9"/></g><g fill="none"><path d="M405 390.348v77.85l67.496 38.928v-77.85L405 390.348ZM472.496 507.126 540 468.198v-77.85l-67.504 38.928v77.85Z" stroke-width=".9"/><path d="m405 390.348 67.496-38.922L540 390.348l-67.504 38.928L405 390.348Z" stroke-width=".9"/></g><g fill="none"><path d="M540 390.348v77.85l67.496 38.928v-77.85L540 390.348ZM607.496 507.126 675 468.198v-77.85l-67.504 38.928v77.85Z" stroke-width=".9"/><path d="m540 390.348 67.496-38.922L675 390.348l-67.504 38.928L540 390.348Z" stroke-width=".9"/></g><g fill="none"><path d="M675 390.348v77.85l67.496 38.928v-77.85L675 390.348ZM742.496 507.126 810 468.198v-77.85l-67.504 38.928v77.85Z" stroke-width=".9"/><path d="m675 390.348 67.496-38.922L810 390.348l-67.504 38.928L675 390.348Z" stroke-width=".9"/></g><g fill-rule="evenodd"><path d="M810 390.348v77.85l67.496 38.928v-77.85L810 390.348Z" fill="#292b2f44" stroke-width=".9"/><path d="M877.496 507.126 945 468.198v-77.85l-67.504 38.928v77.85Z" fill="#292b2f2f" stroke-width=".9"/><path d="m810 390.348 67.496-38.922L945 390.348l-67.504 38.928L810 390.348Z" fill="#292b2f18" stroke-width=".9"/></g><g fill="none"><path d="M945 390.348v77.85l67.496 38.928v-77.85L945 390.348ZM1012.496 507.126 1080 468.198v-77.85l-67.504 38.928v77.85Z" stroke-width=".9"/><path d="m945 390.348 67.496-38.922L1080 390.348l-67.504 38.928L945 390.348Z" stroke-width=".9"/></g><g fill="none"><path d="M1080 390.348v77.85l67.496 38.928v-77.85L1080 390.348ZM1147.496 507.126 1215 468.198v-77.85l-67.504 38.928v77.85Z" stroke-width=".9"/><path d="m1080 390.348 67.496-38.922L1215 390.348l-67.504 38.928L1080 390.348Z" stroke-width=".9"/></g><g fill="none"><path d="M1215 390.348v77.85l67.496 38.928v-77.85L1215 390.348ZM1282.496 507.126 1350 468.198v-77.85l-67.504 38.928v77.85Z" stroke-width=".9"/><path d="m1215 390.348 67.496-38.922L1350 390.348l-67.504 38.928L1215 390.348Z" stroke-width=".9"/></g><g fill="none"><path d="M1350 390.348v77.85l67.496 38.928v-77.85L1350 390.348ZM1417.496 507.126 1485 468.198v-77.85l-67.504 38.928v77.85Z" stroke-width=".9"/><path d="m1350 390.348 67.496-38.922L1485 390.348l-67.504 38.928L1350 390.348Z" stroke-width=".9"/></g><g fill="none"><path d="M1485 390.348v77.85l67.496 38.928v-77.85L1485 390.348ZM1552.496 507.126 1620 468.198v-77.85l-67.504 38.928v77.85Z" stroke-width=".9"/><path d="m1485 390.348 67.496-38.922L1620 390.348l-67.504 38.928L1485 390.348Z" stroke-width=".9"/></g><g fill="none"><path d="M1620 390.348v77.85l67.496 38.928v-77.85L1620 390.348ZM1687.496 507.126 1755 468.198v-77.85l-67.504 38.928v77.85Z" stroke-width=".9"/><path d="m1620 390.348 67.496-38.922L1755 390.348l-67.504 38.928L1620 390.348Z" stroke-width=".9"/></g><g fill="none"><path d="M1755 390.348v77.85l67.496 38.928v-77.85L1755 390.348ZM1822.496 507.126 1890 468.198v-77.85l-67.504 38.928v77.85Z" stroke-width=".9"/><path d="m1755 390.348 67.496-38.922L1890 390.348l-67.504 38.928L1755 390.348Z" stroke-width=".9"/></g><g fill-rule="evenodd"><path d="M1890 390.348v77.85l67.496 38.928v-77.85L1890 390.348Z" fill="#292b2f89" stroke-width=".9"/><path d="M1957.496 507.126 2025 468.198v-77.85l-67.504 38.928v77.85Z" fill="#292b2f60" stroke-width=".9"/><path d="m1890 390.348 67.496-38.922L2025 390.348l-67.504 38.928L1890 390.348Z" fill="#292b2f30" stroke-width=".9"/></g><g fill="none"><path d="M2025 390.348v77.85l67.496 38.928v-77.85L2025 390.348ZM2092.496 507.126 2160 468.198v-77.85l-67.504 38.928v77.85Z" stroke-width=".9"/><path d="m2025 390.348 67.496-38.922L2160 390.348l-67.504 38.928L2025 390.348Z" stroke-width=".9"/></g><g fill-rule="evenodd"><path d="M2160 390.348v77.85l67.496 38.928v-77.85L2160 390.348Z" fill="#292b2fa3" stroke-width=".9"/><path d="M2227.496 507.126 2295 468.198v-77.85l-67.504 38.928v77.85Z" fill="#292b2f72" stroke-width=".9"/><path d="m2160 390.348 67.496-38.922L2295 390.348l-67.504 38.928L2160 390.348Z" fill="#292b2f39" stroke-width=".9"/></g><g fill="none"><path d="M2295 390.348v77.85l67.496 38.928v-77.85L2295 390.348ZM2362.496 507.126 2430 468.198v-77.85l-67.504 38.928v77.85Z" stroke-width=".9"/><path d="m2295 390.348 67.496-38.922L2430 390.348l-67.504 38.928L2295 390.348Z" stroke-width=".9"/></g><g fill="none"><path d="M2430 390.348v77.85l67.496 38.928v-77.85L2430 390.348ZM2497.496 507.126 2565 468.198v-77.85l-67.504 38.928v77.85Z" stroke-width=".9"/><path d="m2430 390.348 67.496-38.922L2565 390.348l-67.504 38.928L2430 390.348Z" stroke-width=".9"/></g><g fill="none"><path d="M2565 390.348v77.85l67.496 38.928v-77.85L2565 390.348ZM2632.496 507.126 2700 468.198v-77.85l-67.504 38.928v77.85Z" stroke-width=".9"/><path d="m2565 390.348 67.496-38.922L2700 390.348l-67.504 38.928L2565 390.348Z" stroke-width=".9"/></g><g fill-rule="evenodd"><path d="M67.5 507.348v77.85l67.496 38.928v-77.85L67.5 507.348Z" fill="#292b2f1b" stroke-width=".9"/><path d="m134.996 624.126 67.504-38.928v-77.85l-67.504 38.928v77.85Z" fill="#292b2f13" stroke-width=".9"/><path d="m67.5 507.348 67.496-38.922 67.504 38.922-67.504 38.928L67.5 507.348Z" fill="#292b2f0a" stroke-width=".9"/></g><g fill="none"><path d="M202.5 507.348v77.85l67.496 38.928v-77.85L202.5 507.348ZM269.996 624.126l67.504-38.928v-77.85l-67.504 38.928v77.85Z" stroke-width=".9"/><path d="m202.5 507.348 67.496-38.922 67.504 38.922-67.504 38.928-67.496-38.928Z" stroke-width=".9"/></g><g fill="none"><path d="M337.5 507.348v77.85l67.496 38.928v-77.85L337.5 507.348ZM404.996 624.126l67.504-38.928v-77.85l-67.504 38.928v77.85Z" stroke-width=".9"/><path d="m337.5 507.348 67.496-38.922 67.504 38.922-67.504 38.928-67.496-38.928Z" stroke-width=".9"/></g><g fill="none"><path d="M472.5 507.348v77.85l67.496 38.928v-77.85L472.5 507.348ZM539.996 624.126l67.504-38.928v-77.85l-67.504 38.928v77.85Z" stroke-width=".9"/><path d="m472.5 507.348 67.496-38.922 67.504 38.922-67.504 38.928-67.496-38.928Z" stroke-width=".9"/></g><g fill="none"><path d="M607.5 507.348v77.85l67.496 38.928v-77.85L607.5 507.348ZM674.996 624.126l67.504-38.928v-77.85l-67.504 38.928v77.85Z" stroke-width=".9"/><path d="m607.5 507.348 67.496-38.922 67.504 38.922-67.504 38.928-67.496-38.928Z" stroke-width=".9"/></g><g fill-rule="evenodd"><path d="M742.5 507.348v77.85l67.496 38.928v-77.85L742.5 507.348Z" fill="#292b2f14" stroke-width=".9"/><path d="m809.996 624.126 67.504-38.928v-77.85l-67.504 38.928v77.85Z" fill="#292b2f0e" stroke-width=".9"/><path d="m742.5 507.348 67.496-38.922 67.504 38.922-67.504 38.928-67.496-38.928Z" fill="#292b2f07" stroke-width=".9"/></g><g fill-rule="evenodd"><path d="M877.5 507.348v77.85l67.496 38.928v-77.85L877.5 507.348Z" fill="#292b2fe1" stroke-width=".9"/><path d="m944.996 624.126 67.504-38.928v-77.85l-67.504 38.928v77.85Z" fill="#292b2f9d" stroke-width=".9"/><path d="m877.5 507.348 67.496-38.922 67.504 38.922-67.504 38.928-67.496-38.928Z" fill="#292b2f4f" stroke-width=".9"/></g><g fill="none"><path d="M1012.5 507.348v77.85l67.496 38.928v-77.85l-67.496-38.928ZM1079.996 624.126l67.504-38.928v-77.85l-67.504 38.928v77.85Z" stroke-width=".9"/><path d="m1012.5 507.348 67.496-38.922 67.504 38.922-67.504 38.928-67.496-38.928Z" stroke-width=".9"/></g><g fill="none"><path d="M1147.5 507.348v77.85l67.496 38.928v-77.85l-67.496-38.928ZM1214.996 624.126l67.504-38.928v-77.85l-67.504 38.928v77.85Z" stroke-width=".9"/><path d="m1147.5 507.348 67.496-38.922 67.504 38.922-67.504 38.928-67.496-38.928Z" stroke-width=".9"/></g><g fill="none"><path d="M1282.5 507.348v77.85l67.496 38.928v-77.85l-67.496-38.928ZM1349.996 624.126l67.504-38.928v-77.85l-67.504 38.928v77.85Z" stroke-width=".9"/><path d="m1282.5 507.348 67.496-38.922 67.504 38.922-67.504 38.928-67.496-38.928Z" stroke-width=".9"/></g><g fill="none"><path d="M1417.5 507.348v77.85l67.496 38.928v-77.85l-67.496-38.928ZM1484.996 624.126l67.504-38.928v-77.85l-67.504 38.928v77.85Z" stroke-width=".9"/><path d="m1417.5 507.348 67.496-38.922 67.504 38.922-67.504 38.928-67.496-38.928Z" stroke-width=".9"/></g><g fill="none"><path d="M1552.5 507.348v77.85l67.496 38.928v-77.85l-67.496-38.928ZM1619.996 624.126l67.504-38.928v-77.85l-67.504 38.928v77.85Z" stroke-width=".9"/><path d="m1552.5 507.348 67.496-38.922 67.504 38.922-67.504 38.928-67.496-38.928Z" stroke-width=".9"/></g><g fill="none"><path d="M1687.5 507.348v77.85l67.496 38.928v-77.85l-67.496-38.928ZM1754.996 624.126l67.504-38.928v-77.85l-67.504 38.928v77.85Z" stroke-width=".9"/><path d="m1687.5 507.348 67.496-38.922 67.504 38.922-67.504 38.928-67.496-38.928Z" stroke-width=".9"/></g><g fill="none"><path d="M1822.5 507.348v77.85l67.496 38.928v-77.85l-67.496-38.928ZM1889.996 624.126l67.504-38.928v-77.85l-67.504 38.928v77.85Z" stroke-width=".9"/><path d="m1822.5 507.348 67.496-38.922 67.504 38.922-67.504 38.928-67.496-38.928Z" stroke-width=".9"/></g><g fill="none"><path d="M1957.5 507.348v77.85l67.496 38.928v-77.85l-67.496-38.928ZM2024.996 624.126l67.504-38.928v-77.85l-67.504 38.928v77.85Z" stroke-width=".9"/><path d="m1957.5 507.348 67.496-38.922 67.504 38.922-67.504 38.928-67.496-38.928Z" stroke-width=".9"/></g><g fill="none"><path d="M2092.5 507.348v77.85l67.496 38.928v-77.85l-67.496-38.928ZM2159.996 624.126l67.504-38.928v-77.85l-67.504 38.928v77.85Z" stroke-width=".9"/><path d="m2092.5 507.348 67.496-38.922 67.504 38.922-67.504 38.928-67.496-38.928Z" stroke-width=".9"/></g><g fill-rule="evenodd"><path d="M2227.5 507.348v77.85l67.496 38.928v-77.85l-67.496-38.928Z" fill="#292b2ff9" stroke-width=".9"/><path d="m2294.996 624.126 67.504-38.928v-77.85l-67.504 38.928v77.85Z" fill="#292b2fae" stroke-width=".9"/><path d="m2227.5 507.348 67.496-38.922 67.504 38.922-67.504 38.928-67.496-38.928Z" fill="#292b2f57" stroke-width=".9"/></g><g fill="none"><path d="M2362.5 507.348v77.85l67.496 38.928v-77.85l-67.496-38.928ZM2429.996 624.126l67.504-38.928v-77.85l-67.504 38.928v77.85Z" stroke-width=".9"/><path d="m2362.5 507.348 67.496-38.922 67.504 38.922-67.504 38.928-67.496-38.928Z" stroke-width=".9"/></g><g fill="none"><path d="M2497.5 507.348v77.85l67.496 38.928v-77.85l-67.496-38.928ZM2564.996 624.126l67.504-38.928v-77.85l-67.504 38.928v77.85Z" stroke-width=".9"/><path d="m2497.5 507.348 67.496-38.922 67.504 38.922-67.504 38.928-67.496-38.928Z" stroke-width=".9"/></g><g fill="none"><path d="M2632.5 507.348v77.85l67.496 38.928v-77.85l-67.496-38.928ZM2699.996 624.126l67.504-38.928v-77.85l-67.504 38.928v77.85Z" stroke-width=".9"/><path d="m2632.5 507.348 67.496-38.922 67.504 38.922-67.504 38.928-67.496-38.928Z" stroke-width=".9"/></g><g fill="none"><path d="M0 624.348v77.85l67.496 38.928v-77.85L0 624.348ZM67.496 741.126 135 702.198v-77.85l-67.504 38.928v77.85Z" stroke-width=".9"/><path d="m0 624.348 67.496-38.922L135 624.348l-67.504 38.928L0 624.348Z" stroke-width=".9"/></g><g fill-rule="evenodd"><path d="M135 624.348v77.85l67.496 38.928v-77.85L135 624.348Z" fill="#292b2f67" stroke-width=".9"/><path d="M202.496 741.126 270 702.198v-77.85l-67.504 38.928v77.85Z" fill="#292b2f48" stroke-width=".9"/><path d="m135 624.348 67.496-38.922L270 624.348l-67.504 38.928L135 624.348Z" fill="#292b2f24" stroke-width=".9"/></g><g fill="none"><path d="M270 624.348v77.85l67.496 38.928v-77.85L270 624.348ZM337.496 741.126 405 702.198v-77.85l-67.504 38.928v77.85Z" stroke-width=".9"/><path d="m270 624.348 67.496-38.922L405 624.348l-67.504 38.928L270 624.348Z" stroke-width=".9"/></g><g fill="none"><path d="M405 624.348v77.85l67.496 38.928v-77.85L405 624.348ZM472.496 741.126 540 702.198v-77.85l-67.504 38.928v77.85Z" stroke-width=".9"/><path d="m405 624.348 67.496-38.922L540 624.348l-67.504 38.928L405 624.348Z" stroke-width=".9"/></g><g fill="none"><path d="M540 624.348v77.85l67.496 38.928v-77.85L540 624.348ZM607.496 741.126 675 702.198v-77.85l-67.504 38.928v77.85Z" stroke-width=".9"/><path d="m540 624.348 67.496-38.922L675 624.348l-67.504 38.928L540 624.348Z" stroke-width=".9"/></g><g fill="none"><path d="M675 624.348v77.85l67.496 38.928v-77.85L675 624.348ZM742.496 741.126 810 702.198v-77.85l-67.504 38.928v77.85Z" stroke-width=".9"/><path d="m675 624.348 67.496-38.922L810 624.348l-67.504 38.928L675 624.348Z" stroke-width=".9"/></g><g fill-rule="evenodd"><path d="M810 624.348v77.85l67.496 38.928v-77.85L810 624.348Z" fill="#292b2f8d" stroke-width=".9"/><path d="M877.496 741.126 945 702.198v-77.85l-67.504 38.928v77.85Z" fill="#292b2f63" stroke-width=".9"/><path d="m810 624.348 67.496-38.922L945 624.348l-67.504 38.928L810 624.348Z" fill="#292b2f32" stroke-width=".9"/></g><g fill-rule="evenodd"><path d="M945 624.348v77.85l67.496 38.928v-77.85L945 624.348Z" fill="#292b2f35" stroke-width=".9"/><path d="M1012.496 741.126 1080 702.198v-77.85l-67.504 38.928v77.85Z" fill="#292b2f25" stroke-width=".9"/><path d="m945 624.348 67.496-38.922L1080 624.348l-67.504 38.928L945 624.348Z" fill="#292b2f12" stroke-width=".9"/></g><g fill="none"><path d="M1080 624.348v77.85l67.496 38.928v-77.85L1080 624.348ZM1147.496 741.126 1215 702.198v-77.85l-67.504 38.928v77.85Z" stroke-width=".9"/><path d="m1080 624.348 67.496-38.922L1215 624.348l-67.504 38.928L1080 624.348Z" stroke-width=".9"/></g><g fill="none"><path d="M1215 624.348v77.85l67.496 38.928v-77.85L1215 624.348ZM1282.496 741.126 1350 702.198v-77.85l-67.504 38.928v77.85Z" stroke-width=".9"/><path d="m1215 624.348 67.496-38.922L1350 624.348l-67.504 38.928L1215 624.348Z" stroke-width=".9"/></g><g fill-rule="evenodd"><path d="M1350 624.348v77.85l67.496 38.928v-77.85L1350 624.348Z" fill="#292b2f4c" stroke-width=".9"/><path d="M1417.496 741.126 1485 702.198v-77.85l-67.504 38.928v77.85Z" fill="#292b2f35" stroke-width=".9"/><path d="m1350 624.348 67.496-38.922L1485 624.348l-67.504 38.928L1350 624.348Z" fill="#292b2f1b" stroke-width=".9"/></g><g fill-rule="evenodd"><path d="M1485 624.348v77.85l67.496 38.928v-77.85L1485 624.348Z" fill="#292b2fe7" stroke-width=".9"/><path d="M1552.496 741.126 1620 702.198v-77.85l-67.504 38.928v77.85Z" fill="#292b2fa1" stroke-width=".9"/><path d="m1485 624.348 67.496-38.922L1620 624.348l-67.504 38.928L1485 624.348Z" fill="#292b2f51" stroke-width=".9"/></g><g fill="none"><path d="M1620 624.348v77.85l67.496 38.928v-77.85L1620 624.348ZM1687.496 741.126 1755 702.198v-77.85l-67.504 38.928v77.85Z" stroke-width=".9"/><path d="m1620 624.348 67.496-38.922L1755 624.348l-67.504 38.928L1620 624.348Z" stroke-width=".9"/></g><g fill="none"><path d="M1755 624.348v77.85l67.496 38.928v-77.85L1755 624.348ZM1822.496 741.126 1890 702.198v-77.85l-67.504 38.928v77.85Z" stroke-width=".9"/><path d="m1755 624.348 67.496-38.922L1890 624.348l-67.504 38.928L1755 624.348Z" stroke-width=".9"/></g><g fill="none"><path d="M1890 624.348v77.85l67.496 38.928v-77.85L1890 624.348ZM1957.496 741.126 2025 702.198v-77.85l-67.504 38.928v77.85Z" stroke-width=".9"/><path d="m1890 624.348 67.496-38.922L2025 624.348l-67.504 38.928L1890 624.348Z" stroke-width=".9"/></g><g fill="none"><path d="M2025 624.348v77.85l67.496 38.928v-77.85L2025 624.348ZM2092.496 741.126 2160 702.198v-77.85l-67.504 38.928v77.85Z" stroke-width=".9"/><path d="m2025 624.348 67.496-38.922L2160 624.348l-67.504 38.928L2025 624.348Z" stroke-width=".9"/></g><g fill-rule="evenodd"><path d="M2160 624.348v77.85l67.496 38.928v-77.85L2160 624.348Z" fill="#292b2f6c" stroke-width=".9"/><path d="M2227.496 741.126 2295 702.198v-77.85l-67.504 38.928v77.85Z" fill="#292b2f4b" stroke-width=".9"/><path d="m2160 624.348 67.496-38.922L2295 624.348l-67.504 38.928L2160 624.348Z" fill="#292b2f26" stroke-width=".9"/></g><g fill-rule="evenodd"><path d="M2295 624.348v77.85l67.496 38.928v-77.85L2295 624.348Z" fill="#292b2f5b" stroke-width=".9"/><path d="M2362.496 741.126 2430 702.198v-77.85l-67.504 38.928v77.85Z" fill="#292b2f40" stroke-width=".9"/><path d="m2295 624.348 67.496-38.922L2430 624.348l-67.504 38.928L2295 624.348Z" fill="#292b2f20" stroke-width=".9"/></g><g fill-rule="evenodd"><path d="M2430 624.348v77.85l67.496 38.928v-77.85L2430 624.348Z" fill="#292b2f26" stroke-width=".9"/><path d="M2497.496 741.126 2565 702.198v-77.85l-67.504 38.928v77.85Z" fill="#292b2f1b" stroke-width=".9"/><path d="m2430 624.348 67.496-38.922L2565 624.348l-67.504 38.928L2430 624.348Z" fill="#292b2f0d" stroke-width=".9"/></g><g fill="none"><path d="M2565 624.348v77.85l67.496 38.928v-77.85L2565 624.348ZM2632.496 741.126 2700 702.198v-77.85l-67.504 38.928v77.85Z" stroke-width=".9"/><path d="m2565 624.348 67.496-38.922L2700 624.348l-67.504 38.928L2565 624.348Z" stroke-width=".9"/></g><g fill-rule="evenodd"><path d="M67.5 741.348v77.85l67.496 38.928v-77.85L67.5 741.348Z" fill="#292b2fae" stroke-width=".9"/><path d="m134.996 858.126 67.504-38.928v-77.85l-67.504 38.928v77.85Z" fill="#292b2f7a" stroke-width=".9"/><path d="m67.5 741.348 67.496-38.922 67.504 38.922-67.504 38.928L67.5 741.348Z" fill="#292b2f3d" stroke-width=".9"/></g><g fill="none"><path d="M202.5 741.348v77.85l67.496 38.928v-77.85L202.5 741.348ZM269.996 858.126l67.504-38.928v-77.85l-67.504 38.928v77.85Z" stroke-width=".9"/><path d="m202.5 741.348 67.496-38.922 67.504 38.922-67.504 38.928-67.496-38.928Z" stroke-width=".9"/></g><g fill-rule="evenodd"><path d="M337.5 741.348v77.85l67.496 38.928v-77.85L337.5 741.348Z" fill="#292b2f35" stroke-width=".9"/><path d="m404.996 858.126 67.504-38.928v-77.85l-67.504 38.928v77.85Z" fill="#292b2f25" stroke-width=".9"/><path d="m337.5 741.348 67.496-38.922 67.504 38.922-67.504 38.928-67.496-38.928Z" fill="#292b2f12" stroke-width=".9"/></g><g fill="none"><path d="M472.5 741.348v77.85l67.496 38.928v-77.85L472.5 741.348ZM539.996 858.126l67.504-38.928v-77.85l-67.504 38.928v77.85Z" stroke-width=".9"/><path d="m472.5 741.348 67.496-38.922 67.504 38.922-67.504 38.928-67.496-38.928Z" stroke-width=".9"/></g><g fill="none"><path d="M607.5 741.348v77.85l67.496 38.928v-77.85L607.5 741.348ZM674.996 858.126l67.504-38.928v-77.85l-67.504 38.928v77.85Z" stroke-width=".9"/><path d="m607.5 741.348 67.496-38.922 67.504 38.922-67.504 38.928-67.496-38.928Z" stroke-width=".9"/></g><g fill-rule="evenodd"><path d="M742.5 741.348v77.85l67.496 38.928v-77.85L742.5 741.348Z" fill="#292b2fe3" stroke-width=".9"/><path d="m809.996 858.126 67.504-38.928v-77.85l-67.504 38.928v77.85Z" fill="#292b2f9f" stroke-width=".9"/><path d="m742.5 741.348 67.496-38.922 67.504 38.922-67.504 38.928-67.496-38.928Z" fill="#292b2f50" stroke-width=".9"/></g><g fill="none"><path d="M877.5 741.348v77.85l67.496 38.928v-77.85L877.5 741.348ZM944.996 858.126l67.504-38.928v-77.85l-67.504 38.928v77.85Z" stroke-width=".9"/><path d="m877.5 741.348 67.496-38.922 67.504 38.922-67.504 38.928-67.496-38.928Z" stroke-width=".9"/></g><g fill-rule="evenodd"><path d="M1012.5 741.348v77.85l67.496 38.928v-77.85l-67.496-38.928Z" fill="#292b2fc6" stroke-width=".9"/><path d="m1079.996 858.126 67.504-38.928v-77.85l-67.504 38.928v77.85Z" fill="#292b2f8b" stroke-width=".9"/><path d="m1012.5 741.348 67.496-38.922 67.504 38.922-67.504 38.928-67.496-38.928Z" fill="#292b2f45" stroke-width=".9"/></g><g fill="none"><path d="M1147.5 741.348v77.85l67.496 38.928v-77.85l-67.496-38.928ZM1214.996 858.126l67.504-38.928v-77.85l-67.504 38.928v77.85Z" stroke-width=".9"/><path d="m1147.5 741.348 67.496-38.922 67.504 38.922-67.504 38.928-67.496-38.928Z" stroke-width=".9"/></g><g fill-rule="evenodd"><path d="M1282.5 741.348v77.85l67.496 38.928v-77.85l-67.496-38.928Z" fill="#292b2f22" stroke-width=".9"/><path d="m1349.996 858.126 67.504-38.928v-77.85l-67.504 38.928v77.85Z" fill="#292b2f18" stroke-width=".9"/><path d="m1282.5 741.348 67.496-38.922 67.504 38.922-67.504 38.928-67.496-38.928Z" fill="#292b2f0c" stroke-width=".9"/></g><g fill="none"><path d="M1417.5 741.348v77.85l67.496 38.928v-77.85l-67.496-38.928ZM1484.996 858.126l67.504-38.928v-77.85l-67.504 38.928v77.85Z" stroke-width=".9"/><path d="m1417.5 741.348 67.496-38.922 67.504 38.922-67.504 38.928-67.496-38.928Z" stroke-width=".9"/></g><g fill-rule="evenodd"><path d="M1552.5 741.348v77.85l67.496 38.928v-77.85l-67.496-38.928Z" fill="#292b2f87" stroke-width=".9"/><path d="m1619.996 858.126 67.504-38.928v-77.85l-67.504 38.928v77.85Z" fill="#292b2f5e" stroke-width=".9"/><path d="m1552.5 741.348 67.496-38.922 67.504 38.922-67.504 38.928-67.496-38.928Z" fill="#292b2f2f" stroke-width=".9"/></g><g fill-rule="evenodd"><path d="M1687.5 741.348v77.85l67.496 38.928v-77.85l-67.496-38.928Z" fill="#292b2f65" stroke-width=".9"/><path d="m1754.996 858.126 67.504-38.928v-77.85l-67.504 38.928v77.85Z" fill="#292b2f47" stroke-width=".9"/><path d="m1687.5 741.348 67.496-38.922 67.504 38.922-67.504 38.928-67.496-38.928Z" fill="#292b2f23" stroke-width=".9"/></g><g fill="none"><path d="M1822.5 741.348v77.85l67.496 38.928v-77.85l-67.496-38.928ZM1889.996 858.126l67.504-38.928v-77.85l-67.504 38.928v77.85Z" stroke-width=".9"/><path d="m1822.5 741.348 67.496-38.922 67.504 38.922-67.504 38.928-67.496-38.928Z" stroke-width=".9"/></g><g fill="none"><path d="M1957.5 741.348v77.85l67.496 38.928v-77.85l-67.496-38.928ZM2024.996 858.126l67.504-38.928v-77.85l-67.504 38.928v77.85Z" stroke-width=".9"/><path d="m1957.5 741.348 67.496-38.922 67.504 38.922-67.504 38.928-67.496-38.928Z" stroke-width=".9"/></g><g fill="none"><path d="M2092.5 741.348v77.85l67.496 38.928v-77.85l-67.496-38.928ZM2159.996 858.126l67.504-38.928v-77.85l-67.504 38.928v77.85Z" stroke-width=".9"/><path d="m2092.5 741.348 67.496-38.922 67.504 38.922-67.504 38.928-67.496-38.928Z" stroke-width=".9"/></g><g fill-rule="evenodd"><path d="M2227.5 741.348v77.85l67.496 38.928v-77.85l-67.496-38.928Z" fill="#292b2f83" stroke-width=".9"/><path d="m2294.996 858.126 67.504-38.928v-77.85l-67.504 38.928v77.85Z" fill="#292b2f5b" stroke-width=".9"/><path d="m2227.5 741.348 67.496-38.922 67.504 38.922-67.504 38.928-67.496-38.928Z" fill="#292b2f2e" stroke-width=".9"/></g><g fill="none"><path d="M2362.5 741.348v77.85l67.496 38.928v-77.85l-67.496-38.928ZM2429.996 858.126l67.504-38.928v-77.85l-67.504 38.928v77.85Z" stroke-width=".9"/><path d="m2362.5 741.348 67.496-38.922 67.504 38.922-67.504 38.928-67.496-38.928Z" stroke-width=".9"/></g><g fill="none"><path d="M2497.5 741.348v77.85l67.496 38.928v-77.85l-67.496-38.928ZM2564.996 858.126l67.504-38.928v-77.85l-67.504 38.928v77.85Z" stroke-width=".9"/><path d="m2497.5 741.348 67.496-38.922 67.504 38.922-67.504 38.928-67.496-38.928Z" stroke-width=".9"/></g><g fill="none"><path d="M2632.5 741.348v77.85l67.496 38.928v-77.85l-67.496-38.928ZM2699.996 858.126l67.504-38.928v-77.85l-67.504 38.928v77.85Z" stroke-width=".9"/><path d="m2632.5 741.348 67.496-38.922 67.504 38.922-67.504 38.928-67.496-38.928Z" stroke-width=".9"/></g><g fill-rule="evenodd"><path d="M0 858.348v77.85l67.496 38.928v-77.85L0 858.348Z" fill="#292b2fdd" stroke-width=".9"/><path d="M67.496 975.126 135 936.198v-77.85l-67.504 38.928v77.85Z" fill="#292b2f9b" stroke-width=".9"/><path d="m0 858.348 67.496-38.922L135 858.348l-67.504 38.928L0 858.348Z" fill="#292b2f4d" stroke-width=".9"/></g><g fill="none"><path d="M135 858.348v77.85l67.496 38.928v-77.85L135 858.348ZM202.496 975.126 270 936.198v-77.85l-67.504 38.928v77.85Z" stroke-width=".9"/><path d="m135 858.348 67.496-38.922L270 858.348l-67.504 38.928L135 858.348Z" stroke-width=".9"/></g><g fill-rule="evenodd"><path d="M270 858.348v77.85l67.496 38.928v-77.85L270 858.348Z" fill="#292b2fc4" stroke-width=".9"/><path d="M337.496 975.126 405 936.198v-77.85l-67.504 38.928v77.85Z" fill="#292b2f89" stroke-width=".9"/><path d="m270 858.348 67.496-38.922L405 858.348l-67.504 38.928L270 858.348Z" fill="#292b2f45" stroke-width=".9"/></g><g fill="none"><path d="M405 858.348v77.85l67.496 38.928v-77.85L405 858.348ZM472.496 975.126 540 936.198v-77.85l-67.504 38.928v77.85Z" stroke-width=".9"/><path d="m405 858.348 67.496-38.922L540 858.348l-67.504 38.928L405 858.348Z" stroke-width=".9"/></g><g fill="none"><path d="M540 858.348v77.85l67.496 38.928v-77.85L540 858.348ZM607.496 975.126 675 936.198v-77.85l-67.504 38.928v77.85Z" stroke-width=".9"/><path d="m540 858.348 67.496-38.922L675 858.348l-67.504 38.928L540 858.348Z" stroke-width=".9"/></g><g fill="none"><path d="M675 858.348v77.85l67.496 38.928v-77.85L675 858.348ZM742.496 975.126 810 936.198v-77.85l-67.504 38.928v77.85Z" stroke-width=".9"/><path d="m675 858.348 67.496-38.922L810 858.348l-67.504 38.928L675 858.348Z" stroke-width=".9"/></g><g fill="none"><path d="M810 858.348v77.85l67.496 38.928v-77.85L810 858.348ZM877.496 975.126 945 936.198v-77.85l-67.504 38.928v77.85Z" stroke-width=".9"/><path d="m810 858.348 67.496-38.922L945 858.348l-67.504 38.928L810 858.348Z" stroke-width=".9"/></g><g fill="none"><path d="M945 858.348v77.85l67.496 38.928v-77.85L945 858.348ZM1012.496 975.126 1080 936.198v-77.85l-67.504 38.928v77.85Z" stroke-width=".9"/><path d="m945 858.348 67.496-38.922L1080 858.348l-67.504 38.928L945 858.348Z" stroke-width=".9"/></g><g fill="none"><path d="M1080 858.348v77.85l67.496 38.928v-77.85L1080 858.348ZM1147.496 975.126 1215 936.198v-77.85l-67.504 38.928v77.85Z" stroke-width=".9"/><path d="m1080 858.348 67.496-38.922L1215 858.348l-67.504 38.928L1080 858.348Z" stroke-width=".9"/></g><g fill="none"><path d="M1215 858.348v77.85l67.496 38.928v-77.85L1215 858.348ZM1282.496 975.126 1350 936.198v-77.85l-67.504 38.928v77.85Z" stroke-width=".9"/><path d="m1215 858.348 67.496-38.922L1350 858.348l-67.504 38.928L1215 858.348Z" stroke-width=".9"/></g><g fill-rule="evenodd"><path d="M1350 858.348v77.85l67.496 38.928v-77.85L1350 858.348Z" fill="#292b2ffb" stroke-width=".9"/><path d="M1417.496 975.126 1485 936.198v-77.85l-67.504 38.928v77.85Z" fill="#292b2fb0" stroke-width=".9"/><path d="m1350 858.348 67.496-38.922L1485 858.348l-67.504 38.928L1350 858.348Z" fill="#292b2f58" stroke-width=".9"/></g><g fill-rule="evenodd"><path d="M1485 858.348v77.85l67.496 38.928v-77.85L1485 858.348Z" fill="#292b2f57" stroke-width=".9"/><path d="M1552.496 975.126 1620 936.198v-77.85l-67.504 38.928v77.85Z" fill="#292b2f3d" stroke-width=".9"/><path d="m1485 858.348 67.496-38.922L1620 858.348l-67.504 38.928L1485 858.348Z" fill="#292b2f1e" stroke-width=".9"/></g><g fill="none"><path d="M1620 858.348v77.85l67.496 38.928v-77.85L1620 858.348ZM1687.496 975.126 1755 936.198v-77.85l-67.504 38.928v77.85Z" stroke-width=".9"/><path d="m1620 858.348 67.496-38.922L1755 858.348l-67.504 38.928L1620 858.348Z" stroke-width=".9"/></g><g fill="none"><path d="M1755 858.348v77.85l67.496 38.928v-77.85L1755 858.348ZM1822.496 975.126 1890 936.198v-77.85l-67.504 38.928v77.85Z" stroke-width=".9"/><path d="m1755 858.348 67.496-38.922L1890 858.348l-67.504 38.928L1755 858.348Z" stroke-width=".9"/></g><g fill="none"><path d="M1890 858.348v77.85l67.496 38.928v-77.85L1890 858.348ZM1957.496 975.126 2025 936.198v-77.85l-67.504 38.928v77.85Z" stroke-width=".9"/><path d="m1890 858.348 67.496-38.922L2025 858.348l-67.504 38.928L1890 858.348Z" stroke-width=".9"/></g><g fill="none"><path d="M2025 858.348v77.85l67.496 38.928v-77.85L2025 858.348ZM2092.496 975.126 2160 936.198v-77.85l-67.504 38.928v77.85Z" stroke-width=".9"/><path d="m2025 858.348 67.496-38.922L2160 858.348l-67.504 38.928L2025 858.348Z" stroke-width=".9"/></g><g fill="none"><path d="M2160 858.348v77.85l67.496 38.928v-77.85L2160 858.348ZM2227.496 975.126 2295 936.198v-77.85l-67.504 38.928v77.85Z" stroke-width=".9"/><path d="m2160 858.348 67.496-38.922L2295 858.348l-67.504 38.928L2160 858.348Z" stroke-width=".9"/></g><g fill="none"><path d="M2295 858.348v77.85l67.496 38.928v-77.85L2295 858.348ZM2362.496 975.126 2430 936.198v-77.85l-67.504 38.928v77.85Z" stroke-width=".9"/><path d="m2295 858.348 67.496-38.922L2430 858.348l-67.504 38.928L2295 858.348Z" stroke-width=".9"/></g><g fill-rule="evenodd"><path d="M2430 858.348v77.85l67.496 38.928v-77.85L2430 858.348Z" fill="#292b2f8a" stroke-width=".9"/><path d="M2497.496 975.126 2565 936.198v-77.85l-67.504 38.928v77.85Z" fill="#292b2f61" stroke-width=".9"/><path d="m2430 858.348 67.496-38.922L2565 858.348l-67.504 38.928L2430 858.348Z" fill="#292b2f30" stroke-width=".9"/></g><g fill-rule="evenodd"><path d="M2565 858.348v77.85l67.496 38.928v-77.85L2565 858.348Z" fill="#292b2f36" stroke-width=".9"/><path d="M2632.496 975.126 2700 936.198v-77.85l-67.504 38.928v77.85Z" fill="#292b2f26" stroke-width=".9"/><path d="m2565 858.348 67.496-38.922L2700 858.348l-67.504 38.928L2565 858.348Z" fill="#292b2f13" stroke-width=".9"/></g><g fill-rule="evenodd"><path d="M67.5 975.348v77.85l67.496 38.928v-77.85L67.5 975.348Z" fill="#292b2fff" stroke-width=".9"/><path d="m134.996 1092.126 67.504-38.928v-77.85l-67.504 38.928v77.85Z" fill="#292b2fb2" stroke-width=".9"/><path d="m67.5 975.348 67.496-38.922 67.504 38.922-67.504 38.928L67.5 975.348Z" fill="#292b2f59" stroke-width=".9"/></g><g fill-rule="evenodd"><path d="M202.5 975.348v77.85l67.496 38.928v-77.85L202.5 975.348Z" fill="#292b2f94" stroke-width=".9"/><path d="m269.996 1092.126 67.504-38.928v-77.85l-67.504 38.928v77.85Z" fill="#292b2f67" stroke-width=".9"/><path d="m202.5 975.348 67.496-38.922 67.504 38.922-67.504 38.928-67.496-38.928Z" fill="#292b2f34" stroke-width=".9"/></g><g fill="none"><path d="M337.5 975.348v77.85l67.496 38.928v-77.85L337.5 975.348ZM404.996 1092.126l67.504-38.928v-77.85l-67.504 38.928v77.85Z" stroke-width=".9"/><path d="m337.5 975.348 67.496-38.922 67.504 38.922-67.504 38.928-67.496-38.928Z" stroke-width=".9"/></g><g fill="none"><path d="M472.5 975.348v77.85l67.496 38.928v-77.85L472.5 975.348ZM539.996 1092.126l67.504-38.928v-77.85l-67.504 38.928v77.85Z" stroke-width=".9"/><path d="m472.5 975.348 67.496-38.922 67.504 38.922-67.504 38.928-67.496-38.928Z" stroke-width=".9"/></g><g fill="none"><path d="M607.5 975.348v77.85l67.496 38.928v-77.85L607.5 975.348ZM674.996 1092.126l67.504-38.928v-77.85l-67.504 38.928v77.85Z" stroke-width=".9"/><path d="m607.5 975.348 67.496-38.922 67.504 38.922-67.504 38.928-67.496-38.928Z" stroke-width=".9"/></g><g fill-rule="evenodd"><path d="M742.5 975.348v77.85l67.496 38.928v-77.85L742.5 975.348Z" fill="#292b2f2c" stroke-width=".9"/><path d="m809.996 1092.126 67.504-38.928v-77.85l-67.504 38.928v77.85Z" fill="#292b2f1f" stroke-width=".9"/><path d="m742.5 975.348 67.496-38.922 67.504 38.922-67.504 38.928-67.496-38.928Z" fill="#292b2f10" stroke-width=".9"/></g><g fill="none"><path d="M877.5 975.348v77.85l67.496 38.928v-77.85L877.5 975.348ZM944.996 1092.126l67.504-38.928v-77.85l-67.504 38.928v77.85Z" stroke-width=".9"/><path d="m877.5 975.348 67.496-38.922 67.504 38.922-67.504 38.928-67.496-38.928Z" stroke-width=".9"/></g><g fill="none"><path d="M1012.5 975.348v77.85l67.496 38.928v-77.85l-67.496-38.928ZM1079.996 1092.126l67.504-38.928v-77.85l-67.504 38.928v77.85Z" stroke-width=".9"/><path d="m1012.5 975.348 67.496-38.922 67.504 38.922-67.504 38.928-67.496-38.928Z" stroke-width=".9"/></g><g fill="none"><path d="M1147.5 975.348v77.85l67.496 38.928v-77.85l-67.496-38.928ZM1214.996 1092.126l67.504-38.928v-77.85l-67.504 38.928v77.85Z" stroke-width=".9"/><path d="m1147.5 975.348 67.496-38.922 67.504 38.922-67.504 38.928-67.496-38.928Z" stroke-width=".9"/></g><g fill-rule="evenodd"><path d="M1282.5 975.348v77.85l67.496 38.928v-77.85l-67.496-38.928Z" fill="#292b2f1b" stroke-width=".9"/><path d="m1349.996 1092.126 67.504-38.928v-77.85l-67.504 38.928v77.85Z" fill="#292b2f13" stroke-width=".9"/><path d="m1282.5 975.348 67.496-38.922 67.504 38.922-67.504 38.928-67.496-38.928Z" fill="#292b2f09" stroke-width=".9"/></g><g fill-rule="evenodd"><path d="M1417.5 975.348v77.85l67.496 38.928v-77.85l-67.496-38.928Z" fill="#292b2f29" stroke-width=".9"/><path d="m1484.996 1092.126 67.504-38.928v-77.85l-67.504 38.928v77.85Z" fill="#292b2f1d" stroke-width=".9"/><path d="m1417.5 975.348 67.496-38.922 67.504 38.922-67.504 38.928-67.496-38.928Z" fill="#292b2f0e" stroke-width=".9"/></g><g fill="none"><path d="M1552.5 975.348v77.85l67.496 38.928v-77.85l-67.496-38.928ZM1619.996 1092.126l67.504-38.928v-77.85l-67.504 38.928v77.85Z" stroke-width=".9"/><path d="m1552.5 975.348 67.496-38.922 67.504 38.922-67.504 38.928-67.496-38.928Z" stroke-width=".9"/></g><g fill="none"><path d="M1687.5 975.348v77.85l67.496 38.928v-77.85l-67.496-38.928ZM1754.996 1092.126l67.504-38.928v-77.85l-67.504 38.928v77.85Z" stroke-width=".9"/><path d="m1687.5 975.348 67.496-38.922 67.504 38.922-67.504 38.928-67.496-38.928Z" stroke-width=".9"/></g><g fill-rule="evenodd"><path d="M1822.5 975.348v77.85l67.496 38.928v-77.85l-67.496-38.928Z" fill="#292b2f92" stroke-width=".9"/><path d="m1889.996 1092.126 67.504-38.928v-77.85l-67.504 38.928v77.85Z" fill="#292b2f66" stroke-width=".9"/><path d="m1822.5 975.348 67.496-38.922 67.504 38.922-67.504 38.928-67.496-38.928Z" fill="#292b2f33" stroke-width=".9"/></g><g fill="none"><path d="M1957.5 975.348v77.85l67.496 38.928v-77.85l-67.496-38.928ZM2024.996 1092.126l67.504-38.928v-77.85l-67.504 38.928v77.85Z" stroke-width=".9"/><path d="m1957.5 975.348 67.496-38.922 67.504 38.922-67.504 38.928-67.496-38.928Z" stroke-width=".9"/></g><g fill="none"><path d="M2092.5 975.348v77.85l67.496 38.928v-77.85l-67.496-38.928ZM2159.996 1092.126l67.504-38.928v-77.85l-67.504 38.928v77.85Z" stroke-width=".9"/><path d="m2092.5 975.348 67.496-38.922 67.504 38.922-67.504 38.928-67.496-38.928Z" stroke-width=".9"/></g><g fill-rule="evenodd"><path d="M2227.5 975.348v77.85l67.496 38.928v-77.85l-67.496-38.928Z" fill="#292b2fac" stroke-width=".9"/><path d="m2294.996 1092.126 67.504-38.928v-77.85l-67.504 38.928v77.85Z" fill="#292b2f78" stroke-width=".9"/><path d="m2227.5 975.348 67.496-38.922 67.504 38.922-67.504 38.928-67.496-38.928Z" fill="#292b2f3c" stroke-width=".9"/></g><g fill-rule="evenodd"><path d="M2362.5 975.348v77.85l67.496 38.928v-77.85l-67.496-38.928Z" fill="#292b2fe4" stroke-width=".9"/><path d="m2429.996 1092.126 67.504-38.928v-77.85l-67.504 38.928v77.85Z" fill="#292b2fa0" stroke-width=".9"/><path d="m2362.5 975.348 67.496-38.922 67.504 38.922-67.504 38.928-67.496-38.928Z" fill="#292b2f50" stroke-width=".9"/></g><g fill="none"><path d="M2497.5 975.348v77.85l67.496 38.928v-77.85l-67.496-38.928ZM2564.996 1092.126l67.504-38.928v-77.85l-67.504 38.928v77.85Z" stroke-width=".9"/><path d="m2497.5 975.348 67.496-38.922 67.504 38.922-67.504 38.928-67.496-38.928Z" stroke-width=".9"/></g><g fill="none"><path d="M2632.5 975.348v77.85l67.496 38.928v-77.85l-67.496-38.928ZM2699.996 1092.126l67.504-38.928v-77.85l-67.504 38.928v77.85Z" stroke-width=".9"/><path d="m2632.5 975.348 67.496-38.922 67.504 38.922-67.504 38.928-67.496-38.928Z" stroke-width=".9"/></g><g fill-rule="evenodd"><path d="M0 1092.348v77.85l67.496 38.928v-77.85L0 1092.348Z" fill="#292b2f76" stroke-width=".9"/><path d="M67.496 1209.126 135 1170.198v-77.85l-67.504 38.928v77.85Z" fill="#292b2f53" stroke-width=".9"/><path d="m0 1092.348 67.496-38.922L135 1092.348l-67.504 38.928L0 1092.348Z" fill="#292b2f29" stroke-width=".9"/></g><g fill-rule="evenodd"><path d="M135 1092.348v77.85l67.496 38.928v-77.85L135 1092.348Z" fill="#292b2f6e" stroke-width=".9"/><path d="M202.496 1209.126 270 1170.198v-77.85l-67.504 38.928v77.85Z" fill="#292b2f4d" stroke-width=".9"/><path d="m135 1092.348 67.496-38.922L270 1092.348l-67.504 38.928L135 1092.348Z" fill="#292b2f27" stroke-width=".9"/></g><g fill="none"><path d="M270 1092.348v77.85l67.496 38.928v-77.85L270 1092.348ZM337.496 1209.126 405 1170.198v-77.85l-67.504 38.928v77.85Z" stroke-width=".9"/><path d="m270 1092.348 67.496-38.922L405 1092.348l-67.504 38.928L270 1092.348Z" stroke-width=".9"/></g><g fill-rule="evenodd"><path d="M405 1092.348v77.85l67.496 38.928v-77.85L405 1092.348Z" fill="#292b2fa9" stroke-width=".9"/><path d="M472.496 1209.126 540 1170.198v-77.85l-67.504 38.928v77.85Z" fill="#292b2f77" stroke-width=".9"/><path d="m405 1092.348 67.496-38.922L540 1092.348l-67.504 38.928L405 1092.348Z" fill="#292b2f3b" stroke-width=".9"/></g><g fill="none"><path d="M540 1092.348v77.85l67.496 38.928v-77.85L540 1092.348ZM607.496 1209.126 675 1170.198v-77.85l-67.504 38.928v77.85Z" stroke-width=".9"/><path d="m540 1092.348 67.496-38.922L675 1092.348l-67.504 38.928L540 1092.348Z" stroke-width=".9"/></g><g fill="none"><path d="M675 1092.348v77.85l67.496 38.928v-77.85L675 1092.348ZM742.496 1209.126 810 1170.198v-77.85l-67.504 38.928v77.85Z" stroke-width=".9"/><path d="m675 1092.348 67.496-38.922L810 1092.348l-67.504 38.928L675 1092.348Z" stroke-width=".9"/></g><g fill="none"><path d="M810 1092.348v77.85l67.496 38.928v-77.85L810 1092.348ZM877.496 1209.126 945 1170.198v-77.85l-67.504 38.928v77.85Z" stroke-width=".9"/><path d="m810 1092.348 67.496-38.922L945 1092.348l-67.504 38.928L810 1092.348Z" stroke-width=".9"/></g><g fill="none"><path d="M945 1092.348v77.85l67.496 38.928v-77.85L945 1092.348ZM1012.496 1209.126l67.504-38.928v-77.85l-67.504 38.928v77.85Z" stroke-width=".9"/><path d="m945 1092.348 67.496-38.922 67.504 38.922-67.504 38.928L945 1092.348Z" stroke-width=".9"/></g><g fill="none"><path d="M1080 1092.348v77.85l67.496 38.928v-77.85L1080 1092.348ZM1147.496 1209.126l67.504-38.928v-77.85l-67.504 38.928v77.85Z" stroke-width=".9"/><path d="m1080 1092.348 67.496-38.922 67.504 38.922-67.504 38.928-67.496-38.928Z" stroke-width=".9"/></g><g fill="none"><path d="M1215 1092.348v77.85l67.496 38.928v-77.85L1215 1092.348ZM1282.496 1209.126l67.504-38.928v-77.85l-67.504 38.928v77.85Z" stroke-width=".9"/><path d="m1215 1092.348 67.496-38.922 67.504 38.922-67.504 38.928-67.496-38.928Z" stroke-width=".9"/></g><g fill-rule="evenodd"><path d="M1350 1092.348v77.85l67.496 38.928v-77.85L1350 1092.348Z" fill="#292b2f87" stroke-width=".9"/><path d="m1417.496 1209.126 67.504-38.928v-77.85l-67.504 38.928v77.85Z" fill="#292b2f5f" stroke-width=".9"/><path d="m1350 1092.348 67.496-38.922 67.504 38.922-67.504 38.928-67.496-38.928Z" fill="#292b2f2f" stroke-width=".9"/></g><g fill-rule="evenodd"><path d="M1485 1092.348v77.85l67.496 38.928v-77.85L1485 1092.348Z" fill="#292b2f4b" stroke-width=".9"/><path d="m1552.496 1209.126 67.504-38.928v-77.85l-67.504 38.928v77.85Z" fill="#292b2f35" stroke-width=".9"/><path d="m1485 1092.348 67.496-38.922 67.504 38.922-67.504 38.928-67.496-38.928Z" fill="#292b2f1a" stroke-width=".9"/></g><g fill="none"><path d="M1620 1092.348v77.85l67.496 38.928v-77.85L1620 1092.348ZM1687.496 1209.126l67.504-38.928v-77.85l-67.504 38.928v77.85Z" stroke-width=".9"/><path d="m1620 1092.348 67.496-38.922 67.504 38.922-67.504 38.928-67.496-38.928Z" stroke-width=".9"/></g><g fill="none"><path d="M1755 1092.348v77.85l67.496 38.928v-77.85L1755 1092.348ZM1822.496 1209.126l67.504-38.928v-77.85l-67.504 38.928v77.85Z" stroke-width=".9"/><path d="m1755 1092.348 67.496-38.922 67.504 38.922-67.504 38.928-67.496-38.928Z" stroke-width=".9"/></g><g fill-rule="evenodd"><path d="M1890 1092.348v77.85l67.496 38.928v-77.85L1890 1092.348Z" fill="#292b2f18" stroke-width=".9"/><path d="m1957.496 1209.126 67.504-38.928v-77.85l-67.504 38.928v77.85Z" fill="#292b2f11" stroke-width=".9"/><path d="m1890 1092.348 67.496-38.922 67.504 38.922-67.504 38.928-67.496-38.928Z" fill="#292b2f08" stroke-width=".9"/></g><g fill="none"><path d="M2025 1092.348v77.85l67.496 38.928v-77.85L2025 1092.348ZM2092.496 1209.126l67.504-38.928v-77.85l-67.504 38.928v77.85Z" stroke-width=".9"/><path d="m2025 1092.348 67.496-38.922 67.504 38.922-67.504 38.928-67.496-38.928Z" stroke-width=".9"/></g><g fill="none"><path d="M2160 1092.348v77.85l67.496 38.928v-77.85L2160 1092.348ZM2227.496 1209.126l67.504-38.928v-77.85l-67.504 38.928v77.85Z" stroke-width=".9"/><path d="m2160 1092.348 67.496-38.922 67.504 38.922-67.504 38.928-67.496-38.928Z" stroke-width=".9"/></g><g fill="none"><path d="M2295 1092.348v77.85l67.496 38.928v-77.85L2295 1092.348ZM2362.496 1209.126l67.504-38.928v-77.85l-67.504 38.928v77.85Z" stroke-width=".9"/><path d="m2295 1092.348 67.496-38.922 67.504 38.922-67.504 38.928-67.496-38.928Z" stroke-width=".9"/></g><g fill="none"><path d="M2430 1092.348v77.85l67.496 38.928v-77.85L2430 1092.348ZM2497.496 1209.126l67.504-38.928v-77.85l-67.504 38.928v77.85Z" stroke-width=".9"/><path d="m2430 1092.348 67.496-38.922 67.504 38.922-67.504 38.928-67.496-38.928Z" stroke-width=".9"/></g><g fill="none"><path d="M2565 1092.348v77.85l67.496 38.928v-77.85L2565 1092.348ZM2632.496 1209.126l67.504-38.928v-77.85l-67.504 38.928v77.85Z" stroke-width=".9"/><path d="m2565 1092.348 67.496-38.922 67.504 38.922-67.504 38.928-67.496-38.928Z" stroke-width=".9"/></g><g fill="none"><path d="M67.5 1209.348v77.85l67.496 38.928v-77.85L67.5 1209.348ZM134.996 1326.126l67.504-38.928v-77.85l-67.504 38.928v77.85Z" stroke-width=".9"/><path d="m67.5 1209.348 67.496-38.922 67.504 38.922-67.504 38.928-67.496-38.928Z" stroke-width=".9"/></g><g fill-rule="evenodd"><path d="M202.5 1209.348v77.85l67.496 38.928v-77.85l-67.496-38.928Z" fill="#292b2f6e" stroke-width=".9"/><path d="m269.996 1326.126 67.504-38.928v-77.85l-67.504 38.928v77.85Z" fill="#292b2f4d" stroke-width=".9"/><path d="m202.5 1209.348 67.496-38.922 67.504 38.922-67.504 38.928-67.496-38.928Z" fill="#292b2f26" stroke-width=".9"/></g><g fill="none"><path d="M337.5 1209.348v77.85l67.496 38.928v-77.85l-67.496-38.928ZM404.996 1326.126l67.504-38.928v-77.85l-67.504 38.928v77.85Z" stroke-width=".9"/><path d="m337.5 1209.348 67.496-38.922 67.504 38.922-67.504 38.928-67.496-38.928Z" stroke-width=".9"/></g><g fill-rule="evenodd"><path d="M472.5 1209.348v77.85l67.496 38.928v-77.85l-67.496-38.928Z" fill="#292b2f1b" stroke-width=".9"/><path d="m539.996 1326.126 67.504-38.928v-77.85l-67.504 38.928v77.85Z" fill="#292b2f13" stroke-width=".9"/><path d="m472.5 1209.348 67.496-38.922 67.504 38.922-67.504 38.928-67.496-38.928Z" fill="#292b2f0a" stroke-width=".9"/></g><g fill="none"><path d="M607.5 1209.348v77.85l67.496 38.928v-77.85l-67.496-38.928ZM674.996 1326.126l67.504-38.928v-77.85l-67.504 38.928v77.85Z" stroke-width=".9"/><path d="m607.5 1209.348 67.496-38.922 67.504 38.922-67.504 38.928-67.496-38.928Z" stroke-width=".9"/></g><g fill="none"><path d="M742.5 1209.348v77.85l67.496 38.928v-77.85l-67.496-38.928ZM809.996 1326.126l67.504-38.928v-77.85l-67.504 38.928v77.85Z" stroke-width=".9"/><path d="m742.5 1209.348 67.496-38.922 67.504 38.922-67.504 38.928-67.496-38.928Z" stroke-width=".9"/></g><g fill="none"><path d="M877.5 1209.348v77.85l67.496 38.928v-77.85l-67.496-38.928ZM944.996 1326.126l67.504-38.928v-77.85l-67.504 38.928v77.85Z" stroke-width=".9"/><path d="m877.5 1209.348 67.496-38.922 67.504 38.922-67.504 38.928-67.496-38.928Z" stroke-width=".9"/></g><g fill-rule="evenodd"><path d="M1012.5 1209.348v77.85l67.496 38.928v-77.85l-67.496-38.928Z" fill="#292b2f71" stroke-width=".9"/><path d="m1079.996 1326.126 67.504-38.928v-77.85l-67.504 38.928v77.85Z" fill="#292b2f4f" stroke-width=".9"/><path d="m1012.5 1209.348 67.496-38.922 67.504 38.922-67.504 38.928-67.496-38.928Z" fill="#292b2f28" stroke-width=".9"/></g><g fill-rule="evenodd"><path d="M1147.5 1209.348v77.85l67.496 38.928v-77.85l-67.496-38.928Z" fill="#292b2fa0" stroke-width=".9"/><path d="m1214.996 1326.126 67.504-38.928v-77.85l-67.504 38.928v77.85Z" fill="#292b2f70" stroke-width=".9"/><path d="m1147.5 1209.348 67.496-38.922 67.504 38.922-67.504 38.928-67.496-38.928Z" fill="#292b2f38" stroke-width=".9"/></g><g fill="none"><path d="M1282.5 1209.348v77.85l67.496 38.928v-77.85l-67.496-38.928ZM1349.996 1326.126l67.504-38.928v-77.85l-67.504 38.928v77.85Z" stroke-width=".9"/><path d="m1282.5 1209.348 67.496-38.922 67.504 38.922-67.504 38.928-67.496-38.928Z" stroke-width=".9"/></g><g fill="none"><path d="M1417.5 1209.348v77.85l67.496 38.928v-77.85l-67.496-38.928ZM1484.996 1326.126l67.504-38.928v-77.85l-67.504 38.928v77.85Z" stroke-width=".9"/><path d="m1417.5 1209.348 67.496-38.922 67.504 38.922-67.504 38.928-67.496-38.928Z" stroke-width=".9"/></g><g fill="none"><path d="M1552.5 1209.348v77.85l67.496 38.928v-77.85l-67.496-38.928ZM1619.996 1326.126l67.504-38.928v-77.85l-67.504 38.928v77.85Z" stroke-width=".9"/><path d="m1552.5 1209.348 67.496-38.922 67.504 38.922-67.504 38.928-67.496-38.928Z" stroke-width=".9"/></g><g fill="none"><path d="M1687.5 1209.348v77.85l67.496 38.928v-77.85l-67.496-38.928ZM1754.996 1326.126l67.504-38.928v-77.85l-67.504 38.928v77.85Z" stroke-width=".9"/><path d="m1687.5 1209.348 67.496-38.922 67.504 38.922-67.504 38.928-67.496-38.928Z" stroke-width=".9"/></g><g fill-rule="evenodd"><path d="M1822.5 1209.348v77.85l67.496 38.928v-77.85l-67.496-38.928Z" fill="#292b2fda" stroke-width=".9"/><path d="m1889.996 1326.126 67.504-38.928v-77.85l-67.504 38.928v77.85Z" fill="#292b2f98" stroke-width=".9"/><path d="m1822.5 1209.348 67.496-38.922 67.504 38.922-67.504 38.928-67.496-38.928Z" fill="#292b2f4c" stroke-width=".9"/></g><g fill="none"><path d="M1957.5 1209.348v77.85l67.496 38.928v-77.85l-67.496-38.928ZM2024.996 1326.126l67.504-38.928v-77.85l-67.504 38.928v77.85Z" stroke-width=".9"/><path d="m1957.5 1209.348 67.496-38.922 67.504 38.922-67.504 38.928-67.496-38.928Z" stroke-width=".9"/></g><g fill="none"><path d="M2092.5 1209.348v77.85l67.496 38.928v-77.85l-67.496-38.928ZM2159.996 1326.126l67.504-38.928v-77.85l-67.504 38.928v77.85Z" stroke-width=".9"/><path d="m2092.5 1209.348 67.496-38.922 67.504 38.922-67.504 38.928-67.496-38.928Z" stroke-width=".9"/></g><g fill-rule="evenodd"><path d="M2227.5 1209.348v77.85l67.496 38.928v-77.85l-67.496-38.928Z" fill="#292b2fa6" stroke-width=".9"/><path d="m2294.996 1326.126 67.504-38.928v-77.85l-67.504 38.928v77.85Z" fill="#292b2f75" stroke-width=".9"/><path d="m2227.5 1209.348 67.496-38.922 67.504 38.922-67.504 38.928-67.496-38.928Z" fill="#292b2f3a" stroke-width=".9"/></g><g fill-rule="evenodd"><path d="M2362.5 1209.348v77.85l67.496 38.928v-77.85l-67.496-38.928Z" fill="#292b2ff3" stroke-width=".9"/><path d="m2429.996 1326.126 67.504-38.928v-77.85l-67.504 38.928v77.85Z" fill="#292b2faa" stroke-width=".9"/><path d="m2362.5 1209.348 67.496-38.922 67.504 38.922-67.504 38.928-67.496-38.928Z" fill="#292b2f55" stroke-width=".9"/></g><g fill="none"><path d="M2497.5 1209.348v77.85l67.496 38.928v-77.85l-67.496-38.928ZM2564.996 1326.126l67.504-38.928v-77.85l-67.504 38.928v77.85Z" stroke-width=".9"/><path d="m2497.5 1209.348 67.496-38.922 67.504 38.922-67.504 38.928-67.496-38.928Z" stroke-width=".9"/></g><g fill="none"><path d="M2632.5 1209.348v77.85l67.496 38.928v-77.85l-67.496-38.928ZM2699.996 1326.126l67.504-38.928v-77.85l-67.504 38.928v77.85Z" stroke-width=".9"/><path d="m2632.5 1209.348 67.496-38.922 67.504 38.922-67.504 38.928-67.496-38.928Z" stroke-width=".9"/></g><g fill="none"><path d="M0 1326.348v77.85l67.496 38.928v-77.85L0 1326.348ZM67.496 1443.126 135 1404.198v-77.85l-67.504 38.928v77.85Z" stroke-width=".9"/><path d="m0 1326.348 67.496-38.922L135 1326.348l-67.504 38.928L0 1326.348Z" stroke-width=".9"/></g><g fill="none"><path d="M135 1326.348v77.85l67.496 38.928v-77.85L135 1326.348ZM202.496 1443.126 270 1404.198v-77.85l-67.504 38.928v77.85Z" stroke-width=".9"/><path d="m135 1326.348 67.496-38.922L270 1326.348l-67.504 38.928L135 1326.348Z" stroke-width=".9"/></g><g fill="none"><path d="M270 1326.348v77.85l67.496 38.928v-77.85L270 1326.348ZM337.496 1443.126 405 1404.198v-77.85l-67.504 38.928v77.85Z" stroke-width=".9"/><path d="m270 1326.348 67.496-38.922L405 1326.348l-67.504 38.928L270 1326.348Z" stroke-width=".9"/></g><g fill="none"><path d="M405 1326.348v77.85l67.496 38.928v-77.85L405 1326.348ZM472.496 1443.126 540 1404.198v-77.85l-67.504 38.928v77.85Z" stroke-width=".9"/><path d="m405 1326.348 67.496-38.922L540 1326.348l-67.504 38.928L405 1326.348Z" stroke-width=".9"/></g><g fill="none"><path d="M540 1326.348v77.85l67.496 38.928v-77.85L540 1326.348ZM607.496 1443.126 675 1404.198v-77.85l-67.504 38.928v77.85Z" stroke-width=".9"/><path d="m540 1326.348 67.496-38.922L675 1326.348l-67.504 38.928L540 1326.348Z" stroke-width=".9"/></g><g fill-rule="evenodd"><path d="M675 1326.348v77.85l67.496 38.928v-77.85L675 1326.348Z" fill="#292b2f39" stroke-width=".9"/><path d="M742.496 1443.126 810 1404.198v-77.85l-67.504 38.928v77.85Z" fill="#292b2f28" stroke-width=".9"/><path d="m675 1326.348 67.496-38.922L810 1326.348l-67.504 38.928L675 1326.348Z" fill="#292b2f14" stroke-width=".9"/></g><g fill-rule="evenodd"><path d="M810 1326.348v77.85l67.496 38.928v-77.85L810 1326.348Z" fill="#292b2f44" stroke-width=".9"/><path d="M877.496 1443.126 945 1404.198v-77.85l-67.504 38.928v77.85Z" fill="#292b2f2f" stroke-width=".9"/><path d="m810 1326.348 67.496-38.922L945 1326.348l-67.504 38.928L810 1326.348Z" fill="#292b2f18" stroke-width=".9"/></g><g fill-rule="evenodd"><path d="M945 1326.348v77.85l67.496 38.928v-77.85L945 1326.348Z" fill="#292b2f93" stroke-width=".9"/><path d="m1012.496 1443.126 67.504-38.928v-77.85l-67.504 38.928v77.85Z" fill="#292b2f67" stroke-width=".9"/><path d="m945 1326.348 67.496-38.922 67.504 38.922-67.504 38.928L945 1326.348Z" fill="#292b2f34" stroke-width=".9"/></g><g fill="none"><path d="M1080 1326.348v77.85l67.496 38.928v-77.85L1080 1326.348ZM1147.496 1443.126l67.504-38.928v-77.85l-67.504 38.928v77.85Z" stroke-width=".9"/><path d="m1080 1326.348 67.496-38.922 67.504 38.922-67.504 38.928-67.496-38.928Z" stroke-width=".9"/></g><g fill="none"><path d="M1215 1326.348v77.85l67.496 38.928v-77.85L1215 1326.348ZM1282.496 1443.126l67.504-38.928v-77.85l-67.504 38.928v77.85Z" stroke-width=".9"/><path d="m1215 1326.348 67.496-38.922 67.504 38.922-67.504 38.928-67.496-38.928Z" stroke-width=".9"/></g><g fill="none"><path d="M1350 1326.348v77.85l67.496 38.928v-77.85L1350 1326.348ZM1417.496 1443.126l67.504-38.928v-77.85l-67.504 38.928v77.85Z" stroke-width=".9"/><path d="m1350 1326.348 67.496-38.922 67.504 38.922-67.504 38.928-67.496-38.928Z" stroke-width=".9"/></g><g fill-rule="evenodd"><path d="M1485 1326.348v77.85l67.496 38.928v-77.85L1485 1326.348Z" fill="#292b2f96" stroke-width=".9"/><path d="m1552.496 1443.126 67.504-38.928v-77.85l-67.504 38.928v77.85Z" fill="#292b2f69" stroke-width=".9"/><path d="m1485 1326.348 67.496-38.922 67.504 38.922-67.504 38.928-67.496-38.928Z" fill="#292b2f34" stroke-width=".9"/></g><g fill-rule="evenodd"><path d="M1620 1326.348v77.85l67.496 38.928v-77.85L1620 1326.348Z" fill="#292b2f8b" stroke-width=".9"/><path d="m1687.496 1443.126 67.504-38.928v-77.85l-67.504 38.928v77.85Z" fill="#292b2f61" stroke-width=".9"/><path d="m1620 1326.348 67.496-38.922 67.504 38.922-67.504 38.928-67.496-38.928Z" fill="#292b2f31" stroke-width=".9"/></g><g fill-rule="evenodd"><path d="M1755 1326.348v77.85l67.496 38.928v-77.85L1755 1326.348Z" fill="#292b2f93" stroke-width=".9"/><path d="m1822.496 1443.126 67.504-38.928v-77.85l-67.504 38.928v77.85Z" fill="#292b2f67" stroke-width=".9"/><path d="m1755 1326.348 67.496-38.922 67.504 38.922-67.504 38.928-67.496-38.928Z" fill="#292b2f33" stroke-width=".9"/></g><g fill-rule="evenodd"><path d="M1890 1326.348v77.85l67.496 38.928v-77.85L1890 1326.348Z" fill="#292b2fa1" stroke-width=".9"/><path d="m1957.496 1443.126 67.504-38.928v-77.85l-67.504 38.928v77.85Z" fill="#292b2f71" stroke-width=".9"/><path d="m1890 1326.348 67.496-38.922 67.504 38.922-67.504 38.928-67.496-38.928Z" fill="#292b2f38" stroke-width=".9"/></g><g fill="none"><path d="M2025 1326.348v77.85l67.496 38.928v-77.85L2025 1326.348ZM2092.496 1443.126l67.504-38.928v-77.85l-67.504 38.928v77.85Z" stroke-width=".9"/><path d="m2025 1326.348 67.496-38.922 67.504 38.922-67.504 38.928-67.496-38.928Z" stroke-width=".9"/></g><g fill-rule="evenodd"><path d="M2160 1326.348v77.85l67.496 38.928v-77.85L2160 1326.348Z" fill="#292b2fad" stroke-width=".9"/><path d="m2227.496 1443.126 67.504-38.928v-77.85l-67.504 38.928v77.85Z" fill="#292b2f79" stroke-width=".9"/><path d="m2160 1326.348 67.496-38.922 67.504 38.922-67.504 38.928-67.496-38.928Z" fill="#292b2f3c" stroke-width=".9"/></g><g fill="none"><path d="M2295 1326.348v77.85l67.496 38.928v-77.85L2295 1326.348ZM2362.496 1443.126l67.504-38.928v-77.85l-67.504 38.928v77.85Z" stroke-width=".9"/><path d="m2295 1326.348 67.496-38.922 67.504 38.922-67.504 38.928-67.496-38.928Z" stroke-width=".9"/></g><g fill="none"><path d="M2430 1326.348v77.85l67.496 38.928v-77.85L2430 1326.348ZM2497.496 1443.126l67.504-38.928v-77.85l-67.504 38.928v77.85Z" stroke-width=".9"/><path d="m2430 1326.348 67.496-38.922 67.504 38.922-67.504 38.928-67.496-38.928Z" stroke-width=".9"/></g><g fill="none"><path d="M2565 1326.348v77.85l67.496 38.928v-77.85L2565 1326.348ZM2632.496 1443.126l67.504-38.928v-77.85l-67.504 38.928v77.85Z" stroke-width=".9"/><path d="m2565 1326.348 67.496-38.922 67.504 38.922-67.504 38.928-67.496-38.928Z" stroke-width=".9"/></g></g><defs><radialGradient id="a"><stop offset="0" stop-color="#fff"/><stop offset="1" stop-color="#fff" stop-opacity="0"/></radialGradient></defs></svg>