<svg width="1085" height="801" viewBox="0 0 1085 801" fill="none" xmlns="http://www.w3.org/2000/svg">
<mask id="mask0_2211_7659" style="mask-type:luminance" maskUnits="userSpaceOnUse" x="0" y="0" width="1085" height="801">
<path d="M1084.41 0H0V800.892H1084.41V0Z" fill="white"/>
</mask>
<g mask="url(#mask0_2211_7659)">
<path d="M702.972 679.141C712.034 619.391 757.934 566.812 815.914 549.762C841.03 542.379 867.48 541.279 893.589 539.341C919.693 537.4 946.243 534.45 970.139 523.754C994.03 513.058 1015.19 493.354 1021.52 467.95C1024.85 454.575 1023.92 440.879 1020.96 427.341C1019.95 422.729 1026.34 420.454 1028.49 424.658C1037.53 442.416 1044.26 461.208 1045.3 480.704C1046.95 511.733 1035.03 544.7 1009.57 562.504C993.972 573.412 974.826 577.883 956.005 580.7C927.022 585.033 892.509 589.112 865.001 599.208C829.184 612.358 794.726 635.029 797.901 679.916L702.972 679.141Z" fill="#991B1B"/>
<path d="M888.922 673.951C840.252 645.318 780.947 637.656 725.143 646.26C660.052 656.297 599.081 687.197 533.468 692.881C480.314 697.485 427.277 685.264 375.477 672.476C323.681 659.689 271.168 646.151 217.847 648.081C164.531 650.01 109.206 669.785 76.9271 712.264C45.3471 753.831 40.8431 812.976 61.6391 860.856C82.4311 908.739 126.377 944.864 176.127 960.672L904.927 950.46C955.56 925.464 984.764 865.885 979.481 809.668C974.197 753.447 937.593 702.581 888.922 673.951Z" fill="#B91C1C"/>
<path d="M594.002 751.961C596.635 746.149 593.135 774.07 594.481 767.832C599.989 742.324 635.681 729.911 651.11 724.266L662.239 723.161C673.373 721.032 685.06 721.903 695.752 725.657C701.469 727.661 707.131 730.678 710.535 735.686C714.402 741.378 714.76 748.891 713.069 755.557C710.623 765.203 704.244 773.574 696.302 779.57C688.36 785.561 678.931 789.341 669.298 791.815C649.66 796.866 628.714 796.695 609.164 791.324C603.494 789.766 597.664 787.599 593.869 783.107C590.327 778.916 589.039 773.153 589.427 767.678C589.819 762.207 591.735 756.957 594.002 751.961Z" fill="#7F1D1D"/>
<path d="M581.282 800.371C585.015 795.925 591.098 794.308 596.844 793.483C611.336 791.4 626.065 792.775 640.698 793.3C655.328 793.82 670.365 793.412 683.973 788.02C697.59 782.625 709.648 771.354 712.394 756.975C715.136 742.595 709.586 727.283 673.394 720.187L645.082 726C672.182 716.616 703.803 713.05 731.715 719.645C759.628 726.246 785.465 747.312 790.961 775.458C794.519 793.67 789.323 812.85 779.532 828.608C764.74 852.404 740.148 868.908 713.828 878.504C687.503 888.095 659.328 891.358 631.386 893.391C620.269 894.204 608.311 894.633 598.873 888.704C587.923 881.829 583.357 868.295 580.832 855.612C578.332 843.05 577.048 830.25 577.011 817.445C576.994 811.45 577.428 804.963 581.282 800.371Z" fill="#991B1B"/>
<path d="M594.482 779.831C621.357 789.585 651.365 790.468 678.765 782.318C685.407 780.339 691.99 777.798 697.54 773.648C703.09 769.498 707.561 763.564 708.794 756.743C710.453 747.589 705.924 738.01 698.732 732.106C691.536 726.202 682.082 723.61 672.786 723.189C663.49 722.777 654.236 724.364 645.078 726.006C655.924 722.506 667.278 718.727 678.649 717.923C690.015 717.11 701.815 718.806 711.682 724.506C721.553 730.206 729.228 740.281 730.353 751.618C731.153 759.652 728.674 767.806 724.328 774.606C719.982 781.406 713.853 786.931 707.157 791.427C688.04 804.252 664.365 808.893 641.349 808.585C618.332 808.281 595.653 803.356 573.161 798.456L594.482 779.831Z" fill="#450A0A"/>
<path d="M375.01 751.961C372.372 746.149 375.876 774.07 374.531 767.832C369.022 742.324 333.326 729.911 317.897 724.266L306.768 723.161C295.639 721.032 283.951 721.903 273.256 725.657C267.539 727.661 261.881 730.678 258.472 735.686C254.61 741.378 254.251 748.891 255.943 755.557C258.389 765.203 264.768 773.574 272.706 779.57C280.651 785.561 290.076 789.341 299.714 791.815C319.347 796.866 340.297 796.695 359.843 791.324C365.518 789.766 371.347 787.599 375.139 783.107C378.685 778.916 379.968 773.153 379.585 767.678C379.193 762.207 377.276 756.957 375.01 751.961Z" fill="#7F1D1D"/>
<path d="M387.734 800.371C384 795.925 377.917 794.308 372.171 793.483C357.679 791.4 342.95 792.775 328.317 793.3C313.688 793.82 298.646 793.412 285.038 788.02C271.425 782.625 259.363 771.354 256.621 756.975C253.875 742.595 259.429 727.283 295.621 720.187L323.934 726C296.834 716.616 265.213 713.05 237.3 719.645C209.384 726.246 183.55 747.312 178.05 775.458C174.496 793.67 179.688 812.85 189.484 828.608C204.275 852.404 228.867 868.908 255.188 878.504C281.513 888.095 309.688 891.358 337.629 893.391C348.746 894.204 360.704 894.633 370.138 888.704C381.092 881.829 385.659 868.295 388.184 855.612C390.684 843.05 391.967 830.25 392 817.445C392.021 811.45 391.588 804.963 387.734 800.371Z" fill="#991B1B"/>
<path d="M374.529 779.831C347.654 789.585 317.646 790.468 290.242 782.318C283.604 780.339 277.021 777.798 271.471 773.648C265.921 769.498 261.45 763.564 260.213 756.743C258.559 747.589 263.088 738.01 270.279 732.106C277.471 726.202 286.929 723.61 296.225 723.189C305.521 722.777 314.775 724.364 323.934 726.006C313.088 722.506 301.729 718.727 290.363 717.923C278.992 717.11 267.196 718.806 257.325 724.506C247.459 730.206 239.784 740.281 238.659 751.618C237.859 759.652 240.338 767.806 244.684 774.606C249.029 781.406 255.154 786.931 261.854 791.427C280.971 804.252 304.646 808.893 327.663 808.585C350.679 808.281 373.359 803.356 395.846 798.456L374.529 779.831Z" fill="#450A0A"/>
<path d="M678.302 102.784L798.606 134.501L923.281 230.739L945.152 319.326C945.152 319.326 899.222 400.259 892.66 404.63C886.097 409.005 759.231 503.059 759.231 503.059L666.272 609.147L618.152 690.076L591.906 778.659L589.714 866.151H485.818L485.664 549.98L678.302 102.784Z" fill="#B91C1C"/>
<path d="M925.212 324.686C917.125 364.244 878.921 388.827 846.091 412.311C707.425 511.419 561.871 679.673 582.954 865.311H585.096C585.096 865.573 585.146 865.89 585.2 866.148H568.866C549.4 681.552 694.221 514.394 832.262 415.756C865.087 392.273 903.291 367.69 911.383 328.131C917.904 296.036 901.987 263.573 882.104 237.581C843.796 187.481 766.137 142.652 696.05 127.152C694.741 124.802 693.387 122.556 691.925 120.315C766.296 131.536 854.337 179.706 895.933 234.14C915.816 260.127 931.733 292.59 925.212 324.686Z" fill="#991B1B"/>
<path d="M798.242 289.928C792.346 330.478 767.45 365.499 741.721 397.386C703.988 444.149 662.813 487.986 626.333 535.686C589.85 583.441 557.858 635.678 541.679 693.503C525.5 751.332 550.867 867.036 550.554 866.461H528.738C529.054 867.036 503.688 751.332 519.867 693.503C536.046 635.678 568.038 583.441 604.517 535.686C640.996 487.986 682.225 444.149 719.908 397.386C745.638 365.499 770.529 330.478 776.429 289.928C781.7 253.97 776.429 217.386 758.738 185.657C744.383 159.82 730.242 141.032 706.392 120.628C707.746 115.824 709 111.024 710.25 106.224C745.638 132.841 762.858 153.924 780.55 185.657C798.242 217.386 803.513 253.97 798.242 289.928Z" fill="#991B1B"/>
<path d="M642.482 125.986C576.715 134.427 510.686 142.919 446.778 160.59C382.865 178.261 320.695 205.561 269.815 248.069C253.678 261.548 238.04 277.761 233.803 298.352C229.032 321.515 239.928 345.369 255.149 363.469C270.365 381.561 289.79 395.586 306.57 412.248C342.39 447.831 365.611 495.848 371.261 546.019C377.824 604.273 353.474 661.556 352.07 720.161C351.02 764.023 354.549 798.502 362.732 839.398H498.103L491.445 699.106L642.482 125.986Z" fill="#991B1B"/>
<path d="M632.592 163.63L631.651 167.284C593.609 169.684 555.717 173.497 518.296 180.33C453.063 192.23 388.713 213.943 334.23 251.726C317.005 263.73 299.992 278.497 293.938 298.643C287.101 321.293 295.871 346.03 309.388 365.393C322.955 384.755 341.063 400.464 356.301 418.522C388.817 457.143 407.709 507.034 408.859 557.501C410.217 616.109 380.884 671.009 374.309 729.255C371.126 757.23 370.184 781.551 371.126 806.284C367.367 779.464 365.905 753.472 366.638 722.889C367.159 701.547 370.705 680.355 374.726 659.218C384.588 624.722 395.134 590.434 394.301 554.789C393.146 504.322 374.255 454.43 341.742 415.809C326.505 397.751 308.392 382.043 294.826 362.68C281.305 343.318 272.542 318.58 279.38 295.93C285.434 275.784 302.446 261.018 319.663 249.014C374.155 211.226 438.501 189.518 503.738 177.618C546.271 169.843 589.38 166.03 632.592 163.63Z" fill="#B91C1C"/>
<path d="M642.462 126.004L634.895 163.475C590.899 165.875 547.007 169.687 503.745 177.621C438.507 189.516 374.157 211.229 319.67 249.012C302.449 261.016 285.437 275.787 279.382 295.933C272.549 318.583 281.312 343.321 294.828 362.683C308.399 382.046 326.512 397.754 341.749 415.808C374.262 454.429 393.153 504.321 394.303 554.787C395.662 613.4 366.332 668.3 359.753 726.541C356.57 754.516 355.632 778.837 356.57 803.575C352.812 776.75 351.353 750.758 352.082 720.179C353.491 661.566 377.812 604.262 371.237 546.021C365.599 495.866 342.374 447.854 306.574 412.262C289.77 395.558 270.353 381.575 255.17 363.462C239.928 345.354 229.02 321.504 233.824 298.333C238.049 277.771 253.657 261.537 269.832 248.075C320.716 205.541 382.874 178.246 446.753 160.604C510.687 142.912 576.703 134.408 642.462 126.004Z" fill="#DC2626"/>
<path d="M688.462 106.21C723.808 132.827 741.066 153.91 758.741 185.639C776.416 217.369 781.691 253.985 776.449 289.927C770.528 330.481 745.658 365.502 719.92 397.394C682.203 444.123 640.983 488.002 604.512 535.71C568.041 583.423 536.062 635.685 519.887 693.519C503.712 751.352 529.037 867.039 528.741 866.439H364.637C343.758 769.148 349.712 666.231 384.274 572.919C418.833 479.606 480.433 396.489 559.649 336.268C630.587 282.344 666.162 192.485 688.462 106.21Z" fill="white"/>
<path d="M746.832 289.943C740.944 330.472 716.065 365.493 690.324 397.409C652.619 444.109 611.374 487.984 574.915 535.688C538.453 583.438 506.444 635.688 490.269 693.538C474.094 751.339 499.457 867.034 499.124 866.414H441.228C441.515 867.034 416.203 751.339 432.378 693.538C448.549 635.688 480.511 583.438 517.015 535.688C553.478 487.984 594.674 444.109 632.428 397.409C658.169 365.493 683.003 330.472 688.936 289.943C694.199 254.009 688.886 217.359 671.232 185.634C663.482 171.759 655.874 159.893 646.736 148.743C651.182 134.58 655.203 120.368 658.84 106.205C694.199 132.809 711.474 153.913 729.128 185.634C746.832 217.359 752.094 254.009 746.832 289.943Z" fill="#EBEBEB"/>
<mask id="mask1_2211_7659" style="mask-type:luminance" maskUnits="userSpaceOnUse" x="352" y="106" width="427" height="695">
<path d="M758.732 185.642C776.407 217.371 781.686 253.988 776.441 289.929C770.524 330.479 745.649 365.5 719.911 397.392C682.195 444.125 640.978 488.004 604.503 535.709C568.032 583.421 536.057 635.688 519.878 693.517C511.866 722.167 514.036 765.017 518.232 800.892H354.703C347.811 723.867 357.386 645.488 384.266 572.917C418.824 479.609 480.424 396.488 559.645 336.271C630.582 282.346 666.157 192.483 688.457 106.213C723.803 132.825 741.061 153.909 758.732 185.642Z" fill="white"/>
</mask>
<g mask="url(#mask1_2211_7659)">
<path d="M335.483 726.581C399.337 715.56 464.916 714.581 529.075 723.689" stroke="#450A0A" stroke-width="6.25" stroke-miterlimit="10" stroke-linecap="round" stroke-linejoin="round"/>
<path d="M343.544 623.781C414.636 613.744 488.015 620.256 556.227 642.656" stroke="#450A0A" stroke-width="6.25" stroke-miterlimit="10" stroke-linecap="round" stroke-linejoin="round"/>
<path d="M384.666 523.664C456.575 516.094 530.404 527.619 596.583 556.744" stroke="#450A0A" stroke-width="6.25" stroke-miterlimit="10" stroke-linecap="round" stroke-linejoin="round"/>
<path d="M452.479 426.741C524.954 429.136 596.805 448.774 660.422 483.574" stroke="#450A0A" stroke-width="6.25" stroke-miterlimit="10" stroke-linecap="round" stroke-linejoin="round"/>
<path d="M501.743 337.231C585.601 333.41 670.51 358.626 738.689 407.606" stroke="#450A0A" stroke-width="6.25" stroke-miterlimit="10" stroke-linecap="round" stroke-linejoin="round"/>
<path d="M510.549 250.439C606.536 245.605 703.582 263.239 791.724 301.539" stroke="#450A0A" stroke-width="6.25" stroke-miterlimit="10" stroke-linecap="round" stroke-linejoin="round"/>
<path d="M568.052 201.909C643.073 181.718 721.536 174.38 798.998 180.305" stroke="#450A0A" stroke-width="6.25" stroke-miterlimit="10" stroke-linecap="round" stroke-linejoin="round"/>
</g>
<mask id="mask2_2211_7659" style="mask-type:luminance" maskUnits="userSpaceOnUse" x="0" y="0" width="1085" height="801">
<path d="M1084.41 0H0V800.892H1084.41V0Z" fill="white"/>
</mask>
<g mask="url(#mask2_2211_7659)">
<path d="M401.088 223.219L386.159 215.461C385.638 226.173 386.963 236.936 389.225 247.227C391.488 257.511 394.679 267.377 397.971 277.136C396.054 259.148 397.129 240.581 401.088 223.219Z" fill="white"/>
<path d="M466.298 374.023C466.298 374.023 459.389 390.51 467.789 406.052C475.489 420.293 547.419 423.085 564.698 411.193C581.977 399.298 619.76 355.052 642.423 303.185L466.298 374.023Z" fill="#B91C1C"/>
<path d="M630.952 313.936C630.952 313.936 772.015 257.048 710.532 120.331L691.023 110.061L674.032 122.198L630.952 313.936Z" fill="#B91C1C"/>
<path d="M468.471 230.221L453.537 222.463C453.021 233.176 454.341 243.938 456.608 254.23C458.871 264.513 462.062 274.38 465.354 284.138C463.437 266.151 464.508 247.584 468.471 230.221Z" fill="white"/>
<path d="M976.462 333.715C965.658 372.648 925.892 394.565 891.496 415.702C741.717 507.973 576.746 678.631 599.292 865.311H582.958C561.875 679.673 707.429 511.419 846.092 412.311C878.921 388.827 917.125 364.244 925.212 324.686C931.737 292.59 915.817 260.127 895.933 234.14C854.337 179.706 766.296 131.536 691.925 120.315C711.5 150.323 716.875 189.152 706.175 223.386C695.529 257.623 669.642 287.894 636.504 301.515C627.842 316.648 618.129 331.156 607.379 344.886C597.987 356.94 587.446 367.69 577.162 378.806C575.754 380.319 574.346 381.886 572.937 383.452C564.429 392.844 556.654 402.344 544.179 406.465C525.183 412.727 503.004 410.744 483.85 405.944C473.725 403.386 464.071 397.802 463.758 386.165C463.496 376.669 468.979 367.536 474.142 359.915C483.796 345.719 494.342 332.619 500.396 316.281C505.25 303.34 507.387 289.144 504.933 275.523C502.637 262.998 496.633 251.361 494.546 238.836C493.821 234.556 493.504 229.336 494.133 224.952C490.846 227.773 487.292 230.536 479.933 231.998C477.692 232.415 475.079 232.781 472 232.936C444.867 234.556 395.129 230.748 380.933 216.081C379.733 214.881 378.792 213.577 378.117 212.219C371.696 199.015 376.604 178.506 379.579 168.798C379.837 167.965 380.204 167.181 380.621 166.448C381.979 164.048 384.117 162.223 386.675 161.231C388.812 160.394 391.421 159.456 394.504 158.411C402.487 155.802 413.187 152.931 424.2 151.781C424.2 151.781 471.325 48.6558 603.258 48.1358C671.729 47.8728 735.4 81.9018 796.983 111.911C858.567 141.919 915.662 184.244 953.446 241.394C971.45 268.69 985.179 302.194 976.462 333.715Z" fill="#DC2626"/>
<path d="M964.182 259.606C962.219 256.16 960.115 252.814 957.961 249.51C920.165 192.381 863.078 150.035 801.503 120.035C739.919 90.035 676.236 56.0139 607.761 56.2519C475.844 56.7809 428.719 159.939 428.719 159.939C417.711 161.085 406.994 163.956 399.003 166.544C395.944 167.593 393.311 168.506 391.207 169.364C388.624 170.368 386.515 172.189 385.128 174.581C384.694 175.298 384.361 176.11 384.074 176.927C381.394 185.681 377.186 203.148 381.015 216.16C380.965 216.114 380.965 216.114 380.915 216.064C379.719 214.868 378.811 213.577 378.09 212.235C371.682 199.031 376.611 178.506 379.578 168.793C379.815 167.977 380.199 167.164 380.632 166.448C381.969 164.052 384.124 162.235 386.657 161.231C388.815 160.418 391.44 159.46 394.507 158.406C402.499 155.823 413.165 152.952 424.219 151.806C424.219 151.806 471.299 48.6429 603.265 48.1179C671.736 47.8809 735.424 81.902 797.003 111.902C858.582 141.902 915.665 184.248 953.465 241.377C957.294 247.214 960.928 253.289 964.182 259.606Z" fill="#B91C1C"/>
<path d="M590.302 86.079C579.452 87.4 568.465 89.975 559.377 96.058C550.415 102.054 543.915 111.029 535.831 118.171C531.977 121.571 527.594 124.508 522.794 126.391C519.348 127.741 515.056 127.533 511.436 128.366L503.006 127.575C505.981 134.525 517.981 146.929 520.39 148.75C524.677 151.996 529.527 154.504 534.69 156.025C548.777 160.166 564.965 156.704 575.811 146.812C582.181 141.004 586.561 133.391 591.381 126.246C598.144 116.221 606.086 106.787 616.056 99.946C626.027 93.108 638.227 89.016 650.248 90.346C630.786 85.096 610.311 83.641 590.302 86.079Z" fill="#B91C1C"/>
<path d="M540.842 190.248C524.505 192.023 508.901 199.693 497.576 211.593C491.367 218.064 486.359 225.789 479.938 232.002C477.696 232.418 475.084 232.781 472.005 232.939C444.867 234.556 395.13 230.748 380.934 216.081C379.734 214.881 378.792 213.577 378.117 212.218C371.696 199.014 376.605 178.506 379.58 168.798C379.838 167.964 380.205 167.181 380.621 166.452C387.667 161.543 397.113 160.76 405.255 163.473C413.551 166.293 420.442 172.502 425.088 179.964C433.384 171.148 446.276 166.973 458.176 169.423C470.021 171.827 480.355 180.698 484.53 192.073C503.426 187.639 521.688 187.481 540.842 190.248Z" fill="#B91C1C"/>
<path d="M604.622 291.763C595.434 317.334 579.468 339.88 563.651 362.009C557.913 370.101 551.805 378.451 543.038 383.147C530.618 389.722 515.534 387.53 501.655 385.13C498.313 384.555 494.818 383.93 492.363 381.684C488.818 378.451 488.397 372.864 489.963 368.326C491.58 363.834 494.763 360.08 497.58 356.268C515.743 332.001 523.259 300.114 517.83 270.368C516.059 260.659 512.976 251.109 512.197 241.297C511.622 233.676 513.176 222.205 516.776 215.63C545.222 214.38 570.126 202.884 596.738 169.068C618.713 208.78 617.88 255.075 604.622 291.763Z" fill="#450A0A"/>
<path d="M400.946 186.313C400.487 181.859 399.962 177.213 397.533 173.451C396.75 172.242 395.766 171.13 394.512 170.421C393.262 169.705 391.721 169.421 390.354 169.871C388.604 170.442 387.416 172.063 386.6 173.713C384.721 177.484 384.171 181.896 385.058 186.017C389.612 188.73 396.754 188.68 400.946 186.313Z" fill="#450A0A"/>
<path d="M445.355 191.082C446.951 186.898 448.655 182.548 451.976 179.54C453.042 178.574 454.284 177.757 455.68 177.39C457.071 177.023 458.63 177.148 459.838 177.936C461.38 178.94 462.109 180.815 462.471 182.619C463.309 186.744 462.701 191.157 460.78 194.903C455.68 196.344 448.792 194.453 445.355 191.082Z" fill="#450A0A"/>
<path d="M608.522 141.82C586.435 156.566 574.418 183.608 551.355 196.77C540.897 202.745 528.922 205.387 517.66 209.658C508.739 213.045 499.876 217.92 493.897 225.154V227.699C507.018 217.729 525.539 219.045 539.489 215.858C558.618 211.487 574.547 198.495 588.601 184.799C602.655 171.108 615.868 156.124 632.705 146.049C649.543 135.974 671.339 131.545 688.785 140.52C663.722 127.82 631.893 126.22 608.522 141.82Z" fill="#B91C1C"/>
<path d="M662.802 150.807C654.027 144.144 642.673 140.761 631.748 142.211L594.523 168.194C615.532 193.036 626.569 224.819 633.473 256.615C631.802 229.969 629.569 202.69 618.39 178.449C616.294 173.903 621.19 168.778 625.073 165.624C628.961 162.465 633.852 160.744 638.794 159.949C646.719 158.678 654.998 159.69 662.377 162.836C669.765 165.982 676.227 171.253 680.798 177.849C677.802 167.244 671.577 157.469 662.802 150.807Z" fill="#B91C1C"/>
<path d="M261.554 270.342C249.883 278.084 243.174 292.076 242.47 306.063C241.766 320.051 246.574 333.93 254.095 345.746C261.612 357.563 271.733 367.501 282.399 376.58C274.529 366.013 267.441 354.955 261.32 343.288C255.204 331.621 250.883 318.771 250.687 305.596C250.491 292.421 252.437 279.855 261.554 270.342Z" fill="#450A0A"/>
<path d="M930.862 228.594C956.162 248.873 970.049 282.544 966.403 314.761C962.758 346.981 941.699 376.694 912.503 390.806C935.778 372.294 948.128 342.786 951.903 313.29C955.678 283.794 948.72 252.373 930.862 228.594Z" fill="#991B1B"/>
<path d="M696.612 183.025C700.587 203.071 697.895 224.379 689.058 242.809C680.22 261.234 665.291 276.675 647.174 286.125C674.004 258.921 692.241 220.984 696.612 183.025Z" fill="#B91C1C"/>
<path d="M470.961 372.328C467.644 378.761 467.624 386.953 471.507 393.061C475.39 399.169 483.278 402.657 490.269 400.79C484.378 397.132 479.861 391.311 477.782 384.694C476.157 379.532 476.028 373.911 477.357 368.669C477.865 366.674 478.469 363.586 475.749 365.999C473.782 367.744 472.161 370.003 470.961 372.328Z" fill="#B91C1C"/>
<path d="M573.012 372.806C565.929 387.594 552.279 399.089 536.495 403.539C550.549 395.269 562.937 385.631 573.012 372.806Z" fill="#B91C1C"/>
<path d="M427.638 173.693C428.826 170.976 430.884 168.96 433.321 167.622C435.709 166.176 438.342 165.347 441.101 164.576C443.871 163.843 446.742 163.089 449.634 161.922C452.542 160.756 455.23 158.793 457.434 156.735C458.542 155.681 459.563 154.589 460.563 153.514C461.584 152.426 462.663 151.093 463.48 149.76C465.063 147.014 466.155 144.147 466.967 141.301C468.701 135.656 469.596 130.01 473.001 125.135C468.321 128.926 466.046 134.976 463.905 140.21C462.763 142.851 461.676 145.439 460.155 147.639C459.359 148.743 458.626 149.693 457.617 150.71C456.609 151.747 455.609 152.756 454.588 153.697C450.742 157.756 445.721 159.381 440.067 161.506C437.309 162.568 434.463 163.96 432.13 165.972C429.855 168.001 427.901 170.697 427.638 173.693Z" fill="#B91C1C"/>
<path d="M607.152 91.0938C597.898 86.6268 587.081 85.8558 577.043 88.0608C567.006 90.2688 557.731 95.3268 549.789 101.852C542.739 107.648 536.031 115.286 528.735 120.777C522.056 125.806 510.843 127.952 503.006 127.577C511.848 137.648 524.227 144.94 537.502 146.794C550.777 148.648 565.135 144.281 573.985 134.219C580.068 127.298 583.218 118.365 587.531 110.223C591.843 102.077 598.198 93.2688 607.152 91.0938Z" fill="#450A0A"/>
<path d="M564.612 105.429C564.612 105.429 575.879 125.587 558.441 136.441C544.154 145.333 525.862 129.854 525.862 129.854C533.283 129.65 540.596 122.058 546.083 117.058C551.575 112.058 558.008 108.816 564.612 105.429Z" fill="#BAFF26"/>
<path d="M550.012 113.368L545.149 116.318C549.299 122.213 553.137 128.33 556.641 134.634C556.066 127.193 553.016 120.197 550.012 113.368Z" fill="#450A0A"/>
<path d="M544.452 320.328C545.019 319.578 546.215 320.494 545.732 321.299C538.886 332.707 523.923 362.319 512.848 395.561C498.673 438.103 468.211 450.924 409.827 439.311C355.727 428.553 332.802 463.844 326.944 478.553C326.636 479.324 325.494 479.169 325.407 478.34C324.465 469.724 323.582 446.032 339.39 430.082C339.915 429.549 339.552 428.678 338.811 428.724C332.807 429.107 314.802 432.103 301.986 453.694C301.552 454.419 300.457 454.132 300.49 453.29C300.932 441.511 306.519 400.178 363.732 408.457C430.298 418.094 454.419 438.286 486.332 405.328C516.852 373.807 517.948 355.549 544.452 320.328Z" fill="#BAFF26"/>
<path d="M767.912 664.961C812.15 658.94 858.654 671.915 893.383 699.969C928.112 728.032 950.57 770.769 953.979 815.282C920.825 738.152 850.458 680.269 767.912 664.961Z" fill="#991B1B"/>
<path d="M238.856 662.091C197.64 656.479 154.315 668.57 121.956 694.708C89.6059 720.849 68.6769 760.666 65.5059 802.137C96.3939 730.283 161.952 676.349 238.856 662.091Z" fill="#991B1B"/>
<path d="M822.262 554.919C780.679 568.452 745.379 600.181 727.508 640.089C753.029 605.61 786.083 577.964 822.262 554.919Z" fill="#7F1D1D"/>
</g>
</g>
</svg>
