<svg width="2048" height="1230" viewBox="0 0 2048 1230" fill="none" xmlns="http://www.w3.org/2000/svg">
<mask id="mask0_2212_7727" style="mask-type:luminance" maskUnits="userSpaceOnUse" x="833" y="0" width="1215" height="897">
<path d="M2047.39 0H833V896.892H2047.39V0Z" fill="white"/>
</mask>
<g mask="url(#mask0_2212_7727)">
<path d="M1620.23 760.547C1630.38 693.635 1681.78 634.754 1746.71 615.66C1774.84 607.392 1804.46 606.16 1833.7 603.99C1862.93 601.816 1892.67 598.513 1919.43 586.534C1946.18 574.556 1969.88 552.491 1976.97 524.041C1980.7 509.063 1979.65 493.726 1976.34 478.565C1975.21 473.4 1982.37 470.852 1984.77 475.56C1994.89 495.447 2002.44 516.491 2003.6 538.324C2005.45 573.073 1992.1 609.991 1963.58 629.929C1946.12 642.145 1924.67 647.152 1903.6 650.306C1871.14 655.159 1832.49 659.727 1801.69 671.033C1761.58 685.759 1722.99 711.148 1726.54 761.415L1620.23 760.547Z" fill="#991B1B"/>
<path d="M1828.47 754.735C1773.97 722.67 1707.56 714.09 1645.06 723.725C1572.17 734.965 1503.89 769.569 1430.41 775.934C1370.89 781.09 1311.49 767.404 1253.48 753.083C1195.48 738.763 1136.67 723.603 1076.96 725.764C1017.25 727.924 955.296 750.07 919.148 797.641C883.783 844.19 878.739 910.424 902.028 964.044C925.312 1017.67 974.525 1058.12 1030.24 1075.82L1846.4 1064.39C1903.1 1036.4 1935.8 969.675 1929.89 906.72C1923.97 843.76 1882.98 786.797 1828.47 754.735Z" fill="#B91C1C"/>
<path d="M1498.2 842.096C1501.15 835.587 1497.23 866.855 1498.74 859.869C1504.91 831.304 1544.88 817.403 1562.16 811.081L1574.62 809.844C1587.09 807.46 1600.18 808.435 1612.15 812.639C1618.55 814.883 1624.89 818.262 1628.7 823.87C1633.03 830.244 1633.44 838.658 1631.54 846.123C1628.8 856.925 1621.66 866.299 1612.77 873.014C1603.87 879.723 1593.31 883.956 1582.52 886.727C1560.53 892.383 1537.08 892.192 1515.18 886.177C1508.83 884.432 1502.3 882.006 1498.05 876.975C1494.09 872.282 1492.64 865.828 1493.08 859.697C1493.52 853.57 1495.66 847.691 1498.2 842.096Z" fill="#7F1D1D"/>
<path d="M1483.96 896.308C1488.14 891.33 1494.95 889.519 1501.39 888.595C1517.61 886.262 1534.11 887.802 1550.5 888.39C1566.88 888.972 1583.72 888.515 1598.96 882.477C1614.21 876.435 1627.71 863.813 1630.79 847.711C1633.86 831.607 1627.64 814.46 1587.11 806.513L1555.41 813.023C1585.75 802.514 1621.17 798.521 1652.42 805.906C1683.68 813.298 1712.62 836.89 1718.77 868.409C1722.76 888.804 1716.94 910.283 1705.97 927.93C1689.41 954.579 1661.87 973.061 1632.39 983.807C1602.91 994.548 1571.36 998.202 1540.07 1000.48C1527.62 1001.39 1514.23 1001.87 1503.66 995.23C1491.4 987.531 1486.28 972.374 1483.45 958.171C1480.65 944.103 1479.22 929.769 1479.18 915.429C1479.16 908.715 1479.64 901.451 1483.96 896.308Z" fill="#991B1B"/>
<path d="M1498.74 873.307C1528.84 884.23 1562.44 885.219 1593.13 876.092C1600.56 873.875 1607.94 871.03 1614.15 866.382C1620.37 861.735 1625.37 855.09 1626.76 847.451C1628.61 837.2 1623.54 826.473 1615.49 819.861C1607.43 813.249 1596.84 810.346 1586.43 809.875C1576.02 809.414 1565.66 811.191 1555.4 813.03C1567.55 809.11 1580.26 804.878 1593 803.978C1605.73 803.067 1618.94 804.967 1629.99 811.35C1641.04 817.733 1649.64 829.016 1650.9 841.712C1651.79 850.709 1649.02 859.84 1644.15 867.455C1639.28 875.07 1632.42 881.258 1624.92 886.292C1603.51 900.655 1577 905.852 1551.23 905.507C1525.45 905.167 1500.05 899.651 1474.86 894.164L1498.74 873.307Z" fill="#450A0A"/>
<path d="M1252.96 842.096C1250.01 835.587 1253.93 866.855 1252.42 859.869C1246.26 831.304 1206.28 817.403 1189 811.081L1176.54 809.844C1164.08 807.46 1150.99 808.435 1139.01 812.639C1132.61 814.883 1126.27 818.262 1122.45 823.87C1118.13 830.244 1117.73 838.658 1119.62 846.123C1122.36 856.925 1129.5 866.299 1138.39 873.014C1147.29 879.723 1157.85 883.956 1168.64 886.727C1190.63 892.383 1214.09 892.192 1235.98 886.177C1242.33 884.432 1248.86 882.006 1253.11 876.975C1257.08 872.282 1258.51 865.828 1258.08 859.697C1257.65 853.57 1255.5 847.691 1252.96 842.096Z" fill="#7F1D1D"/>
<path d="M1267.21 896.308C1263.03 891.33 1256.22 889.519 1249.78 888.595C1233.55 886.262 1217.06 887.802 1200.67 888.39C1184.29 888.972 1167.44 888.515 1152.2 882.477C1136.96 876.435 1123.45 863.813 1120.38 847.711C1117.31 831.607 1123.53 814.46 1164.06 806.513L1195.76 813.023C1165.41 802.514 1130 798.521 1098.74 805.906C1067.48 813.298 1038.55 836.89 1032.39 868.409C1028.41 888.804 1034.23 910.283 1045.2 927.93C1061.76 954.579 1089.3 973.061 1118.78 983.807C1148.26 994.548 1179.81 998.202 1211.1 1000.48C1223.55 1001.39 1236.94 1001.87 1247.51 995.23C1259.77 987.531 1264.89 972.374 1267.71 958.171C1270.51 944.103 1271.95 929.769 1271.99 915.429C1272.01 908.715 1271.53 901.451 1267.21 896.308Z" fill="#991B1B"/>
<path d="M1252.42 873.307C1222.33 884.23 1188.72 885.219 1158.03 876.092C1150.6 873.875 1143.23 871.03 1137.01 866.382C1130.8 861.735 1125.79 855.09 1124.4 847.451C1122.55 837.2 1127.62 826.473 1135.68 819.861C1143.73 813.249 1154.32 810.346 1164.73 809.875C1175.14 809.414 1185.51 811.191 1195.76 813.03C1183.62 809.11 1170.9 804.878 1158.17 803.978C1145.43 803.067 1132.22 804.967 1121.17 811.35C1110.12 817.733 1101.53 829.016 1100.27 841.712C1099.37 850.709 1102.15 859.84 1107.01 867.455C1111.88 875.07 1118.74 881.258 1126.24 886.292C1147.65 900.655 1174.16 905.852 1199.94 905.507C1225.71 905.167 1251.11 899.651 1276.29 894.164L1252.42 873.307Z" fill="#450A0A"/>
<path d="M1592.61 115.104L1727.33 150.623L1866.95 258.397L1891.44 357.602C1891.44 357.602 1840.01 448.237 1832.66 453.132C1825.31 458.031 1683.24 563.359 1683.24 563.359L1579.14 682.163L1525.25 772.793L1495.86 871.994L1493.4 969.973H1377.05L1376.88 615.904L1592.61 115.104Z" fill="#B91C1C"/>
<path d="M1869.11 363.605C1860.06 407.905 1817.27 435.434 1780.51 461.733C1625.22 572.721 1462.22 761.143 1485.83 969.033H1488.23C1488.23 969.326 1488.28 969.681 1488.35 969.97H1470.05C1448.25 763.247 1610.43 576.052 1765.02 465.591C1801.78 439.293 1844.56 411.764 1853.63 367.463C1860.93 331.521 1843.1 295.167 1820.84 266.059C1777.94 209.954 1690.97 159.751 1612.48 142.393C1611.02 139.762 1609.5 137.246 1607.86 134.737C1691.15 147.303 1789.74 201.247 1836.32 262.205C1858.59 291.307 1876.42 327.662 1869.11 363.605Z" fill="#991B1B"/>
<path d="M1726.92 324.681C1720.32 370.091 1692.44 409.31 1663.63 445.019C1621.37 497.387 1575.26 546.479 1534.41 599.897C1493.55 653.376 1457.73 711.874 1439.61 776.631C1421.49 841.391 1449.9 970.964 1449.55 970.32H1425.12C1425.47 970.964 1397.06 841.391 1415.18 776.631C1433.3 711.874 1469.13 653.376 1509.98 599.897C1550.83 546.479 1597 497.387 1639.2 445.019C1668.02 409.31 1695.89 370.091 1702.5 324.681C1708.4 284.412 1702.5 243.443 1682.69 207.911C1666.61 178.977 1650.77 157.937 1624.06 135.087C1625.58 129.707 1626.99 124.332 1628.39 118.957C1668.01 148.764 1687.3 172.374 1707.11 207.911C1726.92 243.443 1732.83 284.412 1726.92 324.681Z" fill="#991B1B"/>
<path d="M1552.49 141.088C1478.84 150.54 1404.9 160.05 1333.33 179.839C1261.76 199.628 1192.14 230.201 1135.16 277.804C1117.09 292.899 1099.57 311.055 1094.83 334.114C1089.49 360.054 1101.69 386.767 1118.73 407.037C1135.77 427.297 1157.53 443.003 1176.32 461.663C1216.43 501.511 1242.44 555.283 1248.76 611.468C1256.11 676.705 1228.84 740.854 1227.27 806.484C1226.1 855.604 1230.05 894.216 1239.21 940.014H1390.81L1383.35 782.905L1552.49 141.088Z" fill="#991B1B"/>
<path d="M1541.42 183.244L1540.36 187.336C1497.76 190.023 1455.33 194.293 1413.42 201.946C1340.37 215.272 1268.31 239.588 1207.29 281.899C1188 295.342 1168.95 311.879 1162.17 334.44C1154.52 359.805 1164.34 387.507 1179.47 409.191C1194.67 430.874 1214.95 448.466 1232.01 468.689C1268.42 511.939 1289.58 567.81 1290.87 624.327C1292.39 689.96 1259.54 751.44 1252.18 816.668C1248.61 847.996 1247.56 875.233 1248.61 902.93C1244.4 872.895 1242.76 843.788 1243.59 809.539C1244.17 785.639 1248.14 761.907 1252.64 738.236C1263.69 699.605 1275.5 661.207 1274.56 621.29C1273.27 564.773 1252.12 508.901 1215.71 465.651C1198.64 445.428 1178.36 427.837 1163.17 406.153C1148.02 384.47 1138.21 356.767 1145.87 331.402C1152.65 308.841 1171.7 292.305 1190.98 278.862C1252 236.545 1324.06 212.235 1397.12 198.908C1444.75 190.201 1493.03 185.931 1541.42 183.244Z" fill="#B91C1C"/>
<path d="M1552.47 141.108L1544 183.07C1494.73 185.758 1445.57 190.027 1397.13 198.912C1324.07 212.233 1252.01 236.548 1190.99 278.86C1171.7 292.303 1152.65 308.845 1145.87 331.405C1138.22 356.77 1148.03 384.474 1163.17 406.156C1178.37 427.84 1198.65 445.431 1215.71 465.649C1252.12 508.9 1273.28 564.772 1274.57 621.287C1276.09 686.926 1243.24 748.407 1235.88 813.629C1232.31 844.957 1231.26 872.193 1232.31 899.897C1228.1 869.856 1226.47 840.749 1227.28 806.504C1228.86 740.865 1256.1 676.693 1248.74 611.471C1242.42 555.304 1216.41 501.537 1176.32 461.678C1157.5 442.972 1135.76 427.313 1118.76 407.029C1101.69 386.75 1089.47 360.042 1094.85 334.093C1099.58 311.066 1117.06 292.887 1135.18 277.811C1192.16 230.178 1261.77 199.612 1333.3 179.855C1404.9 160.042 1478.83 150.519 1552.47 141.108Z" fill="#DC2626"/>
<path d="M1603.99 118.941C1643.57 148.748 1662.89 172.359 1682.69 207.891C1702.48 243.424 1708.39 284.429 1702.52 324.679C1695.89 370.095 1668.04 409.313 1639.21 445.028C1596.98 497.358 1550.82 546.497 1509.97 599.924C1469.13 653.356 1433.32 711.882 1415.2 776.649C1397.09 841.414 1425.45 970.968 1425.12 970.296H1241.34C1217.96 861.343 1224.63 746.09 1263.34 641.593C1302.04 537.095 1371.02 444.015 1459.73 376.575C1539.17 316.188 1579.01 215.557 1603.99 118.941Z" fill="white"/>
<path d="M1669.35 324.697C1662.76 370.085 1634.9 409.303 1606.07 445.045C1563.85 497.343 1517.66 546.477 1476.83 599.899C1435.99 653.373 1400.15 711.886 1382.04 776.67C1363.92 841.399 1392.32 970.962 1391.95 970.268H1327.12C1327.44 970.962 1299.09 841.399 1317.21 776.67C1335.31 711.886 1371.11 653.373 1411.99 599.899C1452.82 546.477 1498.95 497.343 1541.23 445.045C1570.06 409.303 1597.87 370.085 1604.52 324.697C1610.41 284.456 1604.46 243.413 1584.69 207.885C1576.01 192.347 1567.49 179.059 1557.26 166.572C1562.24 150.712 1566.74 134.796 1570.81 118.935C1610.41 148.728 1629.76 172.362 1649.53 207.885C1669.35 243.413 1675.24 284.456 1669.35 324.697Z" fill="#EBEBEB"/>
<mask id="mask1_2212_7727" style="mask-type:luminance" maskUnits="userSpaceOnUse" x="1227" y="118" width="478" height="779">
<path d="M1682.68 207.894C1702.47 243.426 1708.38 284.433 1702.51 324.682C1695.88 370.092 1668.03 409.311 1639.2 445.026C1596.97 497.361 1550.81 546.499 1509.96 599.923C1469.12 653.354 1433.31 711.886 1415.19 776.646C1406.22 808.731 1408.65 856.717 1413.35 896.892H1230.22C1222.5 810.634 1233.22 722.86 1263.33 641.591C1302.03 537.098 1371.01 444.014 1459.73 376.579C1539.17 316.19 1579.01 215.555 1603.98 118.944C1643.56 148.746 1662.89 172.358 1682.68 207.894Z" fill="white"/>
</mask>
<g mask="url(#mask1_2212_7727)">
<path d="M1208.7 813.674C1280.2 801.332 1353.64 800.235 1425.49 810.435" stroke="#450A0A" stroke-width="6.25" stroke-miterlimit="10" stroke-linecap="round" stroke-linejoin="round"/>
<path d="M1217.72 698.551C1297.34 687.311 1379.51 694.604 1455.9 719.689" stroke="#450A0A" stroke-width="6.25" stroke-miterlimit="10" stroke-linecap="round" stroke-linejoin="round"/>
<path d="M1263.77 586.434C1344.3 577.956 1426.98 590.863 1501.09 623.479" stroke="#450A0A" stroke-width="6.25" stroke-miterlimit="10" stroke-linecap="round" stroke-linejoin="round"/>
<path d="M1339.72 477.893C1420.88 480.575 1501.34 502.567 1572.58 541.538" stroke="#450A0A" stroke-width="6.25" stroke-miterlimit="10" stroke-linecap="round" stroke-linejoin="round"/>
<path d="M1394.88 377.654C1488.79 373.375 1583.88 401.613 1660.23 456.464" stroke="#450A0A" stroke-width="6.25" stroke-miterlimit="10" stroke-linecap="round" stroke-linejoin="round"/>
<path d="M1404.75 280.458C1512.24 275.045 1620.92 294.793 1719.62 337.683" stroke="#450A0A" stroke-width="6.25" stroke-miterlimit="10" stroke-linecap="round" stroke-linejoin="round"/>
<path d="M1469.14 226.111C1553.16 203.5 1641.02 195.282 1727.77 201.918" stroke="#450A0A" stroke-width="6.25" stroke-miterlimit="10" stroke-linecap="round" stroke-linejoin="round"/>
</g>
<mask id="mask2_2212_7727" style="mask-type:luminance" maskUnits="userSpaceOnUse" x="833" y="0" width="1215" height="897">
<path d="M2047.39 0H833V896.892H2047.39V0Z" fill="white"/>
</mask>
<g mask="url(#mask2_2212_7727)">
<path d="M1282.17 249.975L1265.45 241.288C1264.86 253.284 1266.35 265.337 1268.88 276.861C1271.41 288.378 1274.99 299.427 1278.67 310.355C1276.53 290.211 1277.73 269.419 1282.17 249.975Z" fill="white"/>
<path d="M1355.19 418.856C1355.19 418.856 1347.45 437.319 1356.86 454.724C1365.48 470.672 1446.04 473.799 1465.39 460.481C1484.74 447.16 1527.05 397.611 1552.43 339.527L1355.19 418.856Z" fill="#B91C1C"/>
<path d="M1539.58 351.566C1539.58 351.566 1697.55 287.859 1628.7 134.755L1606.85 123.254L1587.83 136.845L1539.58 351.566Z" fill="#B91C1C"/>
<path d="M1357.63 257.817L1340.9 249.129C1340.32 261.126 1341.8 273.178 1344.34 284.704C1346.88 296.219 1350.45 307.269 1354.14 318.197C1351.99 298.054 1353.19 277.261 1357.63 257.817Z" fill="white"/>
<path d="M1926.51 373.716C1914.41 417.316 1869.88 441.86 1831.36 465.531C1663.62 568.862 1478.88 759.976 1504.13 969.033H1485.83C1462.22 761.143 1625.23 572.721 1780.51 461.733C1817.27 435.434 1860.06 407.905 1869.11 363.605C1876.42 327.662 1858.59 291.307 1836.32 262.206C1789.74 201.247 1691.15 147.303 1607.86 134.737C1629.78 168.342 1635.8 211.825 1623.82 250.162C1611.9 288.503 1582.91 322.403 1545.8 337.657C1536.1 354.603 1525.22 370.85 1513.18 386.226C1502.67 399.725 1490.86 411.764 1479.34 424.212C1477.77 425.906 1476.19 427.661 1474.61 429.415C1465.08 439.933 1456.38 450.572 1442.41 455.186C1421.13 462.199 1396.3 459.978 1374.85 454.603C1363.51 451.738 1352.7 445.485 1352.35 432.453C1352.05 421.819 1358.19 411.591 1363.98 403.057C1374.79 387.159 1386.6 372.489 1393.38 354.192C1398.81 339.7 1401.21 323.803 1398.46 308.549C1395.89 294.523 1389.16 281.491 1386.83 267.464C1386.01 262.671 1385.66 256.826 1386.36 251.916C1382.68 255.075 1378.7 258.169 1370.46 259.807C1367.95 260.274 1365.02 260.684 1361.58 260.857C1331.19 262.671 1275.49 258.407 1259.59 241.982C1258.25 240.638 1257.2 239.178 1256.44 237.657C1249.25 222.87 1254.75 199.903 1258.08 189.031C1258.37 188.098 1258.78 187.22 1259.24 186.4C1260.77 183.712 1263.16 181.668 1266.02 180.557C1268.42 179.62 1271.34 178.569 1274.79 177.399C1283.73 174.477 1295.71 171.262 1308.05 169.974C1308.05 169.974 1360.82 54.4882 1508.57 53.9059C1585.25 53.6113 1656.55 91.7193 1725.51 125.325C1794.48 158.93 1858.42 206.329 1900.73 270.329C1920.89 300.897 1936.27 338.417 1926.51 373.716Z" fill="#DC2626"/>
<path d="M1912.76 290.724C1910.56 286.865 1908.2 283.118 1905.79 279.418C1863.46 215.441 1799.53 168.019 1730.58 134.423C1661.61 100.827 1590.29 62.7282 1513.61 62.9947C1365.88 63.5871 1313.11 179.11 1313.11 179.11C1300.78 180.394 1288.78 183.609 1279.83 186.507C1276.4 187.682 1273.46 188.704 1271.1 189.665C1268.21 190.789 1265.85 192.829 1264.29 195.507C1263.81 196.31 1263.43 197.22 1263.11 198.135C1260.11 207.938 1255.4 227.499 1259.69 242.07C1259.63 242.019 1259.63 242.019 1259.57 241.963C1258.23 240.623 1257.22 239.178 1256.41 237.675C1249.23 222.888 1254.75 199.903 1258.08 189.026C1258.34 188.112 1258.77 187.201 1259.26 186.4C1260.75 183.716 1263.17 181.682 1266 180.557C1268.42 179.647 1271.36 178.574 1274.8 177.394C1283.75 174.501 1295.69 171.286 1308.07 170.002C1308.07 170.002 1360.79 54.4736 1508.58 53.8857C1585.25 53.6203 1656.58 91.7193 1725.54 125.315C1794.5 158.911 1858.42 206.333 1900.75 270.31C1905.04 276.847 1909.11 283.65 1912.76 290.724Z" fill="#B91C1C"/>
<path d="M1494.06 96.397C1481.91 97.8764 1469.61 100.76 1459.43 107.572C1449.39 114.287 1442.11 124.338 1433.06 132.336C1428.74 136.143 1423.84 139.432 1418.46 141.541C1414.6 143.053 1409.79 142.82 1405.74 143.753L1396.3 142.867C1399.63 150.65 1413.07 164.541 1415.77 166.58C1420.57 170.215 1426 173.024 1431.78 174.727C1447.56 179.365 1465.69 175.488 1477.83 164.41C1484.97 157.906 1489.87 149.38 1495.27 141.379C1502.84 130.152 1511.74 119.587 1522.9 111.926C1534.07 104.269 1547.73 99.6861 1561.19 101.175C1539.4 95.2962 1516.47 93.6668 1494.06 96.397Z" fill="#B91C1C"/>
<path d="M1438.67 213.052C1420.38 215.04 1402.9 223.63 1390.22 236.956C1383.27 244.203 1377.66 252.854 1370.47 259.811C1367.96 260.277 1365.03 260.684 1361.58 260.861C1331.19 262.671 1275.49 258.407 1259.6 241.982C1258.25 240.638 1257.2 239.178 1256.44 237.656C1249.25 222.869 1254.75 199.903 1258.08 189.031C1258.37 188.097 1258.78 187.22 1259.25 186.404C1267.14 180.907 1277.71 180.03 1286.83 183.068C1296.12 186.226 1303.84 193.179 1309.04 201.536C1318.33 191.663 1332.77 186.987 1346.1 189.731C1359.36 192.423 1370.93 202.358 1375.61 215.096C1396.77 210.131 1417.22 209.954 1438.67 213.052Z" fill="#B91C1C"/>
<path d="M1510.1 326.736C1499.81 355.372 1481.93 380.62 1464.21 405.402C1457.79 414.464 1450.95 423.815 1441.13 429.073C1427.22 436.437 1410.33 433.982 1394.79 431.294C1391.04 430.65 1387.13 429.95 1384.38 427.435C1380.41 423.815 1379.94 417.558 1381.69 412.476C1383.5 407.445 1387.07 403.241 1390.22 398.973C1410.56 371.797 1418.98 336.088 1412.9 302.776C1410.92 291.903 1407.46 281.209 1406.59 270.22C1405.95 261.686 1407.69 248.84 1411.72 241.477C1443.58 240.077 1471.47 227.203 1501.27 189.334C1525.88 233.806 1524.94 285.65 1510.1 326.736Z" fill="#450A0A"/>
<path d="M1282.01 208.646C1281.49 203.658 1280.9 198.455 1278.18 194.242C1277.31 192.888 1276.2 191.643 1274.8 190.849C1273.4 190.047 1271.68 189.729 1270.14 190.233C1268.18 190.872 1266.85 192.688 1265.94 194.535C1263.84 198.758 1263.22 203.699 1264.21 208.314C1269.31 211.352 1277.31 211.296 1282.01 208.646Z" fill="#450A0A"/>
<path d="M1331.74 213.986C1333.53 209.301 1335.43 204.429 1339.15 201.061C1340.35 199.979 1341.74 199.064 1343.3 198.653C1344.86 198.242 1346.6 198.382 1347.96 199.265C1349.68 200.389 1350.5 202.489 1350.91 204.509C1351.84 209.128 1351.16 214.07 1349.01 218.265C1343.3 219.879 1335.59 217.761 1331.74 213.986Z" fill="#450A0A"/>
<path d="M1514.46 158.819C1489.73 175.333 1476.27 205.616 1450.44 220.356C1438.73 227.047 1425.32 230.006 1412.71 234.789C1402.72 238.582 1392.79 244.041 1386.1 252.142V254.992C1400.79 243.827 1421.53 245.301 1437.16 241.732C1458.58 236.837 1476.42 222.288 1492.15 206.95C1507.89 191.618 1522.69 174.838 1541.55 163.555C1560.4 152.273 1584.81 147.313 1604.35 157.364C1576.28 143.141 1540.64 141.35 1514.46 158.819Z" fill="#B91C1C"/>
<path d="M1575.25 168.884C1565.42 161.422 1552.71 157.633 1540.47 159.257L1498.79 188.355C1522.31 216.174 1534.67 251.767 1542.4 287.374C1540.53 257.534 1538.03 226.986 1525.51 199.839C1523.17 194.748 1528.65 189.009 1533 185.477C1537.35 181.939 1542.83 180.012 1548.36 179.121C1557.24 177.698 1566.51 178.831 1574.77 182.355C1583.05 185.878 1590.28 191.78 1595.4 199.167C1592.05 187.291 1585.08 176.344 1575.25 168.884Z" fill="#B91C1C"/>
<path d="M1125.91 302.747C1112.84 311.417 1105.32 327.086 1104.53 342.75C1103.75 358.414 1109.13 373.957 1117.55 387.189C1125.97 400.423 1137.31 411.552 1149.25 421.719C1140.44 409.886 1132.5 397.502 1125.64 384.437C1118.79 371.371 1113.96 356.981 1113.74 342.227C1113.52 327.472 1115.7 313.4 1125.91 302.747Z" fill="#450A0A"/>
<path d="M1875.44 255.995C1903.77 278.704 1919.33 316.412 1915.24 352.49C1911.16 388.572 1887.58 421.847 1854.88 437.65C1880.95 416.919 1894.78 383.874 1899 350.843C1903.23 317.811 1895.44 282.624 1875.44 255.995Z" fill="#991B1B"/>
<path d="M1613.11 204.964C1617.56 227.412 1614.55 251.275 1604.65 271.914C1594.76 292.547 1578.04 309.839 1557.75 320.422C1587.8 289.957 1608.22 247.473 1613.11 204.964Z" fill="#B91C1C"/>
<path d="M1360.41 416.958C1356.7 424.162 1356.68 433.336 1361.02 440.176C1365.37 447.016 1374.21 450.922 1382.04 448.831C1375.44 444.735 1370.38 438.216 1368.05 430.806C1366.23 425.025 1366.09 418.73 1367.58 412.86C1368.14 410.626 1368.82 407.168 1365.78 409.87C1363.57 411.824 1361.76 414.354 1360.41 416.958Z" fill="#B91C1C"/>
<path d="M1474.7 417.493C1466.77 434.053 1451.48 446.926 1433.8 451.91C1449.54 442.648 1463.42 431.855 1474.7 417.493Z" fill="#B91C1C"/>
<path d="M1311.9 194.513C1313.23 191.47 1315.53 189.213 1318.26 187.714C1320.94 186.095 1323.88 185.167 1326.97 184.303C1330.08 183.482 1333.29 182.638 1336.53 181.331C1339.79 180.025 1342.8 177.827 1345.26 175.522C1346.51 174.342 1347.65 173.119 1348.77 171.915C1349.91 170.697 1351.12 169.204 1352.04 167.711C1353.81 164.636 1355.03 161.425 1355.94 158.238C1357.88 151.917 1358.88 145.594 1362.7 140.134C1357.46 144.38 1354.91 151.155 1352.51 157.016C1351.23 159.974 1350.02 162.872 1348.31 165.336C1347.42 166.572 1346.6 167.636 1345.47 168.775C1344.34 169.936 1343.22 171.066 1342.08 172.12C1337.77 176.666 1332.15 178.485 1325.82 180.865C1322.73 182.054 1319.54 183.613 1316.93 185.866C1314.38 188.139 1312.19 191.158 1311.9 194.513Z" fill="#B91C1C"/>
<path d="M1512.93 102.013C1502.57 97.0107 1490.45 96.1473 1479.21 98.6166C1467.97 101.089 1457.58 106.753 1448.69 114.061C1440.8 120.551 1433.28 129.105 1425.11 135.254C1417.63 140.886 1405.08 143.289 1396.3 142.869C1406.2 154.147 1420.06 162.313 1434.93 164.39C1449.8 166.466 1465.88 161.575 1475.79 150.307C1482.6 142.557 1486.13 132.553 1490.96 123.435C1495.79 114.313 1502.9 104.449 1512.93 102.013Z" fill="#450A0A"/>
<path d="M1465.29 118.066C1465.29 118.066 1477.91 140.641 1458.38 152.796C1442.38 162.754 1421.9 145.419 1421.9 145.419C1430.21 145.191 1438.4 136.689 1444.54 131.089C1450.69 125.49 1457.9 121.859 1465.29 118.066Z" fill="#BAFF26"/>
<path d="M1448.94 126.957L1443.49 130.261C1448.14 136.862 1452.44 143.712 1456.36 150.772C1455.72 142.439 1452.3 134.605 1448.94 126.957Z" fill="#450A0A"/>
<path d="M1442.71 358.725C1443.35 357.885 1444.69 358.91 1444.15 359.812C1436.48 372.587 1419.72 405.749 1407.32 442.975C1391.45 490.617 1357.33 504.975 1291.95 491.97C1231.37 479.922 1205.69 519.443 1199.13 535.915C1198.79 536.779 1197.51 536.605 1197.41 535.677C1196.36 526.028 1195.37 499.496 1213.07 481.634C1213.66 481.037 1213.25 480.062 1212.42 480.114C1205.7 480.542 1185.54 483.898 1171.18 508.077C1170.7 508.889 1169.47 508.567 1169.51 507.624C1170 494.433 1176.26 448.146 1240.33 457.417C1314.88 468.209 1341.89 490.822 1377.63 453.913C1411.81 418.614 1413.03 398.167 1442.71 358.725Z" fill="#BAFF26"/>
<path d="M1692.96 744.667C1742.5 737.925 1794.58 752.455 1833.47 783.872C1872.36 815.299 1897.51 863.158 1901.33 913.007C1864.2 826.632 1785.4 761.81 1692.96 744.667Z" fill="#991B1B"/>
<path d="M1100.49 741.453C1054.33 735.169 1005.81 748.709 969.575 777.98C933.347 807.255 909.909 851.844 906.358 898.286C940.949 817.819 1014.37 757.42 1100.49 741.453Z" fill="#991B1B"/>
<path d="M1753.82 621.435C1707.26 636.59 1667.73 672.122 1647.71 716.814C1676.29 678.202 1713.31 647.242 1753.82 621.435Z" fill="#7F1D1D"/>
</g>
</g>
<path d="M239.895 263.075C328.199 252.171 420.637 266.867 497.753 311.25L204.478 537.154C155.982 461.654 85.3123 400.617 3.64133 363.479C-0.754671 361.479 -1.30867 355.425 2.74933 352.804C74.4373 306.575 155.299 273.521 239.895 263.075Z" fill="#191C1E"/>
<path d="M239.895 263.059C155.295 273.526 74.4282 306.567 2.76624 352.792C-1.30476 355.409 -0.771757 361.467 3.63724 363.501C7.22424 365.147 10.8122 366.797 14.3452 368.538C82.3282 327.163 157.912 297.751 236.795 288.059C292.916 281.113 350.741 284.542 405.224 299.363C426.791 305.23 449.574 304.834 470.67 297.455L470.937 297.359C399.691 263.926 318.166 253.392 239.895 263.059Z" fill="#0F1010"/>
<path d="M1161.52 227.494C1158.42 309.91 1146.01 392.09 1124.99 471.94C1124.31 474.556 1123.59 477.173 1122.9 479.69C1122.81 480.081 1122.71 480.464 1122.61 480.856C1122.52 481.194 1122.42 481.531 1122.37 481.823H1122.32C1122.18 482.452 1121.99 483.081 1121.84 483.714C1121.55 484.877 1121.21 485.99 1120.92 487.152C1120.92 487.152 1120.87 487.152 1120.77 487.202C1120.77 487.202 1120.77 487.252 1120.72 487.252C1120.63 487.298 1120.43 487.348 1120.19 487.494C1120.09 487.54 1119.95 487.59 1119.85 487.64C1119.42 487.831 1118.83 488.073 1118.16 488.415C1118.11 488.415 1118.06 488.46 1118.01 488.46C1116.75 489.094 1115.15 489.869 1113.17 490.835H1113.12C1112.29 491.273 1111.42 491.71 1110.45 492.194C1109.97 492.435 1109.48 492.627 1109 492.869C1099.98 497.427 1086.61 504.694 1071.45 514.673C1070.23 515.402 1069.03 516.223 1067.76 517.098C1065.34 518.698 1062.82 520.44 1060.3 522.231C1058.27 523.64 1056.28 525.094 1054.25 526.594C1052.16 528.098 1050.03 529.694 1047.95 531.294C1046.93 532.069 1045.86 532.894 1044.8 533.719C1044.02 534.348 1043.2 534.977 1042.42 535.606C1041.94 535.994 1041.41 536.381 1040.87 536.819C1039.47 537.981 1038.01 539.144 1036.61 540.352C1036.08 540.79 1035.54 541.227 1035.01 541.71C1033.22 543.215 1031.42 544.715 1029.63 546.265C1029.34 546.506 1029.05 546.752 1028.81 547.04C1026.43 549.123 1024.11 551.256 1021.78 553.44C1021.59 553.581 1021.44 553.727 1021.3 553.873C1019.02 556.052 1016.74 558.281 1014.46 560.56C1012.04 562.981 1009.67 565.452 1007.34 568.023C1006.96 568.41 1006.52 568.844 1006.13 569.281C1005.5 569.91 1004.92 570.59 1004.34 571.269C1001.82 574.077 999.297 576.985 996.926 579.94C995.23 582.023 993.58 584.106 991.934 586.24C990.58 587.985 989.268 589.777 987.964 591.569C987.476 592.198 986.993 592.831 986.555 593.506C986.414 593.748 986.218 594.04 986.072 594.331C985.443 595.252 984.764 596.173 984.134 597.094C983.164 598.498 982.247 599.902 981.372 601.31V601.356C980.401 602.906 979.434 604.46 978.464 606.01C977.301 607.948 976.139 609.885 975.022 611.869C974.976 611.919 974.93 612.019 974.93 612.065C973.814 614.052 972.747 616.035 971.73 618.073C970.664 620.156 969.647 622.194 968.676 624.323C967.126 627.523 965.722 630.815 964.459 634.11C964.026 635.223 963.589 636.39 963.155 637.552V637.648C962.572 639.152 962.039 640.702 961.505 642.202V642.252C961.218 643.123 960.922 644.094 960.635 645.015C960.201 646.469 959.714 647.873 959.276 649.373C959.034 650.152 958.839 650.927 958.651 651.702C958.405 652.523 958.209 653.298 957.968 654.123C957.776 654.944 957.63 655.769 957.439 656.594C957.243 657.273 957.051 657.998 956.855 658.727C956.805 658.969 956.755 659.16 956.709 659.402C956.568 660.081 956.418 660.81 956.322 661.485C955.789 663.956 955.355 666.477 954.918 668.998C954.722 670.256 954.526 671.515 954.384 672.777C954.189 674.085 954.043 675.344 953.901 676.652C953.851 676.894 953.801 677.14 953.801 677.427C953.272 682.369 953.026 687.36 953.026 692.448C952.976 694.581 952.976 696.71 953.076 698.844V699.669C953.122 700.54 953.172 701.415 953.272 702.285C953.272 702.527 953.272 702.819 953.318 703.06C953.368 703.69 953.368 704.369 953.418 704.998C953.418 705.677 953.46 706.356 953.559 707.031C953.655 708.39 953.755 709.748 953.951 711.102C953.951 711.59 954.043 712.123 954.093 712.606V712.702C954.289 714.156 954.48 715.61 954.672 717.11C954.918 718.952 955.205 720.84 955.543 722.685C955.593 722.877 955.643 723.069 955.643 723.219C955.934 724.769 956.226 726.319 956.568 727.869C956.755 728.885 957.001 729.902 957.243 730.919C957.822 733.635 958.501 736.348 959.276 739.11C959.568 740.127 959.86 741.194 960.151 742.21C960.293 742.794 960.439 743.373 960.635 744.002C960.922 744.877 961.168 745.798 961.455 746.715C961.843 747.977 962.285 749.281 962.768 750.594C962.818 750.835 962.91 751.077 963.005 751.365V751.415C963.347 752.481 963.735 753.598 964.172 754.71C964.947 756.844 965.772 759.023 966.643 761.206C968.485 765.806 970.518 770.46 972.747 775.206C972.893 775.594 973.085 775.931 973.235 776.323C973.814 777.581 974.443 778.84 975.072 780.052C976.48 782.81 977.93 785.573 979.434 788.385V788.435C980.547 790.615 981.759 792.794 983.118 794.927C982.197 796.285 981.322 797.735 980.451 799.094H980.401C979.434 800.598 978.418 802.148 977.447 803.552C977.401 803.602 977.351 803.698 977.301 803.748C976.43 805.152 975.555 806.556 974.634 807.915V807.96C973.668 809.365 972.747 810.769 971.78 812.227C969.501 815.569 967.03 818.865 964.414 821.915C958.651 828.794 952.155 834.806 945.03 840.131C944.939 840.231 944.839 840.327 944.743 840.377C944.109 840.86 943.48 841.344 942.805 841.781H942.755C892.268 878.169 813.626 880.202 749.476 884.323C671.614 889.315 593.601 878.119 517.289 861.744C516.709 861.644 516.176 861.552 515.593 861.406L515.447 861.502L468.014 897.165H50.2513C49.4763 884.419 49.1353 871.627 49.1843 858.835C49.1843 855.64 49.2343 852.44 49.3303 849.29C49.3303 847.256 49.3763 845.223 49.4763 843.19C49.6223 837.76 49.8643 832.331 50.2013 826.86C50.3013 824.435 50.4933 822.015 50.6393 819.59C50.8803 816.294 51.1223 812.952 51.4143 809.656C52.3843 798.269 53.7393 786.885 55.4343 775.594C57.9553 758.59 61.2513 741.677 65.3183 724.964C66.5803 719.823 67.8893 714.69 69.2933 709.552C70.2643 706.015 71.2803 702.431 72.3473 698.894C72.4893 698.41 72.6343 697.877 72.7803 697.389C73.8473 693.806 74.9143 690.269 76.0763 686.731C77.8683 681.06 79.7553 675.44 81.7933 669.823C83.0513 666.09 84.4093 662.406 85.8143 658.727C86.9763 655.577 88.1893 652.477 89.4513 649.327C91.3843 644.431 93.4223 639.54 95.5053 634.644C96.5723 632.223 97.6343 629.798 98.7013 627.377C100.351 623.644 102.047 619.96 103.793 616.281C104.855 613.952 105.922 611.677 107.039 609.448C109.605 604.169 112.222 598.935 114.985 593.748C116.439 590.89 117.939 588.081 119.539 585.273C120.168 583.96 120.943 582.606 121.718 581.298C122.734 579.31 123.851 577.323 125.014 575.385C127.147 571.56 129.376 567.731 131.651 563.998C134.364 559.398 137.176 554.84 140.08 550.335C141.293 548.398 142.551 546.46 143.814 544.523C145.414 542.052 147.059 539.577 148.705 537.156C150.209 534.977 151.664 532.794 153.214 530.615C156.022 526.498 158.93 522.473 161.884 518.456C165.134 513.898 168.526 509.44 172.014 504.985C173.609 502.902 175.259 500.819 176.905 498.735C179.376 495.635 181.847 492.581 184.368 489.527C186.889 486.523 189.455 483.473 192.022 480.515C194.543 477.51 197.159 474.556 199.872 471.598C202.297 468.885 204.768 466.173 207.284 463.51C207.48 463.219 207.722 462.977 208.014 462.735C210.293 460.31 212.568 457.885 214.893 455.515C215.618 454.74 216.347 453.965 217.122 453.19C218.722 451.59 220.272 449.99 221.918 448.39C223.855 446.406 225.797 444.465 227.78 442.623C230.205 440.202 232.676 437.877 235.147 435.552C237.28 433.565 239.409 431.577 241.593 429.59C241.734 429.448 241.93 429.302 242.076 429.156C248.18 423.631 254.384 418.206 260.73 412.923C260.826 412.873 260.922 412.777 260.972 412.731C264.464 409.823 267.947 406.965 271.489 404.202C271.534 404.152 271.584 404.106 271.63 404.106C275.264 401.198 278.851 398.435 282.534 395.673C285.151 393.69 287.818 391.702 290.48 389.81C292.126 388.552 293.872 387.34 295.568 386.127C297.314 384.869 299.055 383.656 300.847 382.444C302.789 381.09 304.772 379.735 306.76 378.427C310.005 376.194 313.351 374.015 316.643 371.885C323.426 367.523 330.309 363.256 337.189 359.14C344.072 355.069 350.997 351.098 357.976 347.269C364.951 343.444 371.98 339.71 379.005 336.127C386.08 332.59 393.151 329.098 400.276 325.756C407.443 322.415 414.568 319.215 421.789 316.065C429.005 312.965 436.226 309.96 443.543 307.052C446.451 305.89 449.359 304.727 452.264 303.615C455.172 302.498 458.08 301.435 460.989 300.319C463.989 299.156 466.993 298.04 470.001 296.977C487.976 290.385 506.143 284.427 524.555 278.856C538.464 274.685 552.514 270.715 566.614 266.935C582.847 262.623 599.172 258.602 615.697 254.723C620.009 253.706 624.418 252.74 628.78 251.719C637.501 249.731 646.322 247.798 655.139 245.906C659.547 244.985 663.955 244.015 668.368 243.098C669.334 242.902 670.351 242.66 671.322 242.465C679.168 240.865 687.068 239.219 695.014 237.619C702.914 236.019 710.859 234.469 718.805 232.873C726.751 231.319 734.747 229.769 742.739 228.173C764.693 223.91 786.83 219.644 809.122 215.235C815.18 214.073 821.234 212.86 827.339 211.648C833.447 210.44 839.551 209.177 845.655 207.919C851.759 206.706 857.864 205.448 863.972 204.14C888.439 199.052 913.051 193.627 937.764 187.665C942.609 186.502 947.505 185.294 952.351 184.081C957.243 182.869 962.089 181.656 966.984 180.398C976.718 177.877 986.509 175.26 996.247 172.548C998.33 172.015 1000.36 171.431 1002.4 170.852C1012.28 168.09 1022.17 165.181 1032.1 162.177C1037.09 160.727 1042.03 159.177 1046.98 157.577C1051.92 156.027 1056.86 154.427 1061.85 152.777C1064.81 151.81 1067.76 151.035 1070.72 150.452C1078.66 148.852 1086.56 148.61 1094.22 149.485C1096.11 149.727 1097.95 150.019 1099.84 150.356C1100.76 150.552 1101.68 150.744 1102.6 150.935C1104.44 151.373 1106.23 151.86 1108.03 152.44C1108.9 152.731 1109.77 153.019 1110.69 153.31C1112.34 153.844 1113.94 154.477 1115.54 155.202C1115.59 155.152 1115.59 155.202 1115.59 155.202C1128.09 160.577 1138.99 169.252 1147.03 180.252C1154.59 190.523 1159.63 202.781 1161.08 216.298C1161.52 219.935 1161.66 223.665 1161.52 227.494Z" fill="white"/>
<path d="M592.852 382.934C630.252 363.751 669.54 344.101 711.569 344.501C720.44 344.588 729.306 345.576 738.16 345.088C747.019 344.605 757.965 340.422 764.99 335.009C751.36 344.805 744.677 361.705 741.606 378.209C738.535 394.709 738.356 411.717 734.248 427.992C730.135 444.272 721.081 460.501 705.844 467.542C693.377 473.301 678.815 472.03 665.44 468.922C652.065 465.817 638.99 460.988 625.302 459.926C595.423 457.601 567.427 473.259 541.56 488.397C538.94 474.642 545.723 460.701 554.669 449.93C563.615 439.159 574.806 430.397 583.544 419.451C592.277 408.509 598.527 394.197 595.106 380.617" fill="#EBEBEB"/>
<path d="M1098.39 449.409C1053.96 416.847 998.822 398.776 943.68 400.23C875.168 402.022 809.905 432.255 754.718 472.859C699.572 513.609 653.01 564.484 605.772 614.151C563.714 658.339 520.297 702.239 470.051 736.589C461.476 742.451 462.11 755.197 471.168 760.184C572.872 816.151 688.43 845.126 803.697 843.864C857.289 843.33 910.83 836.209 962.872 822.301C963.406 822.209 963.889 822.064 964.422 821.914C967.039 818.864 969.505 815.568 971.785 812.226C972.755 810.772 973.672 809.368 974.643 807.964V807.914C975.564 806.555 976.435 805.151 977.305 803.747C977.356 803.697 977.406 803.601 977.455 803.551C978.422 802.147 979.439 800.597 980.41 799.093H980.455C981.326 797.739 982.201 796.284 983.122 794.926C922.751 809.851 856.951 806.022 794.593 796.718C719.68 785.672 641.093 769.393 568.801 745.018C563.76 743.326 558.672 741.58 553.685 739.784C587.601 713.089 617.547 682.08 646.664 650.197C658.972 636.73 671.085 623.159 683.389 609.643C694.826 596.947 706.405 584.351 718.23 572.043C752.439 536.476 790.326 502.609 832.722 477.947C857.726 463.364 884.276 451.976 912.572 445.243C931.231 440.83 950.368 438.701 969.506 438.701C972.801 438.701 976.047 438.747 979.343 438.893H979.489C984.526 439.089 989.568 439.426 994.606 439.959C995.235 440.009 995.914 440.055 996.543 440.155C997.61 440.251 998.626 440.347 999.647 440.493C1001.87 440.734 1004.1 441.026 1006.28 441.364C1007.4 441.509 1008.51 441.655 1009.63 441.851C1010.01 441.897 1010.4 441.997 1010.79 442.043C1013.21 442.43 1015.58 442.818 1018.01 443.305C1018.54 443.401 1019.08 443.497 1019.61 443.593C1022.13 444.08 1024.65 444.614 1027.16 445.193C1027.94 445.389 1028.71 445.53 1029.49 445.726C1032.01 446.305 1034.53 446.939 1037.05 447.664C1039.86 448.389 1042.67 449.164 1045.43 450.039C1046.59 450.376 1047.81 450.764 1048.97 451.151C1049.07 451.151 1049.21 451.201 1049.31 451.251C1051.29 451.88 1053.28 452.509 1055.22 453.234C1056.33 453.576 1057.45 453.964 1058.52 454.401C1061.28 455.368 1063.94 456.384 1066.61 457.451C1068.59 458.226 1070.63 459.051 1072.61 459.972C1073.58 460.359 1074.51 460.747 1075.42 461.184C1077.56 462.101 1079.69 463.072 1081.82 464.089C1082.06 464.234 1082.31 464.334 1082.5 464.426C1083.81 465.009 1085.07 465.643 1086.33 466.318C1088.12 467.193 1089.91 468.109 1091.71 469.03C1092.82 469.614 1093.98 470.243 1095.1 470.872C1096.65 471.697 1098.2 472.568 1099.7 473.489C1101.11 474.264 1102.46 475.039 1103.82 475.914C1103.91 475.959 1104.01 476.009 1104.06 476.059C1106.05 477.222 1107.98 478.43 1109.93 479.693C1112.73 481.484 1115.45 483.326 1118.16 485.168C1119.86 484.489 1120.01 484.439 1121.41 483.905C1121.56 483.859 1121.7 483.809 1121.84 483.714H1121.89C1122.04 483.084 1122.18 482.455 1122.38 481.822C1122.43 481.53 1122.52 481.193 1122.62 480.855C1122.71 480.468 1122.81 480.08 1122.91 479.693C1123.59 477.172 1124.31 474.555 1124.99 471.939C1116.66 463.801 1107.79 456.288 1098.39 449.409ZM961.51 642.205C962.043 640.701 962.576 639.151 963.16 637.647V637.551C962.576 639.101 961.997 640.651 961.51 642.205Z" fill="#EBEBEB"/>
<path d="M1161.52 227.494C1158.42 309.91 1146.01 392.09 1124.99 471.94C1124.31 474.556 1123.59 477.173 1122.9 479.69C1122.81 480.081 1122.71 480.465 1122.61 480.856C1122.52 481.194 1122.42 481.531 1122.37 481.823C1122.37 481.823 1122.37 481.873 1122.32 481.823C1122.18 481.727 1122.03 481.581 1121.84 481.435C1117.43 478.094 1112.82 474.023 1108.22 470.048C1106.53 468.644 1104.83 467.24 1103.18 465.931C1100.18 463.51 1097.22 461.327 1094.31 459.585C1095.72 456.194 1097.08 452.802 1098.39 449.41C1132.11 364.035 1148.68 271.973 1147.03 180.252C1156.63 193.285 1162.15 209.565 1161.52 227.494Z" fill="#EBEBEB"/>
<path d="M983.112 794.932C922.728 809.869 856.933 806.007 794.583 796.732C714.404 784.894 630.045 767.048 553.658 739.769C615.328 691.286 663.845 628.532 718.22 572.023C772.599 515.519 836.199 463.361 912.57 445.252C983.624 428.415 1061.69 444.532 1120.92 487.144C1120.92 487.144 867.729 595.982 983.112 794.932Z" fill="#EBEBEB"/>
<path d="M443.162 612.186C440.962 612.186 438.737 611.807 436.567 611.024C382.8 591.544 340.233 542.845 328.129 486.953C326.583 479.828 329.171 472.44 334.817 467.832L363.558 444.386C367.067 441.52 371.408 440.02 375.812 440.02C377.937 440.02 380.071 440.37 382.137 441.082C388.487 443.274 393.246 448.599 394.721 455.149C400.042 478.819 405.546 503.299 414.962 525.153C424.804 548.003 438.379 565.886 454.217 576.878C462.217 582.428 464.854 593.053 460.383 601.699C456.971 608.294 450.229 612.186 443.162 612.186Z" fill="#EBEBEB"/>
<path d="M347.069 482.851L375.81 459.401C381.41 484.305 387.065 509.38 397.165 532.822C407.265 556.267 422.198 578.247 443.165 592.801C395.398 575.497 357.827 532.505 347.069 482.851Z" fill="#0A0A0A"/>
<path d="M381.068 644.462C379.056 644.462 377.014 644.145 375.014 643.487C320.689 625.624 276.685 578.224 262.91 522.72C261.156 515.645 263.514 508.182 269.023 503.407L297.048 479.107C300.618 476.007 305.143 474.37 309.748 474.37C311.681 474.37 313.623 474.657 315.523 475.249C321.931 477.253 326.848 482.432 328.518 488.932C334.543 512.428 340.777 536.72 350.852 558.303C361.373 580.837 375.481 598.312 391.643 608.832C399.798 614.141 402.756 624.682 398.543 633.462C395.243 640.337 388.348 644.462 381.068 644.462Z" fill="#EBEBEB"/>
<path d="M281.718 518.052L309.743 493.752C316.089 518.477 322.489 543.368 333.289 566.502C344.089 589.631 359.668 611.152 381.068 625.077C332.802 609.206 293.96 567.36 281.718 518.052Z" fill="#0A0A0A"/>
<path d="M324.901 685.872C323.542 685.872 322.167 685.726 320.792 685.426C264.897 673.326 216.192 630.768 196.705 577.009C194.222 570.159 195.792 562.489 200.772 557.164L226.109 530.072C229.813 526.118 234.955 523.93 240.267 523.93C241.534 523.93 242.809 524.059 244.08 524.314C250.667 525.634 256.097 530.272 258.434 536.568C266.876 559.305 275.609 582.818 287.876 603.222C300.692 624.547 316.542 640.451 333.713 649.23C342.38 653.659 346.422 663.83 343.142 673.001C340.347 680.839 332.942 685.872 324.901 685.872Z" fill="#EBEBEB"/>
<path d="M214.926 570.402L240.267 543.314C249.151 567.243 258.113 591.331 271.263 613.21C284.417 635.089 302.163 654.864 324.892 666.485C275.234 655.735 232.238 618.168 214.926 570.402Z" fill="#0A0A0A"/>
<path d="M1160.08 215.3C1153.21 202.025 1140.37 191.704 1125.63 188.75C1113.13 186.229 1101.31 190.204 1090.46 196.937L1090.41 196.983C1034.45 245.683 965.983 281.292 895.771 306.975C791.258 345.204 680.833 364.15 573.463 393.125C465.946 422.05 358.621 462.608 275.188 536.304C191.704 610.242 137.388 714.271 115.633 823.629C110.833 847.662 106.639 872.637 104.122 896.912L49.1216 897.412C45.6346 839.658 50.6539 780.212 64.3209 723.962C99.3039 580.104 191.217 450.979 315.646 370.883C533.392 230.562 795.279 239.142 1060.8 151.829C1068.75 149.212 1076.75 148 1084.5 148C1094.96 148 1105.14 150.179 1114.39 154.2C1114.44 154.154 1114.49 154.154 1114.54 154.2H1114.59C1119.68 156.383 1124.52 159.142 1128.98 162.392C1133.92 165.925 1138.43 170.046 1142.45 174.696C1143.66 176.15 1144.87 177.704 1146.03 179.254C1153.59 189.525 1158.63 201.783 1160.08 215.3Z" fill="#191C1E"/>
<path d="M1161.08 216.3C1154.21 203.025 1141.37 192.704 1126.63 189.75C1114.13 187.229 1102.31 191.204 1091.46 197.937L1091.41 197.983C1035.45 246.683 966.982 282.292 896.77 307.975C792.257 346.204 681.832 365.15 574.462 394.125C466.945 423.05 359.62 463.608 276.187 537.304C192.703 611.242 138.387 715.271 116.632 824.629C111.832 848.662 108.199 872.887 105.682 897.162H85.8162C78.1122 834.758 84.3122 770.654 104.032 710.958C106.795 718.371 109.557 725.833 112.32 733.246C135.432 636.487 184.853 546.217 253.899 474.604C247.987 488.996 242.074 503.337 236.166 517.679C297.166 436.425 382.299 373.579 477.849 339.129C465.495 355.65 453.091 372.175 440.732 388.65C519.953 330.746 615.991 293.146 713.766 284.475C703.691 295.087 693.612 305.746 683.532 316.358C774.912 302.887 865.037 264.271 949.295 226.475C940.141 235.633 930.978 244.842 921.824 253.996C951.328 245.712 974.928 232.775 1001.28 217.079C1027.6 201.425 1054.44 185.679 1084.09 177.879C1103.33 172.837 1124.12 171.529 1143.45 175.696C1144.66 177.15 1145.87 178.704 1147.03 180.254C1154.59 190.525 1159.63 202.783 1161.08 216.3Z" fill="#0F1010"/>
<path d="M186.679 702.812C146.754 759.02 125.291 828.208 126.404 897.158H85.2158C98.8328 824.287 134.641 755.625 186.679 702.812Z" fill="#191C1E"/>
<path d="M983.112 794.932C922.728 809.869 856.933 806.007 794.583 796.732C714.404 784.894 630.045 767.048 553.658 739.769C615.328 691.286 663.845 628.532 718.22 572.023C772.599 515.519 836.199 463.361 912.57 445.252C983.624 428.415 1061.69 444.532 1120.92 487.144C1120.92 487.144 879.424 597.944 983.112 794.932Z" fill="#0A0A0A"/>
<path d="M377.985 796.312C394.047 749.524 421.797 710.541 457.402 676.199C430.118 710.412 413.677 753.42 411.589 797.128C443.164 824.062 478.889 846.116 517.118 862.274C464.402 851.624 419.918 829.983 377.985 796.312Z" fill="#0A0A0A"/>
<path d="M1122.62 477.187C1113.83 529.937 1088.25 579.753 1050.55 617.674C1049.26 618.982 1047.04 617.903 1047.2 616.07C1049.54 588.774 1046.71 561.907 1042.33 534.812C1042.03 532.891 1039.44 532.557 1038.62 534.316C1024.79 564.074 1006.32 591.645 984.547 616.207C983.301 617.612 981.014 616.616 981.118 614.741C982.743 586.407 977.41 557.699 965.718 531.845C965.026 530.32 962.86 530.328 962.143 531.841C947.964 561.812 929.431 590.12 907.572 615.066C906.31 616.507 903.96 615.449 904.114 613.541C906.56 582.595 898.285 550.882 880.997 525.099C880.076 523.728 877.976 524.07 877.493 525.649C866.326 561.841 847.701 597.041 824.593 627.066C823.589 628.366 821.543 627.912 821.135 626.324C815.122 603.132 805.289 580.932 792.147 560.903C791.251 559.545 789.197 559.799 788.651 561.332C779.131 588.012 764.018 616.299 746.726 638.782C745.668 640.153 743.518 639.541 743.251 637.832C740.793 622.078 736.447 606.62 730.335 591.899C729.676 590.328 727.439 590.27 726.706 591.803C718.822 608.295 710.706 625.624 701.414 641.353C700.556 642.812 698.397 642.528 697.86 640.924C692.751 625.745 685.343 611.345 675.951 598.37C675.476 597.716 675.443 596.841 675.881 596.162C721.522 524.97 794.993 470.17 876.889 449.149C958.756 428.132 1047.34 434.774 1121.59 475.07C1122.34 475.478 1122.76 476.341 1122.62 477.187Z" fill="white"/>
<path d="M692.492 568.255C698.259 577.942 703.055 588.213 706.651 598.897C707.188 600.501 709.346 600.78 710.209 599.326C719.492 583.601 727.617 566.267 735.501 549.776C736.234 548.242 738.471 548.297 739.121 549.867C745.242 564.592 749.588 580.051 752.042 595.805C752.309 597.513 754.463 598.126 755.517 596.755C772.809 574.272 787.926 545.984 797.438 519.305C797.988 517.772 800.042 517.517 800.934 518.876C814.084 538.909 823.917 561.105 829.926 584.297C830.338 585.884 832.384 586.338 833.384 585.038C856.488 555.013 875.121 519.817 886.284 483.622C886.771 482.047 888.871 481.701 889.792 483.072C907.08 508.855 915.351 540.567 912.905 571.509C912.755 573.417 915.105 574.48 916.363 573.038C938.225 548.092 956.755 519.784 970.938 489.813C971.655 488.301 973.821 488.292 974.513 489.813C986.205 515.672 991.538 544.384 989.913 572.713C989.8 574.588 992.096 575.584 993.342 574.18C1015.11 549.617 1033.59 522.047 1047.41 492.292C1048.23 490.526 1050.82 490.863 1051.13 492.784C1055.5 519.88 1058.34 546.747 1056 574.042C1055.84 575.88 1058.05 576.955 1059.35 575.647C1088.54 546.276 1110.43 509.755 1122.92 470.28C971.567 430.601 787.884 435.113 692.492 568.255Z" fill="#EBEBEB"/>
<path d="M748.312 508.239C795.479 465.214 855.687 432.127 917.345 415.581C910.691 417.368 898.77 426.156 892.516 430.493C884.904 435.768 877.841 441.785 870.554 447.502C855.987 458.935 841.562 470.552 827.291 482.352C798.954 505.772 771.212 529.914 744.091 554.735C716.975 579.56 690.483 605.068 664.654 631.227C660.441 635.493 651.308 649.118 645.666 650.531C637.175 652.656 639.275 644.36 641.625 639.96C649.779 624.685 660.695 610.206 670.804 596.185C693.695 564.443 719.379 534.631 748.312 508.239Z" fill="white"/>
<path d="M943.752 841.302C991.156 799.085 1007.91 753.66 1010.81 704.385C1010.92 702.435 1008.43 701.556 1007.27 703.115C992.768 722.469 974.664 741.702 956.256 757.24C954.889 758.398 952.852 757.231 953.073 755.456C957.01 724.135 956.581 692.273 951.727 661.081C951.439 659.223 948.939 658.81 948.043 660.465C933.86 686.652 917.397 712.094 898.852 735.373C897.806 736.69 895.677 736.16 895.356 734.506C889.398 703.919 883.243 673.156 876.152 642.802C875.714 640.915 873.056 640.735 872.389 642.556C866.468 658.706 856.743 673.365 846.606 687.323C835.502 702.61 824.327 717.977 811.043 731.394C809.897 732.552 807.918 731.856 807.71 730.24C804.164 703.094 797.114 676.344 788.327 650.398C787.777 648.773 785.564 648.594 784.739 650.094C771.243 674.71 755.752 698.706 737.748 720.223C736.631 721.56 734.473 720.877 734.285 719.152C732.448 702.748 729.11 686.469 725.652 670.31C725.256 668.448 722.748 668.198 721.964 669.931C712.006 691.994 699.068 713.256 684.548 732.631C683.423 734.131 681.064 733.327 681.006 731.452C680.564 717.235 677.96 702.969 674.402 689.177C673.989 687.565 671.881 687.194 670.914 688.552C659.302 704.84 646.243 720.231 632.51 734.785C631.268 736.098 629.093 735.173 629.118 733.369C629.289 720.652 627.968 707.84 626.26 695.223C626.043 693.627 624.093 692.99 622.939 694.11C598.914 717.41 574.452 736.452 554.368 761.231C553.668 762.098 553.814 763.41 554.689 764.094C603.481 802.31 665.877 817.306 726.668 829.752C765.943 837.785 805.393 845.848 845.418 848.06C882.877 850.131 906.339 849.91 942.814 841.777C943.156 841.706 943.493 841.535 943.752 841.302Z" fill="white"/>
<path d="M981.123 797.912C986.744 782.6 992.758 767.014 994.687 750.639C994.916 748.718 992.52 747.702 991.279 749.172C975.891 767.456 956.962 785.406 937.945 799.685C936.533 800.747 934.595 799.477 934.92 797.739C940.616 766.989 942.054 735.447 939.095 704.314C938.916 702.456 936.487 701.906 935.504 703.485C920.025 728.547 902.35 752.739 882.749 774.66C881.641 775.897 879.579 775.247 879.362 773.597C875.283 742.993 871.02 712.202 865.82 681.764C865.491 679.868 862.891 679.535 862.129 681.297C855.362 696.918 844.945 710.843 834.158 724.047C822.341 738.51 810.454 753.047 796.608 765.531C795.412 766.61 793.508 765.802 793.395 764.189C791.491 737.135 786.112 710.256 778.979 684.077C778.533 682.439 776.366 682.127 775.47 683.564C760.762 707.114 744.12 729.931 725.154 750.147C723.983 751.393 721.904 750.593 721.812 748.877C720.962 732.543 718.629 716.252 716.17 700.064C715.883 698.197 713.433 697.802 712.558 699.472C701.479 720.702 687.516 740.964 672.1 759.268C670.908 760.689 668.633 759.747 668.687 757.889C669.079 743.806 667.35 729.539 664.654 715.689C664.341 714.064 662.291 713.581 661.258 714.864C648.887 730.285 635.141 744.739 620.786 758.318C619.486 759.543 617.407 758.502 617.536 756.718C618.44 744.152 617.891 731.402 616.945 718.822C616.825 717.227 614.945 716.481 613.741 717.522C599.095 730.193 584.412 741.427 570.479 753.235C702.712 804.731 844.527 810.196 981.123 797.912Z" fill="#EBEBEB"/>
<path d="M1122.9 479.691C1122.81 480.079 1122.71 480.466 1122.61 480.854C1122.51 481.195 1122.42 481.533 1122.32 481.825C1122.17 482.454 1121.98 483.083 1121.84 483.712C1121.55 484.879 1121.21 485.991 1120.91 487.154C1120.91 487.154 1120.58 489.916 1119.27 494.954C1119.17 494.904 1119.12 494.858 1119.02 494.808C1117.04 493.454 1115.15 492.095 1113.16 490.837H1113.07C1103.33 484.15 1093.44 478.141 1082.83 472.958C1067.18 465.4 1050.76 459.291 1033.84 454.933C1021.74 451.783 1009.33 449.504 996.827 448.195C967.077 445.145 936.744 447.133 908.014 455.22C879.085 462.829 851.806 476.108 826.273 492.241C775.206 524.804 732.564 569.233 691.573 615.02C690.51 616.183 689.489 617.345 688.427 618.558C652.473 658.679 616.664 700.25 574.752 736.104C575.481 736.35 576.156 736.587 576.885 736.833C604.41 746.379 632.41 754.662 660.706 761.979C662.256 762.416 663.81 762.804 665.314 763.095C698.889 771.475 732.952 778.404 767.11 784.316C802.919 790.666 838.727 795.558 874.723 797.008C909.998 798.516 945.323 796.333 979.431 788.387C980.014 788.287 980.694 788.141 981.227 788L981.419 787.95C983.748 787.175 986.51 786.495 988.881 785.675L982.435 796.575L980.789 799.191C980.452 799.675 980.11 800.208 979.723 800.741C979.094 801.708 978.464 802.683 977.785 803.65H977.735C977.594 803.7 977.448 803.745 977.302 803.745C975.602 804.183 973.619 804.52 971.923 804.812L971.873 804.858C939.606 811.5 906.702 813.287 874.144 812.079C837.223 810.866 800.639 805.637 764.544 800.112C729.998 794.733 695.594 788.337 661.385 780.441L661.339 780.487C659.689 780.145 658.089 779.808 656.494 779.425C624.373 772.154 592.485 763.579 561.039 753.354C557.406 752.191 553.723 750.979 550.089 749.766C548.298 749.141 546.602 748.025 545.294 746.429C541.66 741.87 542.385 735.283 546.844 731.65L547.135 731.404L547.185 731.354C581.052 704.9 611.235 673.845 640.794 641.72C652.956 628.541 665.019 615.216 677.181 601.937C677.427 601.695 677.669 601.404 677.86 601.162C719.289 555.716 763.381 510.654 816.823 477.22C831.164 468.354 846.089 460.262 861.644 453.479C861.694 453.479 861.789 453.429 861.839 453.429C862.756 452.995 863.677 452.608 864.648 452.22C877.294 446.841 890.281 442.333 903.652 438.941C934.614 430.658 966.981 428.816 998.619 432.4C1013.54 434.05 1028.27 437.004 1042.61 441.22C1058.75 445.87 1074.5 452.075 1089.56 459.487C1091.21 460.312 1092.86 461.183 1094.51 462.104C1094.61 462.104 1094.66 462.154 1094.7 462.2C1099.31 464.624 1103.81 467.287 1108.22 470.05C1109.29 470.729 1110.35 471.358 1111.37 472.037C1115.1 474.362 1118.74 476.783 1122.22 479.258C1122.47 479.4 1122.66 479.545 1122.9 479.691Z" fill="#0A0A0A"/>
<path d="M621.393 419.142C614.314 406.234 611.61 392.463 611.497 377.742C593.847 361.429 567.342 355.363 544.355 362.371C555.85 347.225 575.513 339.784 594.525 339.721C613.538 339.659 632.018 346.167 649.043 354.625C660.739 360.438 670.893 363.946 683.564 367.129L724.421 356.925C715.338 369.467 713.838 386.429 712.988 399.113C712.146 411.796 710.943 425.379 702.897 435.213C694.101 445.963 679.067 449.567 665.18 449.175C651.296 448.784 637.696 445.096 623.838 444.154C609.98 443.217 594.918 445.538 584.918 455.175C593.131 439.896 606.014 427.167 621.393 419.142Z" fill="#0A0A0A"/>
<path d="M693.702 380.09L630.581 397.182C630.581 397.182 645.143 416.844 670.368 412.515C695.602 408.186 693.702 380.09 693.702 380.09Z" fill="white"/>
<path d="M474.782 413.065C471.228 462.136 472.794 511.577 479.44 560.323C481.998 526.14 486.923 491.602 500.761 460.236C514.594 428.873 538.315 400.702 569.982 387.577L474.782 413.065Z" fill="#0F1010"/>
<path d="M458.08 897.162H140.259C186.159 850.162 250.629 824.291 313.98 828.696C367.542 832.379 419.259 857.575 458.08 897.162Z" fill="#EBEBEB"/>
<path d="M1099.22 169.413C1016.5 239.679 915.543 288.296 809.031 309.167C908.456 272.709 1011.07 228.088 1099.22 169.413Z" fill="#191C1E"/>
<path d="M1126.71 206.31C1135.24 279.731 1122.37 355.29 1089.52 424.71C1109.68 353.119 1122.57 279.419 1126.71 206.31Z" fill="#EBEBEB"/>
<path d="M217.796 713.122C210.067 720.209 204.325 733.426 199.009 742.414C192.905 752.73 187.184 763.268 181.859 774.005C171.209 795.48 162.142 817.73 154.759 840.535C150.625 853.297 147.755 866.397 143.892 879.189C140.875 856.818 148.842 829.268 156.021 808.297C163.917 785.214 175.417 763.355 190.042 743.826C198.325 732.768 207.613 722.46 217.796 713.122Z" fill="#EBEBEB"/>
<path d="M899.962 207.43C777.275 245.729 640.47 250.675 523.795 299.975C588.275 285.971 652.725 279.95 718.008 268.959C783.295 257.963 845.525 238.93 899.962 207.43Z" fill="#0F1010"/>
<rect x="49" y="897" width="1880" height="333" fill="#0F1010"/>
<path d="M694.176 1017.32C719.776 1017.32 739.872 1037.16 739.872 1062.25C739.872 1087.21 719.776 1106.92 694.176 1106.92C668.576 1106.92 648.48 1087.21 648.48 1062.25C648.48 1037.16 668.576 1017.32 694.176 1017.32ZM694.176 1087.59C708.128 1087.59 718.752 1076.84 718.752 1062.25C718.752 1047.53 708.128 1036.65 694.176 1036.65C680.224 1036.65 669.6 1047.53 669.6 1062.25C669.6 1076.84 680.224 1087.59 694.176 1087.59ZM820.619 1037.67H792.843V1105H771.851V1037.67H744.075V1019.24H820.619V1037.67ZM852.324 1105H831.204V1019.24H852.324V1105ZM966.788 1019.24V1105H946.308V1059.3L922.244 1105H912.516L888.324 1059.05V1105H867.844V1019.24H888.58L917.38 1073.64L946.18 1019.24H966.788ZM1068.94 1060.71V1061.22C1076.88 1061.86 1085.46 1068.01 1085.46 1080.94C1085.46 1095.14 1075.86 1105 1057.17 1105H1012.62V1019.24H1057.04C1072.78 1019.24 1083.02 1028.58 1083.02 1042.66C1083.02 1054.44 1074.7 1060.07 1068.94 1060.71ZM1033.74 1036.26V1054.7H1052.18C1058.45 1054.7 1062.54 1050.86 1062.54 1045.1C1062.54 1039.72 1058.32 1036.26 1052.94 1036.26H1033.74ZM1033.74 1087.98H1053.46C1060.24 1087.98 1063.95 1084.26 1063.95 1078.38C1063.95 1072.74 1059.86 1069.16 1053.84 1069.16H1033.74V1087.98ZM1164.83 1086.82V1105H1098.01V1019.24H1164.45V1037.42H1119.13V1053.54H1160.73V1070.7H1119.13V1086.82H1164.83ZM1250.33 1037.67H1222.56V1105H1201.57V1037.67H1173.79V1019.24H1250.33V1037.67ZM1292.08 1017.32C1310.77 1017.32 1324.34 1026.54 1327.54 1042.15L1306.8 1046.38C1305.27 1038.31 1298.61 1034.34 1291.83 1034.34C1284.79 1034.34 1280.31 1038.18 1280.31 1043.05C1280.31 1046.5 1281.84 1049.06 1287.22 1050.22L1305.01 1054.18C1319.86 1057.51 1328.56 1065.58 1328.56 1079.14C1328.56 1097.45 1312.31 1106.92 1293.23 1106.92C1273.91 1106.92 1258.03 1097.7 1255.73 1080.94L1277.49 1076.71C1279.67 1085.54 1285.81 1089.38 1294.39 1089.38C1302.32 1089.38 1307.06 1085.8 1307.06 1080.55C1307.06 1076.71 1305.27 1074.28 1299.12 1073L1281.2 1069.16C1268.91 1066.34 1258.16 1059.94 1258.16 1044.33C1258.16 1027.69 1271.99 1017.32 1292.08 1017.32Z" fill="white"/>
</svg>
