<svg viewBox="0 0 2000 1000" xmlns="http://www.w3.org/2000/svg"><mask id="b" x="0" y="0" width="2000" height="1000"><path fill="url(#a)" d="M0 0h2000v1000H0z"/></mask><path fill="#1c0505" d="M0 0h2000v1000H0z"/><g style="transform-origin:center center" stroke="#480a0a" stroke-width="2" mask="url(#b)"><path fill="#480a0a0d" d="M0 0h135v135H0z" stroke-width="2.7"/><path fill="none" d="M135 0h135v135H135zM270 0h135v135H270zM405 0h135v135H405zM540 0h135v135H540zM675 0h135v135H675zM810 0h135v135H810zM945 0h135v135H945zM1080 0h135v135h-135zM1215 0h135v135h-135zM1350 0h135v135h-135zM1485 0h135v135h-135zM1620 0h135v135h-135zM1755 0h135v135h-135zM1890 0h135v135h-135zM2025 0h135v135h-135zM2160 0h135v135h-135zM2295 0h135v135h-135zM2430 0h135v135h-135zM2565 0h135v135h-135zM0 135h135v135H0z" stroke-width="2.7"/><path fill="#480a0a48" d="M135 135h135v135H135z" stroke-width="2.7"/><path fill="none" d="M270 135h135v135H270zM405 135h135v135H405zM540 135h135v135H540zM675 135h135v135H675zM810 135h135v135H810zM945 135h135v135H945zM1080 135h135v135h-135zM1215 135h135v135h-135z" stroke-width="2.7"/><path fill="#480a0a11" d="M1350 135h135v135h-135z" stroke-width="2.7"/><path fill="none" d="M1485 135h135v135h-135zM1620 135h135v135h-135z" stroke-width="2.7"/><path fill="#480a0ad2" d="M1755 135h135v135h-135z" stroke-width="2.7"/><path fill="none" d="M1890 135h135v135h-135zM2025 135h135v135h-135z" stroke-width="2.7"/><path fill="#480a0aa6" d="M2160 135h135v135h-135z" stroke-width="2.7"/><path fill="none" d="M2295 135h135v135h-135zM2430 135h135v135h-135z" stroke-width="2.7"/><path fill="#480a0a93" d="M2565 135h135v135h-135z" stroke-width="2.7"/><path fill="none" d="M0 270h135v135H0zM135 270h135v135H135z" stroke-width="2.7"/><path fill="#480a0ad8" d="M270 270h135v135H270z" stroke-width="2.7"/><path fill="#480a0ab8" d="M405 270h135v135H405z" stroke-width="2.7"/><path fill="none" d="M540 270h135v135H540zM675 270h135v135H675zM810 270h135v135H810zM945 270h135v135H945zM1080 270h135v135h-135zM1215 270h135v135h-135zM1350 270h135v135h-135zM1485 270h135v135h-135zM1620 270h135v135h-135zM1755 270h135v135h-135z" stroke-width="2.7"/><path fill="#480a0a1d" d="M1890 270h135v135h-135z" stroke-width="2.7"/><path fill="#480a0aab" d="M2025 270h135v135h-135z" stroke-width="2.7"/><path fill="none" d="M2160 270h135v135h-135zM2295 270h135v135h-135zM2430 270h135v135h-135zM2565 270h135v135h-135zM0 405h135v135H0zM135 405h135v135H135zM270 405h135v135H270z" stroke-width="2.7"/><path fill="#480a0a09" d="M405 405h135v135H405z" stroke-width="2.7"/><path fill="none" d="M540 405h135v135H540zM675 405h135v135H675z" stroke-width="2.7"/><path fill="#480a0a7d" d="M810 405h135v135H810z" stroke-width="2.7"/><path fill="none" d="M945 405h135v135H945zM1080 405h135v135h-135z" stroke-width="2.7"/><path fill="#480a0a80" d="M1215 405h135v135h-135z" stroke-width="2.7"/><path fill="#480a0aa5" d="M1350 405h135v135h-135z" stroke-width="2.7"/><path fill="#480a0a27" d="M1485 405h135v135h-135z" stroke-width="2.7"/><path fill="#480a0a80" d="M1620 405h135v135h-135z" stroke-width="2.7"/><path fill="none" d="M1755 405h135v135h-135z" stroke-width="2.7"/><path fill="#480a0a60" d="M1890 405h135v135h-135z" stroke-width="2.7"/><path fill="none" d="M2025 405h135v135h-135zM2160 405h135v135h-135z" stroke-width="2.7"/><path fill="#480a0a87" d="M2295 405h135v135h-135z" stroke-width="2.7"/><path fill="none" d="M2430 405h135v135h-135zM2565 405h135v135h-135zM0 540h135v135H0z" stroke-width="2.7"/><path fill="#480a0af1" d="M135 540h135v135H135z" stroke-width="2.7"/><path fill="none" d="M270 540h135v135H270z" stroke-width="2.7"/><path fill="#480a0a36" d="M405 540h135v135H405z" stroke-width="2.7"/><path fill="none" d="M540 540h135v135H540zM675 540h135v135H675z" stroke-width="2.7"/><path fill="#480a0a88" d="M810 540h135v135H810z" stroke-width="2.7"/><path fill="none" d="M945 540h135v135H945zM1080 540h135v135h-135zM1215 540h135v135h-135zM1350 540h135v135h-135z" stroke-width="2.7"/><path fill="#480a0a72" d="M1485 540h135v135h-135z" stroke-width="2.7"/><path fill="none" d="M1620 540h135v135h-135zM1755 540h135v135h-135zM1890 540h135v135h-135zM2025 540h135v135h-135z" stroke-width="2.7"/><path fill="#480a0a52" d="M2160 540h135v135h-135z" stroke-width="2.7"/><path fill="#480a0a70" d="M2295 540h135v135h-135z" stroke-width="2.7"/><path fill="none" d="M2430 540h135v135h-135zM2565 540h135v135h-135zM0 675h135v135H0z" stroke-width="2.7"/><path fill="#480a0a75" d="M135 675h135v135H135z" stroke-width="2.7"/><path fill="none" d="M270 675h135v135H270zM405 675h135v135H405zM540 675h135v135H540zM675 675h135v135H675zM810 675h135v135H810zM945 675h135v135H945zM1080 675h135v135h-135zM1215 675h135v135h-135zM1350 675h135v135h-135zM1485 675h135v135h-135z" stroke-width="2.7"/><path fill="#480a0a5d" d="M1620 675h135v135h-135z" stroke-width="2.7"/><path fill="none" d="M1755 675h135v135h-135z" stroke-width="2.7"/><path fill="#480a0a16" d="M1890 675h135v135h-135z" stroke-width="2.7"/><path fill="none" d="M2025 675h135v135h-135zM2160 675h135v135h-135zM2295 675h135v135h-135zM2430 675h135v135h-135zM2565 675h135v135h-135zM0 810h135v135H0zM135 810h135v135H135zM270 810h135v135H270z" stroke-width="2.7"/><path fill="#480a0ac8" d="M405 810h135v135H405z" stroke-width="2.7"/><path fill="#480a0ad2" d="M540 810h135v135H540z" stroke-width="2.7"/><path fill="none" d="M675 810h135v135H675zM810 810h135v135H810zM945 810h135v135H945zM1080 810h135v135h-135z" stroke-width="2.7"/><path fill="#480a0a61" d="M1215 810h135v135h-135z" stroke-width="2.7"/><path fill="none" d="M1350 810h135v135h-135zM1485 810h135v135h-135z" stroke-width="2.7"/><path fill="#480a0af9" d="M1620 810h135v135h-135z" stroke-width="2.7"/><path fill="#480a0aaa" d="M1755 810h135v135h-135z" stroke-width="2.7"/><path fill="none" d="M1890 810h135v135h-135zM2025 810h135v135h-135zM2160 810h135v135h-135zM2295 810h135v135h-135zM2430 810h135v135h-135zM2565 810h135v135h-135zM0 945h135v135H0zM135 945h135v135H135zM270 945h135v135H270zM405 945h135v135H405z" stroke-width="2.7"/><path fill="#480a0a32" d="M540 945h135v135H540z" stroke-width="2.7"/><path fill="none" d="M675 945h135v135H675zM810 945h135v135H810zM945 945h135v135H945zM1080 945h135v135h-135zM1215 945h135v135h-135z" stroke-width="2.7"/><path fill="#480a0a1b" d="M1350 945h135v135h-135z" stroke-width="2.7"/><path fill="none" d="M1485 945h135v135h-135zM1620 945h135v135h-135z" stroke-width="2.7"/><path fill="#480a0a64" d="M1755 945h135v135h-135z" stroke-width="2.7"/><path fill="none" d="M1890 945h135v135h-135zM2025 945h135v135h-135zM2160 945h135v135h-135zM2295 945h135v135h-135zM2430 945h135v135h-135z" stroke-width="2.7"/><path fill="#480a0a29" d="M2565 945h135v135h-135z" stroke-width="2.7"/><path fill="#480a0ac2" d="M0 1080h135v135H0z" stroke-width="2.7"/><path fill="none" d="M135 1080h135v135H135z" stroke-width="2.7"/><path fill="#480a0a9c" d="M270 1080h135v135H270z" stroke-width="2.7"/><path fill="none" d="M405 1080h135v135H405zM540 1080h135v135H540zM675 1080h135v135H675z" stroke-width="2.7"/><path fill="#480a0a40" d="M810 1080h135v135H810z" stroke-width="2.7"/><path fill="none" d="M945 1080h135v135H945zM1080 1080h135v135h-135z" stroke-width="2.7"/><path fill="#480a0a98" d="M1215 1080h135v135h-135z" stroke-width="2.7"/><path fill="none" d="M1350 1080h135v135h-135z" stroke-width="2.7"/><path fill="#480a0a71" d="M1485 1080h135v135h-135z" stroke-width="2.7"/><path fill="none" d="M1620 1080h135v135h-135zM1755 1080h135v135h-135zM1890 1080h135v135h-135zM2025 1080h135v135h-135zM2160 1080h135v135h-135z" stroke-width="2.7"/><path fill="#480a0a3a" d="M2295 1080h135v135h-135z" stroke-width="2.7"/><path fill="#480a0ac0" d="M2430 1080h135v135h-135z" stroke-width="2.7"/><path fill="none" d="M2565 1080h135v135h-135zM0 1215h135v135H0zM135 1215h135v135H135zM270 1215h135v135H270z" stroke-width="2.7"/><path fill="#480a0a98" d="M405 1215h135v135H405z" stroke-width="2.7"/><path fill="#480a0af8" d="M540 1215h135v135H540z" stroke-width="2.7"/><path fill="#480a0adc" d="M675 1215h135v135H675z" stroke-width="2.7"/><path fill="none" d="M810 1215h135v135H810zM945 1215h135v135H945zM1080 1215h135v135h-135z" stroke-width="2.7"/><path fill="#480a0a49" d="M1215 1215h135v135h-135z" stroke-width="2.7"/><path fill="#480a0a4b" d="M1350 1215h135v135h-135z" stroke-width="2.7"/><path fill="none" d="M1485 1215h135v135h-135zM1620 1215h135v135h-135zM1755 1215h135v135h-135z" stroke-width="2.7"/><path fill="#480a0a84" d="M1890 1215h135v135h-135z" stroke-width="2.7"/><path fill="none" d="M2025 1215h135v135h-135zM2160 1215h135v135h-135z" stroke-width="2.7"/><path fill="#480a0a8b" d="M2295 1215h135v135h-135z" stroke-width="2.7"/><path fill="none" d="M2430 1215h135v135h-135zM2565 1215h135v135h-135z" stroke-width="2.7"/></g><defs><radialGradient id="a"><stop offset="0" stop-color="#fff"/><stop offset="1" stop-color="#fff" stop-opacity="0"/></radialGradient></defs></svg>