<svg width="1163" height="750" viewBox="0 0 1163 750" fill="none" xmlns="http://www.w3.org/2000/svg">
<path d="M240.773 115.163C329.077 104.259 421.515 118.955 498.631 163.338L205.356 389.242C156.86 313.742 86.1903 252.705 4.51926 215.567C0.123259 213.567 -0.430739 207.513 3.62726 204.892C75.3153 158.663 156.177 125.609 240.773 115.163Z" fill="#191C1E"/>
<path d="M240.773 115.147C156.173 125.614 75.3062 158.655 3.64417 204.88C-0.42683 207.497 0.106172 213.555 4.51517 215.589C8.10217 217.235 11.6901 218.885 15.2231 220.626C83.2062 179.251 158.79 149.839 237.673 140.147C293.794 133.201 351.619 136.63 406.102 151.451C427.669 157.318 450.452 156.922 471.548 149.543L471.815 149.447C400.569 116.014 319.044 105.48 240.773 115.147Z" fill="#0F1010"/>
<path d="M1162.4 79.582C1159.3 161.998 1146.89 244.178 1125.86 324.028C1125.18 326.644 1124.46 329.261 1123.78 331.778C1123.68 332.169 1123.59 332.552 1123.49 332.944C1123.4 333.282 1123.3 333.619 1123.25 333.911H1123.2C1123.05 334.54 1122.86 335.169 1122.72 335.802C1122.43 336.965 1122.08 338.078 1121.8 339.24C1121.8 339.24 1121.75 339.24 1121.65 339.29C1121.65 339.29 1121.65 339.34 1121.6 339.34C1121.5 339.386 1121.31 339.436 1121.07 339.582C1120.97 339.628 1120.83 339.678 1120.73 339.728C1120.3 339.919 1119.71 340.161 1119.03 340.503C1118.98 340.503 1118.93 340.548 1118.89 340.548C1117.63 341.182 1116.03 341.957 1114.05 342.923H1114C1113.17 343.361 1112.3 343.798 1111.33 344.282C1110.85 344.523 1110.36 344.715 1109.88 344.957C1100.86 349.515 1087.49 356.782 1072.33 366.761C1071.11 367.49 1069.9 368.311 1068.64 369.186C1066.22 370.786 1063.7 372.528 1061.18 374.319C1059.15 375.728 1057.16 377.182 1055.13 378.682C1053.04 380.186 1050.91 381.782 1048.83 383.382C1047.81 384.157 1046.74 384.982 1045.68 385.807C1044.9 386.436 1044.08 387.065 1043.3 387.694C1042.82 388.082 1042.28 388.469 1041.75 388.907C1040.35 390.069 1038.89 391.232 1037.49 392.44C1036.95 392.878 1036.42 393.315 1035.89 393.798C1034.1 395.303 1032.3 396.803 1030.51 398.353C1030.22 398.594 1029.93 398.84 1029.68 399.128C1027.31 401.211 1024.99 403.344 1022.66 405.528C1022.47 405.669 1022.32 405.815 1022.18 405.961C1019.9 408.14 1017.62 410.369 1015.34 412.648C1012.92 415.069 1010.55 417.54 1008.22 420.111C1007.83 420.498 1007.4 420.932 1007.01 421.369C1006.38 421.998 1005.8 422.678 1005.22 423.357C1002.7 426.165 1000.18 429.073 997.804 432.028C996.108 434.111 994.458 436.194 992.812 438.328C991.458 440.073 990.146 441.865 988.842 443.657C988.354 444.286 987.871 444.919 987.433 445.594C987.292 445.836 987.096 446.128 986.95 446.419C986.321 447.34 985.642 448.261 985.012 449.182C984.042 450.586 983.125 451.99 982.25 453.398V453.444C981.279 454.994 980.312 456.548 979.342 458.098C978.179 460.036 977.017 461.973 975.9 463.957C975.854 464.007 975.808 464.107 975.808 464.153C974.692 466.14 973.625 468.123 972.608 470.161C971.542 472.244 970.525 474.282 969.554 476.411C968.004 479.611 966.6 482.903 965.337 486.198C964.904 487.311 964.467 488.478 964.033 489.64V489.736C963.45 491.24 962.917 492.79 962.383 494.29V494.34C962.096 495.211 961.8 496.182 961.513 497.103C961.079 498.557 960.592 499.961 960.154 501.461C959.912 502.24 959.717 503.015 959.529 503.79C959.283 504.611 959.087 505.386 958.846 506.211C958.654 507.032 958.508 507.857 958.317 508.682C958.121 509.361 957.929 510.086 957.733 510.815C957.683 511.057 957.633 511.248 957.587 511.49C957.446 512.169 957.296 512.898 957.2 513.573C956.667 516.044 956.233 518.565 955.796 521.086C955.6 522.344 955.404 523.603 955.262 524.865C955.067 526.173 954.921 527.432 954.779 528.74C954.729 528.982 954.679 529.228 954.679 529.515C954.15 534.457 953.904 539.448 953.904 544.536C953.854 546.669 953.854 548.798 953.954 550.932V551.757C954 552.628 954.05 553.503 954.15 554.373C954.15 554.615 954.15 554.907 954.196 555.148C954.246 555.778 954.246 556.457 954.296 557.086C954.296 557.765 954.338 558.444 954.437 559.119C954.533 560.478 954.633 561.836 954.829 563.19C954.829 563.678 954.921 564.211 954.971 564.694V564.79C955.167 566.244 955.358 567.698 955.55 569.198C955.796 571.04 956.083 572.928 956.421 574.773C956.471 574.965 956.521 575.157 956.521 575.307C956.812 576.857 957.104 578.407 957.446 579.957C957.633 580.973 957.879 581.99 958.121 583.007C958.7 585.723 959.379 588.436 960.154 591.198C960.446 592.215 960.738 593.282 961.029 594.298C961.171 594.882 961.317 595.461 961.513 596.09C961.8 596.965 962.046 597.886 962.333 598.803C962.721 600.065 963.163 601.369 963.646 602.682C963.696 602.923 963.788 603.165 963.883 603.453V603.503C964.225 604.569 964.613 605.686 965.05 606.798C965.825 608.932 966.65 611.111 967.521 613.294C969.363 617.894 971.396 622.548 973.625 627.294C973.771 627.682 973.963 628.019 974.113 628.411C974.692 629.669 975.321 630.928 975.95 632.14C977.358 634.898 978.808 637.661 980.312 640.473V640.523C981.425 642.703 982.637 644.882 983.996 647.015C983.075 648.373 982.2 649.823 981.329 651.182H981.279C980.312 652.686 979.296 654.236 978.325 655.64C978.279 655.69 978.229 655.786 978.179 655.836C977.308 657.24 976.433 658.644 975.512 660.003V660.048C974.546 661.453 973.625 662.857 972.658 664.315C970.379 667.657 967.908 670.953 965.292 674.003C959.529 680.882 953.033 686.894 945.908 692.219C945.817 692.319 945.717 692.415 945.621 692.465C944.987 692.948 944.358 693.432 943.683 693.869H943.633C893.146 730.257 814.504 732.29 750.354 736.411C672.492 741.403 594.479 730.207 518.167 713.832C517.587 713.732 517.054 713.64 516.471 713.494L516.325 713.59L468.892 749.253H51.1292C50.3542 736.507 50.0132 723.715 50.0622 710.923C50.0622 707.728 50.1122 704.528 50.2082 701.378C50.2082 699.344 50.2542 697.311 50.3542 695.278C50.5002 689.848 50.7422 684.419 51.0792 678.948C51.1792 676.523 51.3712 674.103 51.5172 671.678C51.7582 668.382 52.0002 665.04 52.2922 661.744C53.2622 650.357 54.6172 638.973 56.3122 627.682C58.8332 610.678 62.1292 593.765 66.1962 577.052C67.4582 571.911 68.7672 566.778 70.1712 561.64C71.1422 558.103 72.1582 554.519 73.2252 550.982C73.3672 550.498 73.5122 549.965 73.6582 549.477C74.7252 545.894 75.7922 542.357 76.9542 538.819C78.7462 533.148 80.6332 527.528 82.6712 521.911C83.9292 518.178 85.2872 514.494 86.6922 510.815C87.8542 507.665 89.0672 504.565 90.3292 501.415C92.2622 496.519 94.3002 491.628 96.3832 486.732C97.4502 484.311 98.5122 481.886 99.5792 479.465C101.229 475.732 102.925 472.048 104.671 468.369C105.733 466.04 106.8 463.765 107.917 461.536C110.483 456.257 113.1 451.023 115.863 445.836C117.317 442.978 118.817 440.169 120.417 437.361C121.046 436.048 121.821 434.694 122.596 433.386C123.612 431.398 124.729 429.411 125.892 427.473C128.025 423.648 130.254 419.819 132.529 416.086C135.242 411.486 138.054 406.928 140.958 402.423C142.171 400.486 143.429 398.548 144.692 396.611C146.292 394.14 147.937 391.665 149.583 389.244C151.087 387.065 152.542 384.882 154.092 382.703C156.9 378.586 159.808 374.561 162.762 370.544C166.012 365.986 169.404 361.528 172.892 357.073C174.487 354.99 176.137 352.907 177.783 350.823C180.254 347.723 182.725 344.669 185.246 341.615C187.767 338.611 190.333 335.561 192.9 332.603C195.421 329.598 198.037 326.644 200.75 323.686C203.175 320.973 205.646 318.261 208.162 315.598C208.358 315.307 208.6 315.065 208.892 314.823C211.171 312.398 213.446 309.973 215.771 307.603C216.496 306.828 217.225 306.053 218 305.278C219.6 303.678 221.15 302.078 222.796 300.478C224.733 298.494 226.675 296.553 228.658 294.711C231.083 292.29 233.554 289.965 236.025 287.64C238.158 285.653 240.287 283.665 242.471 281.678C242.612 281.536 242.808 281.39 242.954 281.244C249.058 275.719 255.262 270.294 261.608 265.011C261.704 264.961 261.8 264.865 261.85 264.819C265.342 261.911 268.825 259.053 272.367 256.29C272.412 256.24 272.462 256.194 272.508 256.194C276.142 253.286 279.729 250.523 283.412 247.761C286.029 245.778 288.696 243.79 291.358 241.898C293.004 240.64 294.75 239.428 296.446 238.215C298.192 236.957 299.933 235.744 301.725 234.532C303.667 233.178 305.65 231.823 307.638 230.515C310.883 228.282 314.229 226.103 317.521 223.973C324.304 219.611 331.187 215.344 338.067 211.228C344.95 207.157 351.875 203.186 358.854 199.357C365.829 195.532 372.858 191.798 379.883 188.215C386.958 184.678 394.029 181.186 401.154 177.844C408.321 174.503 415.446 171.303 422.667 168.153C429.883 165.053 437.104 162.048 444.421 159.14C447.329 157.978 450.237 156.815 453.142 155.703C456.05 154.586 458.958 153.523 461.867 152.407C464.867 151.244 467.871 150.128 470.879 149.065C488.854 142.473 507.021 136.515 525.433 130.944C539.342 126.773 553.392 122.803 567.492 119.023C583.725 114.711 600.05 110.69 616.575 106.811C620.887 105.794 625.296 104.828 629.658 103.807C638.379 101.819 647.2 99.886 656.017 97.994C660.425 97.073 664.833 96.103 669.246 95.186C670.212 94.99 671.229 94.748 672.2 94.553C680.046 92.953 687.946 91.307 695.892 89.707C703.792 88.107 711.737 86.557 719.683 84.961C727.629 83.407 735.625 81.857 743.617 80.261C765.571 75.998 787.708 71.732 810 67.323C816.058 66.161 822.112 64.948 828.217 63.736C834.325 62.528 840.429 61.265 846.533 60.007C852.637 58.794 858.742 57.536 864.85 56.228C889.317 51.14 913.929 45.715 938.642 39.753C943.487 38.59 948.383 37.382 953.229 36.169C958.121 34.957 962.967 33.744 967.862 32.486C977.596 29.965 987.387 27.348 997.125 24.636C999.208 24.103 1001.24 23.519 1003.28 22.94C1013.16 20.178 1023.05 17.269 1032.98 14.265C1037.97 12.815 1042.91 11.265 1047.86 9.66502C1052.8 8.11502 1057.74 6.515 1062.73 4.865C1065.69 3.898 1068.64 3.12302 1071.6 2.54002C1079.54 0.940017 1087.44 0.698006 1095.1 1.57301C1096.99 1.81501 1098.83 2.10701 1100.72 2.44401C1101.64 2.64001 1102.56 2.83202 1103.48 3.02302C1105.32 3.46102 1107.11 3.94802 1108.9 4.52802C1109.78 4.81902 1110.65 5.10702 1111.57 5.39802C1113.22 5.93202 1114.82 6.56502 1116.42 7.29002C1116.47 7.24002 1116.47 7.29002 1116.47 7.29002C1128.97 12.665 1139.87 21.34 1147.91 32.34C1155.47 42.611 1160.51 54.869 1161.96 68.386C1162.4 72.023 1162.54 75.753 1162.4 79.582Z" fill="white"/>
<path d="M593.73 235.022C631.13 215.839 670.418 196.189 712.447 196.589C721.318 196.676 730.184 197.664 739.038 197.176C747.897 196.693 758.843 192.51 765.868 187.097C752.238 196.893 745.555 213.793 742.484 230.297C739.413 246.797 739.234 263.805 735.126 280.08C731.013 296.36 721.959 312.589 706.722 319.63C694.255 325.389 679.693 324.118 666.318 321.01C652.943 317.905 639.868 313.076 626.18 312.014C596.301 309.689 568.305 325.347 542.438 340.485C539.818 326.73 546.601 312.789 555.547 302.018C564.493 291.247 575.684 282.485 584.422 271.539C593.155 260.597 599.405 246.285 595.984 232.705" fill="#EBEBEB"/>
<path d="M1099.27 301.497C1054.84 268.935 999.699 250.864 944.557 252.318C876.045 254.11 810.782 284.343 755.595 324.947C700.449 365.697 653.887 416.572 606.649 466.239C564.591 510.427 521.174 554.327 470.928 588.677C462.353 594.539 462.987 607.285 472.045 612.272C573.749 668.239 689.307 697.214 804.574 695.952C858.166 695.418 911.707 688.297 963.749 674.389C964.283 674.297 964.766 674.152 965.299 674.002C967.916 670.952 970.382 667.656 972.662 664.314C973.632 662.86 974.549 661.456 975.52 660.052V660.002C976.441 658.643 977.312 657.239 978.182 655.835C978.233 655.785 978.283 655.689 978.332 655.639C979.299 654.235 980.316 652.685 981.287 651.181H981.332C982.203 649.827 983.078 648.372 983.999 647.014C923.628 661.939 857.828 658.11 795.47 648.806C720.557 637.76 641.97 621.481 569.678 597.106C564.637 595.414 559.549 593.668 554.562 591.872C588.478 565.177 618.424 534.168 647.541 502.285C659.849 488.818 671.962 475.247 684.266 461.731C695.703 449.035 707.282 436.439 719.107 424.131C753.316 388.564 791.203 354.697 833.599 330.035C858.603 315.452 885.153 304.064 913.449 297.331C932.108 292.918 951.245 290.789 970.383 290.789C973.678 290.789 976.924 290.835 980.22 290.981H980.366C985.403 291.177 990.445 291.514 995.483 292.047C996.112 292.097 996.791 292.143 997.42 292.243C998.487 292.339 999.503 292.435 1000.52 292.581C1002.75 292.822 1004.98 293.114 1007.16 293.452C1008.27 293.597 1009.39 293.743 1010.5 293.939C1010.89 293.985 1011.28 294.085 1011.67 294.131C1014.09 294.518 1016.46 294.906 1018.89 295.393C1019.42 295.489 1019.95 295.585 1020.49 295.681C1023 296.168 1025.52 296.702 1028.04 297.281C1028.82 297.477 1029.59 297.618 1030.37 297.814C1032.89 298.393 1035.41 299.027 1037.92 299.752C1040.74 300.477 1043.55 301.252 1046.31 302.127C1047.47 302.464 1048.68 302.852 1049.85 303.239C1049.95 303.239 1050.09 303.289 1050.19 303.339C1052.17 303.968 1054.16 304.597 1056.1 305.322C1057.21 305.664 1058.33 306.052 1059.4 306.489C1062.15 307.456 1064.82 308.472 1067.48 309.539C1069.47 310.314 1071.51 311.139 1073.49 312.06C1074.46 312.447 1075.38 312.835 1076.3 313.272C1078.43 314.189 1080.57 315.16 1082.7 316.177C1082.94 316.322 1083.18 316.422 1083.38 316.514C1084.68 317.097 1085.95 317.731 1087.2 318.406C1089 319.281 1090.79 320.197 1092.58 321.118C1093.7 321.702 1094.86 322.331 1095.97 322.96C1097.52 323.785 1099.07 324.656 1100.57 325.577C1101.98 326.352 1103.34 327.127 1104.7 328.002C1104.79 328.047 1104.89 328.097 1104.94 328.147C1106.92 329.31 1108.86 330.518 1110.8 331.781C1113.61 333.572 1116.32 335.414 1119.04 337.256C1120.73 336.577 1120.88 336.527 1122.28 335.993C1122.43 335.947 1122.57 335.897 1122.72 335.802H1122.77C1122.92 335.172 1123.06 334.543 1123.25 333.91C1123.3 333.618 1123.4 333.281 1123.5 332.943C1123.59 332.556 1123.69 332.168 1123.79 331.781C1124.47 329.26 1125.19 326.643 1125.87 324.027C1117.54 315.889 1108.67 308.376 1099.27 301.497ZM962.387 494.293C962.92 492.789 963.453 491.239 964.037 489.735V489.639C963.453 491.189 962.874 492.739 962.387 494.293Z" fill="#EBEBEB"/>
<path d="M1162.4 79.5819C1159.3 161.998 1146.89 244.178 1125.86 324.028C1125.18 326.644 1124.46 329.261 1123.78 331.778C1123.68 332.169 1123.59 332.553 1123.49 332.944C1123.4 333.282 1123.3 333.619 1123.25 333.911C1123.25 333.911 1123.25 333.961 1123.2 333.911C1123.05 333.815 1122.91 333.669 1122.72 333.523C1118.3 330.182 1113.7 326.111 1109.1 322.136C1107.4 320.732 1105.71 319.328 1104.06 318.019C1101.05 315.598 1098.1 313.415 1095.19 311.673C1096.6 308.282 1097.95 304.89 1099.27 301.498C1132.98 216.123 1149.56 124.061 1147.91 32.34C1157.5 45.373 1163.03 61.6529 1162.4 79.5819Z" fill="#EBEBEB"/>
<path d="M983.99 647.02C923.606 661.957 857.811 658.095 795.461 648.82C715.282 636.982 630.923 619.136 554.536 591.857C616.206 543.374 664.723 480.62 719.098 424.111C773.477 367.607 837.077 315.449 913.448 297.34C984.502 280.503 1062.57 296.62 1121.8 339.232C1121.8 339.232 868.607 448.07 983.99 647.02Z" fill="#EBEBEB"/>
<path d="M444.04 464.274C441.84 464.274 439.615 463.895 437.445 463.112C383.678 443.632 341.111 394.933 329.007 339.041C327.461 331.916 330.049 324.528 335.695 319.92L364.436 296.474C367.945 293.608 372.286 292.108 376.69 292.108C378.815 292.108 380.949 292.458 383.015 293.17C389.365 295.362 394.124 300.687 395.599 307.237C400.92 330.907 406.424 355.387 415.84 377.241C425.682 400.091 439.257 417.974 455.095 428.966C463.095 434.516 465.732 445.141 461.261 453.787C457.849 460.382 451.107 464.274 444.04 464.274Z" fill="#EBEBEB"/>
<path d="M347.947 334.939L376.688 311.489C382.288 336.393 387.943 361.468 398.043 384.91C408.143 408.355 423.076 430.335 444.043 444.889C396.276 427.585 358.705 384.593 347.947 334.939Z" fill="#0A0A0A"/>
<path d="M381.945 496.55C379.933 496.55 377.891 496.233 375.891 495.575C321.566 477.712 277.562 430.312 263.787 374.808C262.033 367.733 264.391 360.27 269.9 355.495L297.925 331.195C301.495 328.095 306.02 326.458 310.625 326.458C312.558 326.458 314.5 326.745 316.4 327.337C322.808 329.341 327.725 334.52 329.395 341.02C335.42 364.516 341.654 388.808 351.729 410.391C362.25 432.925 376.358 450.4 392.52 460.92C400.675 466.229 403.633 476.77 399.42 485.55C396.12 492.425 389.225 496.55 381.945 496.55Z" fill="#EBEBEB"/>
<path d="M282.596 370.14L310.621 345.84C316.967 370.565 323.367 395.456 334.167 418.59C344.967 441.719 360.546 463.24 381.946 477.165C333.68 461.294 294.838 419.448 282.596 370.14Z" fill="#0A0A0A"/>
<path d="M325.779 537.96C324.42 537.96 323.045 537.814 321.67 537.514C265.775 525.414 217.07 482.856 197.583 429.097C195.1 422.247 196.67 414.577 201.65 409.252L226.987 382.16C230.691 378.206 235.833 376.018 241.145 376.018C242.412 376.018 243.687 376.147 244.958 376.402C251.545 377.722 256.975 382.36 259.312 388.656C267.754 411.393 276.487 434.906 288.754 455.31C301.57 476.635 317.42 492.539 334.591 501.318C343.258 505.747 347.3 515.918 344.02 525.089C341.225 532.927 333.82 537.96 325.779 537.96Z" fill="#EBEBEB"/>
<path d="M215.804 422.49L241.145 395.402C250.029 419.331 258.991 443.419 272.141 465.298C285.295 487.177 303.041 506.952 325.77 518.573C276.112 507.823 233.116 470.256 215.804 422.49Z" fill="#0A0A0A"/>
<path d="M1160.96 67.388C1154.09 54.113 1141.25 43.792 1126.51 40.838C1114.01 38.317 1102.19 42.292 1091.34 49.025L1091.29 49.071C1035.32 97.771 966.861 133.38 896.649 159.063C792.136 197.292 681.711 216.238 574.341 245.213C466.824 274.138 359.499 314.696 276.066 388.392C192.582 462.33 138.266 566.359 116.511 675.717C111.711 699.75 107.517 724.725 105 749L50 749.5C46.513 691.746 51.5323 632.3 65.1993 576.05C100.182 432.192 192.095 303.067 316.524 222.971C534.27 82.65 796.158 91.23 1061.68 3.91699C1069.63 1.29999 1077.62 0.0880127 1085.37 0.0880127C1095.84 0.0880127 1106.02 2.26699 1115.27 6.28799C1115.32 6.24199 1115.37 6.24199 1115.42 6.28799H1115.47C1120.55 8.47099 1125.4 11.23 1129.86 14.48C1134.8 18.013 1139.31 22.134 1143.33 26.784C1144.54 28.238 1145.75 29.792 1146.91 31.342C1154.47 41.613 1159.51 53.871 1160.96 67.388Z" fill="#191C1E"/>
<path d="M1161.96 68.388C1155.09 55.113 1142.24 44.792 1127.51 41.838C1115.01 39.317 1103.19 43.292 1092.34 50.025L1092.29 50.071C1036.32 98.771 967.86 134.38 897.648 160.063C793.135 198.292 682.71 217.238 575.34 246.213C467.823 275.138 360.498 315.696 277.065 389.392C193.581 463.33 139.265 567.359 117.51 676.717C112.71 700.75 109.077 724.975 106.56 749.25H86.6941C78.9901 686.846 85.1901 622.742 104.91 563.046C107.673 570.459 110.435 577.921 113.198 585.334C136.31 488.575 185.731 398.305 254.777 326.692C248.865 341.084 242.952 355.425 237.044 369.767C298.044 288.513 383.177 225.667 478.727 191.217C466.373 207.738 453.969 224.263 441.61 240.738C520.831 182.834 616.869 145.234 714.644 136.563C704.569 147.175 694.49 157.834 684.41 168.446C775.79 154.975 865.915 116.359 950.173 78.563C941.019 87.721 931.856 96.93 922.702 106.084C952.206 97.8 975.806 84.863 1002.16 69.167C1028.47 53.513 1055.32 37.767 1084.97 29.967C1104.21 24.925 1124.99 23.617 1144.33 27.784C1145.54 29.238 1146.75 30.792 1147.91 32.342C1155.47 42.613 1160.51 54.871 1161.96 68.388Z" fill="#0F1010"/>
<path d="M187.557 554.9C147.632 611.108 126.169 680.296 127.282 749.246H86.0942C99.7112 676.375 135.519 607.713 187.557 554.9Z" fill="#191C1E"/>
<path d="M983.99 647.02C923.606 661.957 857.811 658.095 795.461 648.82C715.282 636.982 630.923 619.136 554.536 591.857C616.206 543.374 664.723 480.62 719.098 424.111C773.477 367.607 837.077 315.449 913.448 297.34C984.502 280.503 1062.57 296.62 1121.8 339.232C1121.8 339.232 880.302 450.032 983.99 647.02Z" fill="#0A0A0A"/>
<path d="M378.863 648.4C394.925 601.612 422.675 562.629 458.28 528.287C430.996 562.5 414.555 605.508 412.467 649.216C444.042 676.15 479.767 698.204 517.996 714.362C465.28 703.712 420.796 682.071 378.863 648.4Z" fill="#0A0A0A"/>
<path d="M1123.5 329.275C1114.71 382.025 1089.13 431.841 1051.43 469.762C1050.13 471.07 1047.92 469.991 1048.08 468.158C1050.42 440.862 1047.58 413.995 1043.21 386.9C1042.9 384.979 1040.32 384.645 1039.5 386.404C1025.67 416.162 1007.2 443.733 985.425 468.295C984.179 469.7 981.892 468.704 981.996 466.829C983.621 438.495 978.288 409.787 966.596 383.933C965.904 382.408 963.738 382.416 963.021 383.929C948.842 413.9 930.309 442.208 908.45 467.154C907.188 468.595 904.838 467.537 904.992 465.629C907.438 434.683 899.163 402.97 881.875 377.187C880.954 375.816 878.854 376.158 878.371 377.737C867.204 413.929 848.579 449.129 825.471 479.154C824.467 480.454 822.421 480 822.013 478.412C816 455.22 806.167 433.02 793.025 412.991C792.129 411.633 790.075 411.887 789.529 413.42C780.009 440.1 764.896 468.387 747.604 490.87C746.546 492.241 744.396 491.629 744.129 489.92C741.671 474.166 737.325 458.708 731.213 443.987C730.554 442.416 728.317 442.358 727.584 443.891C719.7 460.383 711.584 477.712 702.292 493.441C701.434 494.9 699.275 494.616 698.738 493.012C693.629 477.833 686.221 463.433 676.829 450.458C676.354 449.804 676.321 448.929 676.759 448.25C722.4 377.058 795.871 322.258 877.767 301.237C959.634 280.22 1048.22 286.862 1122.47 327.158C1123.22 327.566 1123.64 328.429 1123.5 329.275Z" fill="white"/>
<path d="M693.37 420.343C699.137 430.03 703.933 440.301 707.529 450.985C708.066 452.589 710.224 452.868 711.087 451.414C720.37 435.689 728.495 418.355 736.379 401.864C737.112 400.33 739.349 400.385 739.999 401.955C746.12 416.68 750.466 432.139 752.92 447.893C753.187 449.601 755.341 450.214 756.395 448.843C773.687 426.36 788.804 398.072 798.316 371.393C798.866 369.86 800.92 369.605 801.812 370.964C814.962 390.997 824.795 413.193 830.804 436.385C831.216 437.972 833.262 438.426 834.262 437.126C857.366 407.101 875.999 371.905 887.162 335.71C887.649 334.135 889.749 333.789 890.67 335.16C907.958 360.943 916.229 392.655 913.783 423.597C913.633 425.505 915.983 426.568 917.241 425.126C939.103 400.18 957.633 371.872 971.816 341.901C972.533 340.389 974.699 340.38 975.391 341.901C987.083 367.76 992.416 396.472 990.791 424.801C990.678 426.676 992.974 427.672 994.22 426.268C1015.99 401.705 1034.47 374.135 1048.29 344.38C1049.11 342.614 1051.7 342.951 1052.01 344.872C1056.38 371.968 1059.22 398.835 1056.87 426.13C1056.72 427.968 1058.92 429.043 1060.22 427.735C1089.42 398.364 1111.31 361.843 1123.8 322.368C972.445 282.689 788.762 287.201 693.37 420.343Z" fill="#EBEBEB"/>
<path d="M749.19 360.327C796.357 317.302 856.565 284.215 918.223 267.669C911.569 269.456 899.648 278.244 893.394 282.581C885.782 287.856 878.719 293.873 871.432 299.59C856.865 311.023 842.44 322.64 828.169 334.44C799.832 357.86 772.09 382.002 744.969 406.823C717.853 431.648 691.361 457.156 665.532 483.315C661.319 487.581 652.186 501.206 646.544 502.619C638.053 504.744 640.153 496.448 642.503 492.048C650.657 476.773 661.573 462.294 671.682 448.273C694.573 416.531 720.257 386.719 749.19 360.327Z" fill="white"/>
<path d="M944.63 693.39C992.034 651.173 1008.79 605.748 1011.69 556.473C1011.8 554.523 1009.31 553.644 1008.15 555.203C993.646 574.557 975.542 593.79 957.134 609.328C955.767 610.486 953.73 609.319 953.951 607.544C957.888 576.223 957.459 544.361 952.605 513.169C952.317 511.311 949.817 510.898 948.921 512.553C934.738 538.74 918.275 564.182 899.73 587.461C898.684 588.778 896.555 588.248 896.234 586.594C890.276 556.007 884.121 525.244 877.03 494.89C876.592 493.003 873.934 492.823 873.267 494.644C867.346 510.794 857.621 525.453 847.484 539.411C836.38 554.698 825.205 570.065 811.921 583.482C810.775 584.64 808.796 583.944 808.588 582.328C805.042 555.182 797.992 528.432 789.205 502.486C788.655 500.861 786.442 500.682 785.617 502.182C772.121 526.798 756.63 550.794 738.626 572.311C737.509 573.648 735.351 572.965 735.163 571.24C733.326 554.836 729.988 538.557 726.53 522.398C726.134 520.536 723.626 520.286 722.842 522.019C712.884 544.082 699.946 565.344 685.426 584.719C684.301 586.219 681.942 585.415 681.884 583.54C681.442 569.323 678.838 555.057 675.28 541.265C674.867 539.653 672.759 539.282 671.792 540.64C660.18 556.928 647.121 572.319 633.388 586.873C632.146 588.186 629.971 587.261 629.996 585.457C630.167 572.74 628.846 559.928 627.138 547.311C626.921 545.715 624.971 545.078 623.817 546.198C599.792 569.498 575.33 588.54 555.246 613.319C554.546 614.186 554.692 615.498 555.567 616.182C604.359 654.398 666.755 669.394 727.546 681.84C766.821 689.873 806.271 697.936 846.296 700.148C883.755 702.219 907.217 701.998 943.692 693.865C944.034 693.794 944.371 693.623 944.63 693.39Z" fill="white"/>
<path d="M982 650C987.621 634.688 993.635 619.102 995.564 602.727C995.793 600.806 993.397 599.79 992.156 601.26C976.768 619.544 957.839 637.494 938.822 651.773C937.41 652.835 935.472 651.565 935.797 649.827C941.493 619.077 942.931 587.535 939.972 556.402C939.793 554.544 937.364 553.994 936.381 555.573C920.902 580.635 903.227 604.827 883.626 626.748C882.518 627.985 880.456 627.335 880.239 625.685C876.16 595.081 871.897 564.29 866.697 533.852C866.368 531.956 863.768 531.623 863.006 533.385C856.239 549.006 845.822 562.931 835.035 576.135C823.218 590.598 811.331 605.135 797.485 617.619C796.289 618.698 794.385 617.89 794.272 616.277C792.368 589.223 786.989 562.344 779.856 536.165C779.41 534.527 777.243 534.215 776.347 535.652C761.639 559.202 744.997 582.019 726.031 602.235C724.86 603.481 722.781 602.681 722.689 600.965C721.839 584.631 719.506 568.34 717.047 552.152C716.76 550.285 714.31 549.89 713.435 551.56C702.356 572.79 688.393 593.052 672.977 611.356C671.785 612.777 669.51 611.835 669.564 609.977C669.956 595.894 668.227 581.627 665.531 567.777C665.218 566.152 663.168 565.669 662.135 566.952C649.764 582.373 636.018 596.827 621.664 610.406C620.364 611.631 618.285 610.59 618.414 608.806C619.318 596.24 618.768 583.49 617.822 570.91C617.702 569.315 615.822 568.569 614.618 569.61C599.972 582.281 585.289 593.515 571.356 605.323C703.589 656.819 845.404 662.284 982 650Z" fill="#EBEBEB"/>
<path d="M1123.78 331.779C1123.68 332.167 1123.58 332.554 1123.49 332.942C1123.39 333.283 1123.3 333.621 1123.2 333.913C1123.05 334.542 1122.86 335.171 1122.71 335.8C1122.43 336.967 1122.08 338.079 1121.79 339.242C1121.79 339.242 1121.46 342.004 1120.15 347.042C1120.05 346.992 1120 346.946 1119.9 346.896C1117.92 345.542 1116.03 344.183 1114.04 342.925H1113.95C1104.21 336.238 1094.32 330.229 1083.71 325.046C1068.06 317.488 1051.63 311.379 1034.72 307.021C1022.61 303.871 1010.21 301.592 997.705 300.283C967.955 297.233 937.622 299.221 908.892 307.308C879.963 314.917 852.684 328.196 827.151 344.329C776.084 376.892 733.442 421.321 692.451 467.108C691.388 468.271 690.367 469.433 689.305 470.646C653.351 510.767 617.542 552.338 575.63 588.192C576.359 588.438 577.034 588.675 577.763 588.921C605.288 598.467 633.288 606.75 661.584 614.067C663.134 614.504 664.688 614.892 666.192 615.183C699.767 623.563 733.83 630.492 767.988 636.404C803.797 642.754 839.605 647.646 875.601 649.096C910.876 650.604 946.201 648.421 980.309 640.475C980.892 640.375 981.572 640.229 982.105 640.088L982.297 640.038C984.626 639.263 987.388 638.583 989.759 637.763L983.313 648.663L981.667 651.279C981.33 651.763 980.988 652.296 980.601 652.829C979.972 653.796 979.342 654.771 978.663 655.738H978.613C978.472 655.788 978.326 655.833 978.18 655.833C976.48 656.271 974.497 656.608 972.801 656.9L972.751 656.946C940.484 663.588 907.58 665.375 875.022 664.167C838.101 662.954 801.517 657.725 765.422 652.2C730.876 646.821 696.472 640.425 662.263 632.529L662.217 632.575C660.567 632.233 658.967 631.896 657.372 631.513C625.251 624.242 593.363 615.667 561.917 605.442C558.284 604.279 554.601 603.067 550.967 601.854C549.176 601.229 547.48 600.113 546.172 598.517C542.538 593.958 543.263 587.371 547.722 583.738L548.013 583.492L548.063 583.442C581.93 556.988 612.113 525.933 641.672 493.808C653.834 480.629 665.897 467.304 678.059 454.025C678.305 453.783 678.547 453.492 678.738 453.25C720.167 407.804 764.259 362.742 817.701 329.308C832.042 320.442 846.967 312.35 862.522 305.567C862.572 305.567 862.667 305.517 862.717 305.517C863.634 305.083 864.555 304.696 865.526 304.308C878.172 298.929 891.159 294.421 904.53 291.029C935.492 282.746 967.859 280.904 999.497 284.488C1014.42 286.138 1029.15 289.092 1043.49 293.308C1059.63 297.958 1075.38 304.163 1090.44 311.575C1092.09 312.4 1093.74 313.271 1095.39 314.192C1095.48 314.192 1095.53 314.242 1095.58 314.288C1100.18 316.712 1104.69 319.375 1109.1 322.138C1110.16 322.817 1111.23 323.446 1112.25 324.125C1115.98 326.45 1119.61 328.871 1123.1 331.346C1123.35 331.488 1123.54 331.633 1123.78 331.779Z" fill="#0A0A0A"/>
<path d="M622.27 271.23C615.191 258.322 612.487 244.551 612.374 229.83C594.724 213.517 568.22 207.451 545.233 214.459C556.728 199.313 576.391 191.872 595.403 191.809C614.416 191.747 632.895 198.255 649.92 206.713C661.616 212.526 671.77 216.034 684.441 219.217L725.299 209.013C716.216 221.555 714.716 238.517 713.866 251.201C713.024 263.884 711.82 277.467 703.774 287.301C694.978 298.051 679.945 301.655 666.058 301.263C652.174 300.872 638.574 297.184 624.716 296.242C610.858 295.305 595.795 297.626 585.795 307.263C594.008 291.984 606.891 279.255 622.27 271.23Z" fill="#0A0A0A"/>
<path d="M694.58 232.178L631.459 249.27C631.459 249.27 646.021 268.932 671.246 264.603C696.48 260.274 694.58 232.178 694.58 232.178Z" fill="white"/>
<path d="M475.659 265.153C472.105 314.224 473.671 363.665 480.317 412.411C482.875 378.228 487.8 343.69 501.638 312.324C515.471 280.961 539.192 252.79 570.859 239.665L475.659 265.153Z" fill="#0F1010"/>
<path d="M458.958 749.25H141.137C187.037 702.25 251.507 676.379 314.858 680.784C368.42 684.467 420.137 709.663 458.958 749.25Z" fill="#EBEBEB"/>
<path d="M1100.1 21.501C1017.38 91.767 916.421 140.384 809.909 161.255C909.334 124.797 1011.95 80.176 1100.1 21.501Z" fill="#191C1E"/>
<path d="M1127.59 58.398C1136.12 131.819 1123.25 207.378 1090.4 276.798C1110.56 205.207 1123.45 131.507 1127.59 58.398Z" fill="#EBEBEB"/>
<path d="M218.674 565.21C210.945 572.297 205.203 585.514 199.887 594.502C193.783 604.818 188.062 615.356 182.737 626.093C172.087 647.568 163.02 669.818 155.637 692.623C151.503 705.385 148.633 718.485 144.77 731.277C141.753 708.906 149.72 681.356 156.899 660.385C164.795 637.302 176.295 615.443 190.92 595.914C199.203 584.856 208.491 574.548 218.674 565.21Z" fill="#EBEBEB"/>
<path d="M900.84 59.518C778.153 97.817 641.348 102.763 524.673 152.063C589.153 138.059 653.603 132.038 718.886 121.047C784.173 110.051 846.403 91.018 900.84 59.518Z" fill="#0F1010"/>
</svg>
